  0
SECTION
  2
HEADER
  9
$ACADVER
  1
AC1009
  9
$INSBASE
 10
0.0
 20
0.0
 30
0.0
  9
$EXTMIN
 10
0.0950846
 20
0.256315
 30
0.0
  9
$EXTMAX
 10
228.695999999999998
 20
76.457499999999996
 30
0.0
  9
$LIMMIN
 10
0.0
 20
0.0
  9
$LIMMAX
 10
12.0
 20
9.0
  9
$ORTHOMODE
 70
     0
  9
$REGENMODE
 70
     1
  9
$FILLMODE
 70
     0
  9
$QTEXTMODE
 70
     0
  9
$MIRRTEXT
 70
     0
  9
$DRAGMODE
 70
     2
  9
$LTSCALE
 40
1.0
  9
$OSMODE
 70
  3583
  9
$ATTMODE
 70
     1
  9
$TEXTSIZE
 40
0.2
  9
$TRACEWID
 40
0.05
  9
$TEXTSTYLE
  7
STANDARD
  9
$CLAYER
  8
0
  9
$CELTYPE
  6
CONTINUOUS
  9
$CECOLOR
 62
   256
  9
$DIMSCALE
 40
1.0
  9
$DIMASZ
 40
0.18
  9
$DIMEXO
 40
0.0625
  9
$DIMDLI
 40
0.38
  9
$DIMRND
 40
0.0
  9
$DIMDLE
 40
0.0
  9
$DIMEXE
 40
0.18
  9
$DIMTP
 40
0.0
  9
$DIMTM
 40
0.0
  9
$DIMTXT
 40
0.18
  9
$DIMCEN
 40
0.09
  9
$DIMTSZ
 40
0.0
  9
$DIMTOL
 70
     0
  9
$DIMLIM
 70
     0
  9
$DIMTIH
 70
     1
  9
$DIMTOH
 70
     1
  9
$DIMSE1
 70
     0
  9
$DIMSE2
 70
     0
  9
$DIMTAD
 70
     0
  9
$DIMZIN
 70
     0
  9
$DIMBLK
  1

  9
$DIMASO
 70
     1
  9
$DIMSHO
 70
     1
  9
$DIMPOST
  1

  9
$DIMAPOST
  1

  9
$DIMALT
 70
     0
  9
$DIMALTD
 70
     2
  9
$DIMALTF
 40
25.3999999999999986
  9
$DIMLFAC
 40
1.0
  9
$DIMTOFL
 70
     0
  9
$DIMTVP
 40
0.0
  9
$DIMTIX
 70
     0
  9
$DIMSOXD
 70
     0
  9
$DIMSAH
 70
     0
  9
$DIMBLK1
  1

  9
$DIMBLK2
  1

  9
$DIMSTYLE
  2
STANDARD
  9
$DIMCLRD
 70
     0
  9
$DIMCLRE
 70
     0
  9
$DIMCLRT
 70
     0
  9
$DIMTFAC
 40
1.0
  9
$DIMGAP
 40
0.09
  9
$LUNITS
 70
     2
  9
$LUPREC
 70
     4
  9
$SKETCHINC
 40
0.1
  9
$FILLETRAD
 40
0.0
  9
$AUNITS
 70
     0
  9
$AUPREC
 70
     0
  9
$MENU
  1
.
  9
$ELEVATION
 40
0.0
  9
$PELEVATION
 40
0.0
  9
$THICKNESS
 40
0.0
  9
$LIMCHECK
 70
     0
  9
$BLIPMODE
 70
     0
  9
$CHAMFERA
 40
0.0
  9
$CHAMFERB
 40
0.0
  9
$SKPOLY
 70
     0
  9
$TDCREATE
 40
2459599.9083796301856637
  9
$TDUPDATE
 40
2459599.9221180560998619
  9
$TDINDWG
 40
0.0121875
  9
$TDUSRTIMER
 40
0.0121875
  9
$USRTIMER
 70
     1
  9
$ANGBASE
 50
0.0
  9
$ANGDIR
 70
     0
  9
$PDMODE
 70
     0
  9
$PDSIZE
 40
0.0
  9
$PLINEWID
 40
0.0
  9
$COORDS
 70
     1
  9
$SPLFRAME
 70
     1
  9
$SPLINETYPE
 70
     6
  9
$SPLINESEGS
 70
     8
  9
$ATTDIA
 70
     1
  9
$ATTREQ
 70
     1
  9
$HANDLING
 70
     1
  9
$HANDSEED
  5
596
  9
$SURFTAB1
 70
     6
  9
$SURFTAB2
 70
     6
  9
$SURFTYPE
 70
     6
  9
$SURFU
 70
     6
  9
$SURFV
 70
     6
  9
$UCSNAME
  2

  9
$UCSORG
 10
0.0
 20
0.0
 30
0.0
  9
$UCSXDIR
 10
1.0
 20
0.0
 30
0.0
  9
$UCSYDIR
 10
0.0
 20
1.0
 30
0.0
  9
$PUCSNAME
  2

  9
$PUCSORG
 10
0.0
 20
0.0
 30
0.0
  9
$PUCSXDIR
 10
1.0
 20
0.0
 30
0.0
  9
$PUCSYDIR
 10
0.0
 20
1.0
 30
0.0
  9
$USERI1
 70
     0
  9
$USERI2
 70
     0
  9
$USERI3
 70
     0
  9
$USERI4
 70
     0
  9
$USERI5
 70
     0
  9
$USERR1
 40
0.0
  9
$USERR2
 40
0.0
  9
$USERR3
 40
0.0
  9
$USERR4
 40
0.0
  9
$USERR5
 40
0.0
  9
$WORLDVIEW
 70
     1
  9
$SHADEDGE
 70
     3
  9
$SHADEDIF
 70
    70
  9
$TILEMODE
 70
     1
  9
$MAXACTVP
 70
    64
  9
$PLIMCHECK
 70
     0
  9
$PEXTMIN
 10
1.0000000000000000E+20
 20
1.0000000000000000E+20
 30
1.0000000000000000E+20
  9
$PEXTMAX
 10
-1.0000000000000000E+20
 20
-1.0000000000000000E+20
 30
-1.0000000000000000E+20
  9
$PLIMMIN
 10
0.0
 20
0.0
  9
$PLIMMAX
 10
12.0
 20
9.0
  9
$UNITMODE
 70
     0
  9
$VISRETAIN
 70
     1
  9
$PLINEGEN
 70
     0
  9
$PSLTSCALE
 70
     1
  0
ENDSEC
  0
SECTION
  2
TABLES
  0
TABLE
  2
VPORT
 70
     1
  0
VPORT
  2
*ACTIVE
 70
     0
 10
0.0
 20
0.0
 11
1.0
 21
1.0
 12
660.2226657264500318
 22
128.8684500892483982
 13
0.0
 23
0.0
 14
1.0
 24
1.0
 15
0.0
 25
0.0
 16
0.0
 26
0.0
 36
1.0
 17
0.0
 27
0.0
 37
0.0
 40
730.5774305510236672
 41
2.3115151515151511
 42
50.0
 43
0.0
 44
0.0
 50
0.0
 51
0.0
 71
     0
 72
   100
 73
     1
 74
     1
 75
     0
 76
     0
 77
     0
 78
     0
  0
ENDTAB
  0
TABLE
  2
LTYPE
 70
     1
  0
LTYPE
  2
CONTINUOUS
 70
     0
  3
Solid line
 72
    65
 73
     0
 40
0.0
  0
ENDTAB
  0
TABLE
  2
LAYER
 70
     1
  0
LAYER
  2
0
 70
     0
 62
     7
  6
CONTINUOUS
  0
ENDTAB
  0
TABLE
  2
STYLE
 70
     2
  0
STYLE
  2
STANDARD
 70
     0
 40
0.0
 41
1.0
 50
0.0
 71
     0
 42
0.2
  3
txt
  4

  0
STYLE
  2
ANNOTATIVE
 70
     0
 40
0.0
 41
1.0
 50
0.0
 71
     0
 42
0.2
  3
txt
  4

  0
ENDTAB
  0
TABLE
  2
VIEW
 70
     0
  0
ENDTAB
  0
TABLE
  2
UCS
 70
     0
  0
ENDTAB
  0
TABLE
  2
APPID
 70
     4
  0
APPID
  2
ACAD
 70
     0
  0
APPID
  2
ACADANNOTATIVE
 70
     0
  0
APPID
  2
ACAD_NAV_VCDISPLAY
 70
     0
  0
APPID
  2
ACAD_MLEADERVER
 70
     0
  0
ENDTAB
  0
TABLE
  2
DIMSTYLE
 70
     2
  0
DIMSTYLE
  2
STANDARD
 70
     0
  3

  4

  5

  6

  7

 40
1.0
 41
0.18
 42
0.0625
 43
0.38
 44
0.18
 45
0.0
 46
0.0
 47
0.0
 48
0.0
140
0.18
141
0.09
142
0.0
143
25.3999999999999986
144
1.0
145
0.0
146
1.0
147
0.09
 71
     0
 72
     0
 73
     1
 74
     1
 75
     0
 76
     0
 77
     0
 78
     0
170
     0
171
     2
172
     0
173
     0
174
     0
175
     0
176
     0
177
     0
178
     0
  0
DIMSTYLE
  2
ANNOTATIVE
 70
     0
  3

  4

  5

  6

  7

 40
1.0
 41
0.18
 42
0.0625
 43
0.38
 44
0.18
 45
0.0
 46
0.0
 47
0.0
 48
0.0
140
0.18
141
0.09
142
0.0
143
25.3999999999999986
144
1.0
145
0.0
146
1.0
147
0.09
 71
     0
 72
     0
 73
     1
 74
     1
 75
     0
 76
     0
 77
     0
 78
     0
170
     0
171
     2
172
     0
173
     0
174
     0
175
     0
176
     0
177
     0
178
     0
  0
ENDTAB
  0
ENDSEC
  0
SECTION
  2
BLOCKS
  0
BLOCK
  8
0
  2
$MODEL_SPACE
 70
     0
 10
0.0
 20
0.0
 30
0.0
  3
$MODEL_SPACE
  1

  0
ENDBLK
  5
71
  8
0
  0
BLOCK
 67
     1
  8
0
  2
$PAPER_SPACE
 70
     0
 10
0.0
 20
0.0
 30
0.0
  3
$PAPER_SPACE
  1

  0
ENDBLK
  5
6D
 67
     1
  8
0
  0
ENDSEC
  0
SECTION
  2
ENTITIES
  0
LINE
  5
75
  8
0
 62
     0
 10
227.1090000000000089
 20
76.457499999999996
 30
0.0
 11
227.2330000000000041
 21
76.4535999999999945
 31
0.0
  0
LINE
  5
76
  8
0
 62
     0
 10
227.2330000000000041
 20
76.4535999999999945
 30
0.0
 11
227.3569999999999993
 21
76.4385000000000048
 31
0.0
  0
LINE
  5
77
  8
0
 62
     0
 10
227.3569999999999993
 20
76.4385000000000048
 30
0.0
 11
227.4799999999999898
 21
76.4147999999999996
 31
0.0
  0
LINE
  5
78
  8
0
 62
     0
 10
227.4799999999999898
 20
76.4147999999999996
 30
0.0
 11
227.5999999999999943
 21
76.3806000000000012
 31
0.0
  0
LINE
  5
79
  8
0
 62
     0
 10
227.5999999999999943
 20
76.3806000000000012
 30
0.0
 11
227.717000000000013
 21
76.3379000000000048
 31
0.0
  0
LINE
  5
7A
  8
0
 62
     0
 10
227.717000000000013
 20
76.3379000000000048
 30
0.0
 11
227.8300000000000125
 21
76.2839999999999918
 31
0.0
  0
LINE
  5
7B
  8
0
 62
     0
 10
227.8300000000000125
 20
76.2839999999999918
 30
0.0
 11
227.938999999999993
 21
76.2246999999999844
 31
0.0
  0
LINE
  5
7C
  8
0
 62
     0
 10
227.938999999999993
 20
76.2246999999999844
 30
0.0
 11
228.0420000000000016
 21
76.1544999999999987
 31
0.0
  0
LINE
  5
7D
  8
0
 62
     0
 10
228.0420000000000016
 20
76.1544999999999987
 30
0.0
 11
228.1399999999999864
 21
76.0772000000000048
 31
0.0
  0
LINE
  5
7E
  8
0
 62
     0
 10
228.1399999999999864
 20
76.0772000000000048
 30
0.0
 11
228.2319999999999993
 21
75.993300000000005
 31
0.0
  0
LINE
  5
7F
  8
0
 62
     0
 10
228.2319999999999993
 20
75.993300000000005
 30
0.0
 11
228.3160000000000025
 21
75.9008000000000038
 31
0.0
  0
LINE
  5
80
  8
0
 62
     0
 10
228.3160000000000025
 20
75.9008000000000038
 30
0.0
 11
228.3919999999999959
 21
75.8031000000000006
 31
0.0
  0
LINE
  5
81
  8
0
 62
     0
 10
228.3919999999999959
 20
75.8031000000000006
 30
0.0
 11
228.4619999999999891
 21
75.6997999999999962
 31
0.0
  0
LINE
  5
82
  8
0
 62
     0
 10
228.4619999999999891
 20
75.6997999999999962
 30
0.0
 11
228.5229999999999961
 21
75.5908000000000015
 31
0.0
  0
LINE
  5
83
  8
0
 62
     0
 10
228.5229999999999961
 20
75.5908000000000015
 30
0.0
 11
228.5749999999999886
 21
75.4779000000000053
 31
0.0
  0
LINE
  5
84
  8
0
 62
     0
 10
228.5749999999999886
 20
75.4779000000000053
 30
0.0
 11
228.617999999999995
 21
75.3606999999999942
 31
0.0
  0
LINE
  5
85
  8
0
 62
     0
 10
228.617999999999995
 20
75.3606999999999942
 30
0.0
 11
228.6519999999999868
 21
75.240799999999993
 31
0.0
  0
LINE
  5
86
  8
0
 62
     0
 10
228.6519999999999868
 20
75.240799999999993
 30
0.0
 11
228.6769999999999925
 21
75.1183999999999941
 31
0.0
  0
LINE
  5
87
  8
0
 62
     0
 10
228.6769999999999925
 20
75.1183999999999941
 30
0.0
 11
228.6910000000000025
 21
74.995599999999996
 31
0.0
  0
LINE
  5
88
  8
0
 62
     0
 10
228.6910000000000025
 20
74.995599999999996
 30
0.0
 11
228.695999999999998
 21
74.8700000000000045
 31
0.0
  0
LINE
  5
89
  8
0
 62
     0
 10
228.695999999999998
 20
74.8700000000000045
 30
0.0
 11
228.695999999999998
 21
1.8438099999999991
 31
0.0
  0
LINE
  5
8A
  8
0
 62
     0
 10
228.695999999999998
 20
1.8438099999999991
 30
0.0
 11
228.6910000000000025
 21
1.7197899999999999
 31
0.0
  0
LINE
  5
8B
  8
0
 62
     0
 10
228.6910000000000025
 20
1.7197899999999999
 30
0.0
 11
228.6769999999999925
 21
1.5957699999999999
 31
0.0
  0
LINE
  5
8C
  8
0
 62
     0
 10
228.6769999999999925
 20
1.5957699999999999
 30
0.0
 11
228.6519999999999868
 21
1.4731199999999991
 31
0.0
  0
LINE
  5
8D
  8
0
 62
     0
 10
228.6519999999999868
 20
1.4731199999999991
 30
0.0
 11
228.617999999999995
 21
1.353229999999999
 31
0.0
  0
LINE
  5
8E
  8
0
 62
     0
 10
228.617999999999995
 20
1.353229999999999
 30
0.0
 11
228.5749999999999886
 21
1.2360999999999991
 31
0.0
  0
LINE
  5
8F
  8
0
 62
     0
 10
228.5749999999999886
 20
1.2360999999999991
 30
0.0
 11
228.5229999999999961
 21
1.1230999999999991
 31
0.0
  0
LINE
  5
90
  8
0
 62
     0
 10
228.5229999999999961
 20
1.1230999999999991
 30
0.0
 11
228.4619999999999891
 21
1.01424
 31
0.0
  0
LINE
  5
91
  8
0
 62
     0
 10
228.4619999999999891
 20
1.01424
 30
0.0
 11
228.3919999999999959
 21
0.9108829999999999
 31
0.0
  0
LINE
  5
92
  8
0
 62
     0
 10
228.3919999999999959
 20
0.9108829999999999
 30
0.0
 11
228.3160000000000025
 21
0.813043
 31
0.0
  0
LINE
  5
93
  8
0
 62
     0
 10
228.3160000000000025
 20
0.813043
 30
0.0
 11
228.2319999999999993
 21
0.7207140000000001
 31
0.0
  0
LINE
  5
94
  8
0
 62
     0
 10
228.2319999999999993
 20
0.7207140000000001
 30
0.0
 11
228.1399999999999864
 21
0.6366550000000001
 31
0.0
  0
LINE
  5
95
  8
0
 62
     0
 10
228.1399999999999864
 20
0.6366550000000001
 30
0.0
 11
228.0420000000000016
 21
0.56086
 31
0.0
  0
LINE
  5
96
  8
0
 62
     0
 10
228.0420000000000016
 20
0.56086
 30
0.0
 11
227.938999999999993
 21
0.490583
 31
0.0
  0
LINE
  5
97
  8
0
 62
     0
 10
227.938999999999993
 20
0.490583
 30
0.0
 11
227.8300000000000125
 21
0.4299479999999999
 31
0.0
  0
LINE
  5
98
  8
0
 62
     0
 10
227.8300000000000125
 20
0.4299479999999999
 30
0.0
 11
227.717000000000013
 21
0.377582
 31
0.0
  0
LINE
  5
99
  8
0
 62
     0
 10
227.717000000000013
 20
0.377582
 30
0.0
 11
227.5999999999999943
 21
0.334863
 31
0.0
  0
LINE
  5
9A
  8
0
 62
     0
 10
227.5999999999999943
 20
0.334863
 30
0.0
 11
227.4799999999999898
 21
0.300412
 31
0.0
  0
LINE
  5
9B
  8
0
 62
     0
 10
227.4799999999999898
 20
0.300412
 30
0.0
 11
227.3569999999999993
 21
0.275608
 31
0.0
  0
LINE
  5
9C
  8
0
 62
     0
 10
227.3569999999999993
 20
0.275608
 30
0.0
 11
227.2330000000000041
 21
0.261827
 31
0.0
  0
LINE
  5
9D
  8
0
 62
     0
 10
227.2330000000000041
 20
0.261827
 30
0.0
 11
227.1090000000000089
 21
0.257693
 31
0.0
  0
LINE
  5
9E
  8
0
 62
     0
 10
227.1090000000000089
 20
0.257693
 30
0.0
 11
1.6825799999999991
 21
0.256315
 31
0.0
  0
LINE
  5
9F
  8
0
 62
     0
 10
1.6825799999999991
 20
0.256315
 30
0.0
 11
1.5571799999999989
 21
0.261827
 31
0.0
  0
LINE
  5
A0
  8
0
 62
     0
 10
1.5571799999999989
 20
0.261827
 30
0.0
 11
1.434539999999999
 21
0.275608
 31
0.0
  0
LINE
  5
A1
  8
0
 62
     0
 10
1.434539999999999
 20
0.275608
 30
0.0
 11
1.31189
 21
0.300412
 31
0.0
  0
LINE
  5
A2
  8
0
 62
     0
 10
1.31189
 20
0.300412
 30
0.0
 11
1.1919999999999991
 21
0.334863
 31
0.0
  0
LINE
  5
A3
  8
0
 62
     0
 10
1.1919999999999991
 20
0.334863
 30
0.0
 11
1.0748699999999991
 21
0.377582
 31
0.0
  0
LINE
  5
A4
  8
0
 62
     0
 10
1.0748699999999991
 20
0.377582
 30
0.0
 11
0.96187
 21
0.4299479999999999
 31
0.0
  0
LINE
  5
A5
  8
0
 62
     0
 10
0.96187
 20
0.4299479999999999
 30
0.0
 11
0.8530059999999998
 21
0.490583
 31
0.0
  0
LINE
  5
A6
  8
0
 62
     0
 10
0.8530059999999998
 20
0.490583
 30
0.0
 11
0.749653
 21
0.56086
 31
0.0
  0
LINE
  5
A7
  8
0
 62
     0
 10
0.749653
 20
0.56086
 30
0.0
 11
0.651813
 21
0.6366550000000001
 31
0.0
  0
LINE
  5
A8
  8
0
 62
     0
 10
0.651813
 20
0.6366550000000001
 30
0.0
 11
0.559484
 21
0.7207140000000001
 31
0.0
  0
LINE
  5
A9
  8
0
 62
     0
 10
0.559484
 20
0.7207140000000001
 30
0.0
 11
0.475424
 21
0.813043
 31
0.0
  0
LINE
  5
AA
  8
0
 62
     0
 10
0.475424
 20
0.813043
 30
0.0
 11
0.398254
 21
0.9108829999999999
 31
0.0
  0
LINE
  5
AB
  8
0
 62
     0
 10
0.398254
 20
0.9108829999999999
 30
0.0
 11
0.327973
 21
1.01424
 31
0.0
  0
LINE
  5
AC
  8
0
 62
     0
 10
0.327973
 20
1.01424
 30
0.0
 11
0.268718
 21
1.1230999999999991
 31
0.0
  0
LINE
  5
AD
  8
0
 62
     0
 10
0.268718
 20
1.1230999999999991
 30
0.0
 11
0.2149739999999999
 21
1.2360999999999991
 31
0.0
  0
LINE
  5
AE
  8
0
 62
     0
 10
0.2149739999999999
 20
1.2360999999999991
 30
0.0
 11
0.172255
 21
1.353229999999999
 31
0.0
  0
LINE
  5
AF
  8
0
 62
     0
 10
0.172255
 20
1.353229999999999
 30
0.0
 11
0.137804
 21
1.4731199999999991
 31
0.0
  0
LINE
  5
B0
  8
0
 62
     0
 10
0.137804
 20
1.4731199999999991
 30
0.0
 11
0.114377
 21
1.5957699999999999
 31
0.0
  0
LINE
  5
B1
  8
0
 62
     0
 10
0.114377
 20
1.5957699999999999
 30
0.0
 11
0.0992188
 21
1.7197899999999999
 31
0.0
  0
LINE
  5
B2
  8
0
 62
     0
 10
0.0992188
 20
1.7197899999999999
 30
0.0
 11
0.0950846
 21
1.8438099999999991
 31
0.0
  0
LINE
  5
B3
  8
0
 62
     0
 10
0.0950846
 20
1.8438099999999991
 30
0.0
 11
0.0950846
 21
74.8700000000000045
 31
0.0
  0
LINE
  5
B4
  8
0
 62
     0
 10
0.0950846
 20
74.8700000000000045
 30
0.0
 11
0.0992188
 21
74.995599999999996
 31
0.0
  0
LINE
  5
B5
  8
0
 62
     0
 10
0.0992188
 20
74.995599999999996
 30
0.0
 11
0.114377
 21
75.1183999999999941
 31
0.0
  0
LINE
  5
B6
  8
0
 62
     0
 10
0.114377
 20
75.1183999999999941
 30
0.0
 11
0.137804
 21
75.240799999999993
 31
0.0
  0
LINE
  5
B7
  8
0
 62
     0
 10
0.137804
 20
75.240799999999993
 30
0.0
 11
0.172255
 21
75.3606999999999942
 31
0.0
  0
LINE
  5
B8
  8
0
 62
     0
 10
0.172255
 20
75.3606999999999942
 30
0.0
 11
0.2149739999999999
 21
75.4779000000000053
 31
0.0
  0
LINE
  5
B9
  8
0
 62
     0
 10
0.2149739999999999
 20
75.4779000000000053
 30
0.0
 11
0.268718
 21
75.5908000000000015
 31
0.0
  0
LINE
  5
BA
  8
0
 62
     0
 10
0.268718
 20
75.5908000000000015
 30
0.0
 11
0.327973
 21
75.6997999999999962
 31
0.0
  0
LINE
  5
BB
  8
0
 62
     0
 10
0.327973
 20
75.6997999999999962
 30
0.0
 11
0.398254
 21
75.8031000000000006
 31
0.0
  0
LINE
  5
BC
  8
0
 62
     0
 10
0.398254
 20
75.8031000000000006
 30
0.0
 11
0.475424
 21
75.9008000000000038
 31
0.0
  0
LINE
  5
BD
  8
0
 62
     0
 10
0.475424
 20
75.9008000000000038
 30
0.0
 11
0.559484
 21
75.993300000000005
 31
0.0
  0
LINE
  5
BE
  8
0
 62
     0
 10
0.559484
 20
75.993300000000005
 30
0.0
 11
0.651813
 21
76.0772000000000048
 31
0.0
  0
LINE
  5
BF
  8
0
 62
     0
 10
0.651813
 20
76.0772000000000048
 30
0.0
 11
0.749653
 21
76.1544999999999987
 31
0.0
  0
LINE
  5
C0
  8
0
 62
     0
 10
0.749653
 20
76.1544999999999987
 30
0.0
 11
0.8530059999999998
 21
76.2246999999999844
 31
0.0
  0
LINE
  5
C1
  8
0
 62
     0
 10
0.8530059999999998
 20
76.2246999999999844
 30
0.0
 11
0.96187
 21
76.2839999999999918
 31
0.0
  0
LINE
  5
C2
  8
0
 62
     0
 10
0.96187
 20
76.2839999999999918
 30
0.0
 11
1.0748699999999991
 21
76.3379000000000048
 31
0.0
  0
LINE
  5
C3
  8
0
 62
     0
 10
1.0748699999999991
 20
76.3379000000000048
 30
0.0
 11
1.1919999999999991
 21
76.3806000000000012
 31
0.0
  0
LINE
  5
C4
  8
0
 62
     0
 10
1.1919999999999991
 20
76.3806000000000012
 30
0.0
 11
1.31189
 21
76.4147999999999996
 31
0.0
  0
LINE
  5
C5
  8
0
 62
     0
 10
1.31189
 20
76.4147999999999996
 30
0.0
 11
1.434539999999999
 21
76.4385000000000048
 31
0.0
  0
LINE
  5
C6
  8
0
 62
     0
 10
1.434539999999999
 20
76.4385000000000048
 30
0.0
 11
1.5571799999999989
 21
76.4535999999999945
 31
0.0
  0
LINE
  5
C7
  8
0
 62
     0
 10
1.5571799999999989
 20
76.4535999999999945
 30
0.0
 11
1.6825799999999991
 21
76.457499999999996
 31
0.0
  0
LINE
  5
C8
  8
0
 62
     0
 10
1.6825799999999991
 20
76.457499999999996
 30
0.0
 11
227.1090000000000089
 21
76.457499999999996
 31
0.0
  0
LINE
  5
C9
  8
0
 62
     0
 10
107.3960000000000008
 20
16.7817000000000007
 30
0.0
 11
107.3960000000000008
 21
15.7827000000000002
 31
0.0
  0
LINE
  5
CA
  8
0
 62
     0
 10
107.3960000000000008
 20
15.7827000000000002
 30
0.0
 11
106.5949999999999989
 21
15.7827000000000002
 31
0.0
  0
LINE
  5
CB
  8
0
 62
     0
 10
106.5949999999999989
 20
15.7827000000000002
 30
0.0
 11
106.5949999999999989
 21
12.6835000000000004
 31
0.0
  0
LINE
  5
CC
  8
0
 62
     0
 10
106.5949999999999989
 20
12.6835000000000004
 30
0.0
 11
107.3960000000000008
 21
12.6835000000000004
 31
0.0
  0
LINE
  5
CD
  8
0
 62
     0
 10
107.3960000000000008
 20
12.6835000000000004
 30
0.0
 11
107.3960000000000008
 21
12.0825999999999993
 31
0.0
  0
LINE
  5
CE
  8
0
 62
     0
 10
107.3960000000000008
 20
12.0825999999999993
 30
0.0
 11
105.8689999999999998
 21
12.0825999999999993
 31
0.0
  0
LINE
  5
CF
  8
0
 62
     0
 10
105.8689999999999998
 20
12.0825999999999993
 30
0.0
 11
105.8689999999999998
 21
15.3127999999999993
 31
0.0
  0
LINE
  5
D0
  8
0
 62
     0
 10
105.8689999999999998
 20
15.3127999999999993
 30
0.0
 11
99.1196000000000055
 21
15.3127999999999993
 31
0.0
  0
LINE
  5
D1
  8
0
 62
     0
 10
99.1196000000000055
 20
15.3127999999999993
 30
0.0
 11
99.1196000000000055
 21
12.0825999999999993
 31
0.0
  0
LINE
  5
D2
  8
0
 62
     0
 10
99.1196000000000055
 20
12.0825999999999993
 30
0.0
 11
98.2941000000000145
 21
12.0825999999999993
 31
0.0
  0
LINE
  5
D3
  8
0
 62
     0
 10
98.2941000000000145
 20
12.0825999999999993
 30
0.0
 11
98.2941000000000145
 21
9.2824699999999982
 31
0.0
  0
LINE
  5
D4
  8
0
 62
     0
 10
98.2941000000000145
 20
9.2824699999999982
 30
0.0
 11
99.1196000000000055
 21
9.2824699999999982
 31
0.0
  0
LINE
  5
D5
  8
0
 62
     0
 10
99.1196000000000055
 20
9.2824699999999982
 30
0.0
 11
99.1196000000000055
 21
3.0123899999999999
 31
0.0
  0
LINE
  5
D6
  8
0
 62
     0
 10
99.1196000000000055
 20
3.0123899999999999
 30
0.0
 11
100.8449999999999989
 21
3.0123899999999999
 31
0.0
  0
LINE
  5
D7
  8
0
 62
     0
 10
100.8449999999999989
 20
3.0123899999999999
 30
0.0
 11
100.8449999999999989
 21
1.81212
 31
0.0
  0
LINE
  5
D8
  8
0
 62
     0
 10
100.8449999999999989
 20
1.81212
 30
0.0
 11
104.144999999999996
 21
1.81212
 31
0.0
  0
LINE
  5
D9
  8
0
 62
     0
 10
104.144999999999996
 20
1.81212
 30
0.0
 11
104.144999999999996
 21
3.0123899999999999
 31
0.0
  0
LINE
  5
DA
  8
0
 62
     0
 10
104.144999999999996
 20
3.0123899999999999
 30
0.0
 11
105.8689999999999998
 21
3.0123899999999999
 31
0.0
  0
LINE
  5
DB
  8
0
 62
     0
 10
105.8689999999999998
 20
3.0123899999999999
 30
0.0
 11
105.8689999999999998
 21
7.4827300000000001
 31
0.0
  0
LINE
  5
DC
  8
0
 62
     0
 10
105.8689999999999998
 20
7.4827300000000001
 30
0.0
 11
107.3960000000000008
 21
7.4827300000000001
 31
0.0
  0
LINE
  5
DD
  8
0
 62
     0
 10
107.3960000000000008
 20
7.4827300000000001
 30
0.0
 11
107.3960000000000008
 21
6.88192
 31
0.0
  0
LINE
  5
DE
  8
0
 62
     0
 10
107.3960000000000008
 20
6.88192
 30
0.0
 11
106.5949999999999989
 21
6.88192
 31
0.0
  0
LINE
  5
DF
  8
0
 62
     0
 10
106.5949999999999989
 20
6.88192
 30
0.0
 11
106.5949999999999989
 21
3.7827299999999999
 31
0.0
  0
LINE
  5
E0
  8
0
 62
     0
 10
106.5949999999999989
 20
3.7827299999999999
 30
0.0
 11
107.3960000000000008
 21
3.7827299999999999
 31
0.0
  0
LINE
  5
E1
  8
0
 62
     0
 10
107.3960000000000008
 20
3.7827299999999999
 30
0.0
 11
107.3960000000000008
 21
2.7822599999999991
 31
0.0
  0
LINE
  5
E2
  8
0
 62
     0
 10
107.3960000000000008
 20
2.7822599999999991
 30
0.0
 11
121.394999999999996
 21
2.7822599999999991
 31
0.0
  0
LINE
  5
E3
  8
0
 62
     0
 10
121.394999999999996
 20
2.7822599999999991
 30
0.0
 11
121.394999999999996
 21
3.7827299999999999
 31
0.0
  0
LINE
  5
E4
  8
0
 62
     0
 10
121.394999999999996
 20
3.7827299999999999
 30
0.0
 11
122.195999999999998
 21
3.7827299999999999
 31
0.0
  0
LINE
  5
E5
  8
0
 62
     0
 10
122.195999999999998
 20
3.7827299999999999
 30
0.0
 11
122.195999999999998
 21
6.88192
 31
0.0
  0
LINE
  5
E6
  8
0
 62
     0
 10
122.195999999999998
 20
6.88192
 30
0.0
 11
121.394999999999996
 21
6.88192
 31
0.0
  0
LINE
  5
E7
  8
0
 62
     0
 10
121.394999999999996
 20
6.88192
 30
0.0
 11
121.394999999999996
 21
7.4827300000000001
 31
0.0
  0
LINE
  5
E8
  8
0
 62
     0
 10
121.394999999999996
 20
7.4827300000000001
 30
0.0
 11
122.9210000000000065
 21
7.4827300000000001
 31
0.0
  0
LINE
  5
E9
  8
0
 62
     0
 10
122.9210000000000065
 20
7.4827300000000001
 30
0.0
 11
122.9210000000000065
 21
3.0123899999999999
 31
0.0
  0
LINE
  5
EA
  8
0
 62
     0
 10
122.9210000000000065
 20
3.0123899999999999
 30
0.0
 11
124.644999999999996
 21
3.0123899999999999
 31
0.0
  0
LINE
  5
EB
  8
0
 62
     0
 10
124.644999999999996
 20
3.0123899999999999
 30
0.0
 11
124.644999999999996
 21
1.81212
 31
0.0
  0
LINE
  5
EC
  8
0
 62
     0
 10
124.644999999999996
 20
1.81212
 30
0.0
 11
127.9449999999999932
 21
1.81212
 31
0.0
  0
LINE
  5
ED
  8
0
 62
     0
 10
127.9449999999999932
 20
1.81212
 30
0.0
 11
127.9449999999999932
 21
3.0123899999999999
 31
0.0
  0
LINE
  5
EE
  8
0
 62
     0
 10
127.9449999999999932
 20
3.0123899999999999
 30
0.0
 11
129.6709999999999923
 21
3.0123899999999999
 31
0.0
  0
LINE
  5
EF
  8
0
 62
     0
 10
129.6709999999999923
 20
3.0123899999999999
 30
0.0
 11
129.6709999999999923
 21
9.2824699999999982
 31
0.0
  0
LINE
  5
F0
  8
0
 62
     0
 10
129.6709999999999923
 20
9.2824699999999982
 30
0.0
 11
130.4960000000000093
 21
9.2824699999999982
 31
0.0
  0
LINE
  5
F1
  8
0
 62
     0
 10
130.4960000000000093
 20
9.2824699999999982
 30
0.0
 11
130.4960000000000093
 21
12.0825999999999993
 31
0.0
  0
LINE
  5
F2
  8
0
 62
     0
 10
130.4960000000000093
 20
12.0825999999999993
 30
0.0
 11
129.6709999999999923
 21
12.0825999999999993
 31
0.0
  0
LINE
  5
F3
  8
0
 62
     0
 10
129.6709999999999923
 20
12.0825999999999993
 30
0.0
 11
129.6709999999999923
 21
15.3127999999999993
 31
0.0
  0
LINE
  5
F4
  8
0
 62
     0
 10
129.6709999999999923
 20
15.3127999999999993
 30
0.0
 11
122.9210000000000065
 21
15.3127999999999993
 31
0.0
  0
LINE
  5
F5
  8
0
 62
     0
 10
122.9210000000000065
 20
15.3127999999999993
 30
0.0
 11
122.9210000000000065
 21
12.0825999999999993
 31
0.0
  0
LINE
  5
F6
  8
0
 62
     0
 10
122.9210000000000065
 20
12.0825999999999993
 30
0.0
 11
121.394999999999996
 21
12.0825999999999993
 31
0.0
  0
LINE
  5
F7
  8
0
 62
     0
 10
121.394999999999996
 20
12.0825999999999993
 30
0.0
 11
121.394999999999996
 21
12.6835000000000004
 31
0.0
  0
LINE
  5
F8
  8
0
 62
     0
 10
121.394999999999996
 20
12.6835000000000004
 30
0.0
 11
122.195999999999998
 21
12.6835000000000004
 31
0.0
  0
LINE
  5
F9
  8
0
 62
     0
 10
122.195999999999998
 20
12.6835000000000004
 30
0.0
 11
122.195999999999998
 21
15.7827000000000002
 31
0.0
  0
LINE
  5
FA
  8
0
 62
     0
 10
122.195999999999998
 20
15.7827000000000002
 30
0.0
 11
121.394999999999996
 21
15.7827000000000002
 31
0.0
  0
LINE
  5
FB
  8
0
 62
     0
 10
121.394999999999996
 20
15.7827000000000002
 30
0.0
 11
121.394999999999996
 21
16.7817000000000007
 31
0.0
  0
LINE
  5
FC
  8
0
 62
     0
 10
121.394999999999996
 20
16.7817000000000007
 30
0.0
 11
107.3960000000000008
 21
16.7817000000000007
 31
0.0
  0
LINE
  5
FD
  8
0
 62
     0
 10
212.1709999999999923
 20
16.7817000000000007
 30
0.0
 11
212.1709999999999923
 21
15.7827000000000002
 31
0.0
  0
LINE
  5
FE
  8
0
 62
     0
 10
212.1709999999999923
 20
15.7827000000000002
 30
0.0
 11
211.3700000000000045
 21
15.7827000000000002
 31
0.0
  0
LINE
  5
FF
  8
0
 62
     0
 10
211.3700000000000045
 20
15.7827000000000002
 30
0.0
 11
211.3700000000000045
 21
12.6835000000000004
 31
0.0
  0
LINE
  5
100
  8
0
 62
     0
 10
211.3700000000000045
 20
12.6835000000000004
 30
0.0
 11
212.1709999999999923
 21
12.6835000000000004
 31
0.0
  0
LINE
  5
101
  8
0
 62
     0
 10
212.1709999999999923
 20
12.6835000000000004
 30
0.0
 11
212.1709999999999923
 21
6.88192
 31
0.0
  0
LINE
  5
102
  8
0
 62
     0
 10
212.1709999999999923
 20
6.88192
 30
0.0
 11
211.3700000000000045
 21
6.88192
 31
0.0
  0
LINE
  5
103
  8
0
 62
     0
 10
211.3700000000000045
 20
6.88192
 30
0.0
 11
211.3700000000000045
 21
3.7827299999999999
 31
0.0
  0
LINE
  5
104
  8
0
 62
     0
 10
211.3700000000000045
 20
3.7827299999999999
 30
0.0
 11
212.1709999999999923
 21
3.7827299999999999
 31
0.0
  0
LINE
  5
105
  8
0
 62
     0
 10
212.1709999999999923
 20
3.7827299999999999
 30
0.0
 11
212.1709999999999923
 21
2.7822599999999991
 31
0.0
  0
LINE
  5
106
  8
0
 62
     0
 10
212.1709999999999923
 20
2.7822599999999991
 30
0.0
 11
226.1699999999999875
 21
2.7822599999999991
 31
0.0
  0
LINE
  5
107
  8
0
 62
     0
 10
226.1699999999999875
 20
2.7822599999999991
 30
0.0
 11
226.1699999999999875
 21
3.7827299999999999
 31
0.0
  0
LINE
  5
108
  8
0
 62
     0
 10
226.1699999999999875
 20
3.7827299999999999
 30
0.0
 11
226.9710000000000036
 21
3.7827299999999999
 31
0.0
  0
LINE
  5
109
  8
0
 62
     0
 10
226.9710000000000036
 20
3.7827299999999999
 30
0.0
 11
226.9710000000000036
 21
6.88192
 31
0.0
  0
LINE
  5
10A
  8
0
 62
     0
 10
226.9710000000000036
 20
6.88192
 30
0.0
 11
226.1699999999999875
 21
6.88192
 31
0.0
  0
LINE
  5
10B
  8
0
 62
     0
 10
226.1699999999999875
 20
6.88192
 30
0.0
 11
226.1699999999999875
 21
12.6835000000000004
 31
0.0
  0
LINE
  5
10C
  8
0
 62
     0
 10
226.1699999999999875
 20
12.6835000000000004
 30
0.0
 11
226.9710000000000036
 21
12.6835000000000004
 31
0.0
  0
LINE
  5
10D
  8
0
 62
     0
 10
226.9710000000000036
 20
12.6835000000000004
 30
0.0
 11
226.9710000000000036
 21
15.7827000000000002
 31
0.0
  0
LINE
  5
10E
  8
0
 62
     0
 10
226.9710000000000036
 20
15.7827000000000002
 30
0.0
 11
226.1699999999999875
 21
15.7827000000000002
 31
0.0
  0
LINE
  5
10F
  8
0
 62
     0
 10
226.1699999999999875
 20
15.7827000000000002
 30
0.0
 11
226.1699999999999875
 21
16.7817000000000007
 31
0.0
  0
LINE
  5
110
  8
0
 62
     0
 10
226.1699999999999875
 20
16.7817000000000007
 30
0.0
 11
212.1709999999999923
 21
16.7817000000000007
 31
0.0
  0
LINE
  5
111
  8
0
 62
     0
 10
193.1210000000000093
 20
16.7817000000000007
 30
0.0
 11
193.1210000000000093
 21
15.7827000000000002
 31
0.0
  0
LINE
  5
112
  8
0
 62
     0
 10
193.1210000000000093
 20
15.7827000000000002
 30
0.0
 11
192.3199999999999932
 21
15.7827000000000002
 31
0.0
  0
LINE
  5
113
  8
0
 62
     0
 10
192.3199999999999932
 20
15.7827000000000002
 30
0.0
 11
192.3199999999999932
 21
12.6835000000000004
 31
0.0
  0
LINE
  5
114
  8
0
 62
     0
 10
192.3199999999999932
 20
12.6835000000000004
 30
0.0
 11
193.1210000000000093
 21
12.6835000000000004
 31
0.0
  0
LINE
  5
115
  8
0
 62
     0
 10
193.1210000000000093
 20
12.6835000000000004
 30
0.0
 11
193.1210000000000093
 21
6.88192
 31
0.0
  0
LINE
  5
116
  8
0
 62
     0
 10
193.1210000000000093
 20
6.88192
 30
0.0
 11
192.3199999999999932
 21
6.88192
 31
0.0
  0
LINE
  5
117
  8
0
 62
     0
 10
192.3199999999999932
 20
6.88192
 30
0.0
 11
192.3199999999999932
 21
3.7827299999999999
 31
0.0
  0
LINE
  5
118
  8
0
 62
     0
 10
192.3199999999999932
 20
3.7827299999999999
 30
0.0
 11
193.1210000000000093
 21
3.7827299999999999
 31
0.0
  0
LINE
  5
119
  8
0
 62
     0
 10
193.1210000000000093
 20
3.7827299999999999
 30
0.0
 11
193.1210000000000093
 21
2.7822599999999991
 31
0.0
  0
LINE
  5
11A
  8
0
 62
     0
 10
193.1210000000000093
 20
2.7822599999999991
 30
0.0
 11
207.1200000000000045
 21
2.7822599999999991
 31
0.0
  0
LINE
  5
11B
  8
0
 62
     0
 10
207.1200000000000045
 20
2.7822599999999991
 30
0.0
 11
207.1200000000000045
 21
3.7827299999999999
 31
0.0
  0
LINE
  5
11C
  8
0
 62
     0
 10
207.1200000000000045
 20
3.7827299999999999
 30
0.0
 11
207.9209999999999923
 21
3.7827299999999999
 31
0.0
  0
LINE
  5
11D
  8
0
 62
     0
 10
207.9209999999999923
 20
3.7827299999999999
 30
0.0
 11
207.9209999999999923
 21
6.88192
 31
0.0
  0
LINE
  5
11E
  8
0
 62
     0
 10
207.9209999999999923
 20
6.88192
 30
0.0
 11
207.1200000000000045
 21
6.88192
 31
0.0
  0
LINE
  5
11F
  8
0
 62
     0
 10
207.1200000000000045
 20
6.88192
 30
0.0
 11
207.1200000000000045
 21
12.6835000000000004
 31
0.0
  0
LINE
  5
120
  8
0
 62
     0
 10
207.1200000000000045
 20
12.6835000000000004
 30
0.0
 11
207.9209999999999923
 21
12.6835000000000004
 31
0.0
  0
LINE
  5
121
  8
0
 62
     0
 10
207.9209999999999923
 20
12.6835000000000004
 30
0.0
 11
207.9209999999999923
 21
15.7827000000000002
 31
0.0
  0
LINE
  5
122
  8
0
 62
     0
 10
207.9209999999999923
 20
15.7827000000000002
 30
0.0
 11
207.1200000000000045
 21
15.7827000000000002
 31
0.0
  0
LINE
  5
123
  8
0
 62
     0
 10
207.1200000000000045
 20
15.7827000000000002
 30
0.0
 11
207.1200000000000045
 21
16.7817000000000007
 31
0.0
  0
LINE
  5
124
  8
0
 62
     0
 10
207.1200000000000045
 20
16.7817000000000007
 30
0.0
 11
193.1210000000000093
 21
16.7817000000000007
 31
0.0
  0
LINE
  5
125
  8
0
 62
     0
 10
174.070999999999998
 20
16.7817000000000007
 30
0.0
 11
174.070999999999998
 21
15.7827000000000002
 31
0.0
  0
LINE
  5
126
  8
0
 62
     0
 10
174.070999999999998
 20
15.7827000000000002
 30
0.0
 11
173.2700000000000102
 21
15.7827000000000002
 31
0.0
  0
LINE
  5
127
  8
0
 62
     0
 10
173.2700000000000102
 20
15.7827000000000002
 30
0.0
 11
173.2700000000000102
 21
12.6835000000000004
 31
0.0
  0
LINE
  5
128
  8
0
 62
     0
 10
173.2700000000000102
 20
12.6835000000000004
 30
0.0
 11
174.070999999999998
 21
12.6835000000000004
 31
0.0
  0
LINE
  5
129
  8
0
 62
     0
 10
174.070999999999998
 20
12.6835000000000004
 30
0.0
 11
174.070999999999998
 21
6.88192
 31
0.0
  0
LINE
  5
12A
  8
0
 62
     0
 10
174.070999999999998
 20
6.88192
 30
0.0
 11
173.2700000000000102
 21
6.88192
 31
0.0
  0
LINE
  5
12B
  8
0
 62
     0
 10
173.2700000000000102
 20
6.88192
 30
0.0
 11
173.2700000000000102
 21
3.7827299999999999
 31
0.0
  0
LINE
  5
12C
  8
0
 62
     0
 10
173.2700000000000102
 20
3.7827299999999999
 30
0.0
 11
174.070999999999998
 21
3.7827299999999999
 31
0.0
  0
LINE
  5
12D
  8
0
 62
     0
 10
174.070999999999998
 20
3.7827299999999999
 30
0.0
 11
174.070999999999998
 21
2.7822599999999991
 31
0.0
  0
LINE
  5
12E
  8
0
 62
     0
 10
174.070999999999998
 20
2.7822599999999991
 30
0.0
 11
188.0699999999999932
 21
2.7822599999999991
 31
0.0
  0
LINE
  5
12F
  8
0
 62
     0
 10
188.0699999999999932
 20
2.7822599999999991
 30
0.0
 11
188.0699999999999932
 21
3.7827299999999999
 31
0.0
  0
LINE
  5
130
  8
0
 62
     0
 10
188.0699999999999932
 20
3.7827299999999999
 30
0.0
 11
188.8710000000000093
 21
3.7827299999999999
 31
0.0
  0
LINE
  5
131
  8
0
 62
     0
 10
188.8710000000000093
 20
3.7827299999999999
 30
0.0
 11
188.8710000000000093
 21
6.88192
 31
0.0
  0
LINE
  5
132
  8
0
 62
     0
 10
188.8710000000000093
 20
6.88192
 30
0.0
 11
188.0699999999999932
 21
6.88192
 31
0.0
  0
LINE
  5
133
  8
0
 62
     0
 10
188.0699999999999932
 20
6.88192
 30
0.0
 11
188.0699999999999932
 21
12.6835000000000004
 31
0.0
  0
LINE
  5
134
  8
0
 62
     0
 10
188.0699999999999932
 20
12.6835000000000004
 30
0.0
 11
188.8710000000000093
 21
12.6835000000000004
 31
0.0
  0
LINE
  5
135
  8
0
 62
     0
 10
188.8710000000000093
 20
12.6835000000000004
 30
0.0
 11
188.8710000000000093
 21
15.7827000000000002
 31
0.0
  0
LINE
  5
136
  8
0
 62
     0
 10
188.8710000000000093
 20
15.7827000000000002
 30
0.0
 11
188.0699999999999932
 21
15.7827000000000002
 31
0.0
  0
LINE
  5
137
  8
0
 62
     0
 10
188.0699999999999932
 20
15.7827000000000002
 30
0.0
 11
188.0699999999999932
 21
16.7817000000000007
 31
0.0
  0
LINE
  5
138
  8
0
 62
     0
 10
188.0699999999999932
 20
16.7817000000000007
 30
0.0
 11
174.070999999999998
 21
16.7817000000000007
 31
0.0
  0
LINE
  5
139
  8
0
 62
     0
 10
155.0209999999999866
 20
16.7817000000000007
 30
0.0
 11
155.0209999999999866
 21
15.7827000000000002
 31
0.0
  0
LINE
  5
13A
  8
0
 62
     0
 10
155.0209999999999866
 20
15.7827000000000002
 30
0.0
 11
154.2199999999999989
 21
15.7827000000000002
 31
0.0
  0
LINE
  5
13B
  8
0
 62
     0
 10
154.2199999999999989
 20
15.7827000000000002
 30
0.0
 11
154.2199999999999989
 21
12.6835000000000004
 31
0.0
  0
LINE
  5
13C
  8
0
 62
     0
 10
154.2199999999999989
 20
12.6835000000000004
 30
0.0
 11
155.0209999999999866
 21
12.6835000000000004
 31
0.0
  0
LINE
  5
13D
  8
0
 62
     0
 10
155.0209999999999866
 20
12.6835000000000004
 30
0.0
 11
155.0209999999999866
 21
6.88192
 31
0.0
  0
LINE
  5
13E
  8
0
 62
     0
 10
155.0209999999999866
 20
6.88192
 30
0.0
 11
154.2199999999999989
 21
6.88192
 31
0.0
  0
LINE
  5
13F
  8
0
 62
     0
 10
154.2199999999999989
 20
6.88192
 30
0.0
 11
154.2199999999999989
 21
3.7827299999999999
 31
0.0
  0
LINE
  5
140
  8
0
 62
     0
 10
154.2199999999999989
 20
3.7827299999999999
 30
0.0
 11
155.0209999999999866
 21
3.7827299999999999
 31
0.0
  0
LINE
  5
141
  8
0
 62
     0
 10
155.0209999999999866
 20
3.7827299999999999
 30
0.0
 11
155.0209999999999866
 21
2.7822599999999991
 31
0.0
  0
LINE
  5
142
  8
0
 62
     0
 10
155.0209999999999866
 20
2.7822599999999991
 30
0.0
 11
169.0200000000000102
 21
2.7822599999999991
 31
0.0
  0
LINE
  5
143
  8
0
 62
     0
 10
169.0200000000000102
 20
2.7822599999999991
 30
0.0
 11
169.0200000000000102
 21
3.7827299999999999
 31
0.0
  0
LINE
  5
144
  8
0
 62
     0
 10
169.0200000000000102
 20
3.7827299999999999
 30
0.0
 11
169.820999999999998
 21
3.7827299999999999
 31
0.0
  0
LINE
  5
145
  8
0
 62
     0
 10
169.820999999999998
 20
3.7827299999999999
 30
0.0
 11
169.820999999999998
 21
6.88192
 31
0.0
  0
LINE
  5
146
  8
0
 62
     0
 10
169.820999999999998
 20
6.88192
 30
0.0
 11
169.0200000000000102
 21
6.88192
 31
0.0
  0
LINE
  5
147
  8
0
 62
     0
 10
169.0200000000000102
 20
6.88192
 30
0.0
 11
169.0200000000000102
 21
12.6835000000000004
 31
0.0
  0
LINE
  5
148
  8
0
 62
     0
 10
169.0200000000000102
 20
12.6835000000000004
 30
0.0
 11
169.820999999999998
 21
12.6835000000000004
 31
0.0
  0
LINE
  5
149
  8
0
 62
     0
 10
169.820999999999998
 20
12.6835000000000004
 30
0.0
 11
169.820999999999998
 21
15.7827000000000002
 31
0.0
  0
LINE
  5
14A
  8
0
 62
     0
 10
169.820999999999998
 20
15.7827000000000002
 30
0.0
 11
169.0200000000000102
 21
15.7827000000000002
 31
0.0
  0
LINE
  5
14B
  8
0
 62
     0
 10
169.0200000000000102
 20
15.7827000000000002
 30
0.0
 11
169.0200000000000102
 21
16.7817000000000007
 31
0.0
  0
LINE
  5
14C
  8
0
 62
     0
 10
169.0200000000000102
 20
16.7817000000000007
 30
0.0
 11
155.0209999999999866
 21
16.7817000000000007
 31
0.0
  0
LINE
  5
14D
  8
0
 62
     0
 10
135.9710000000000036
 20
16.7817000000000007
 30
0.0
 11
135.9710000000000036
 21
15.7827000000000002
 31
0.0
  0
LINE
  5
14E
  8
0
 62
     0
 10
135.9710000000000036
 20
15.7827000000000002
 30
0.0
 11
135.1699999999999875
 21
15.7827000000000002
 31
0.0
  0
LINE
  5
14F
  8
0
 62
     0
 10
135.1699999999999875
 20
15.7827000000000002
 30
0.0
 11
135.1699999999999875
 21
12.6835000000000004
 31
0.0
  0
LINE
  5
150
  8
0
 62
     0
 10
135.1699999999999875
 20
12.6835000000000004
 30
0.0
 11
135.9710000000000036
 21
12.6835000000000004
 31
0.0
  0
LINE
  5
151
  8
0
 62
     0
 10
135.9710000000000036
 20
12.6835000000000004
 30
0.0
 11
135.9710000000000036
 21
6.88192
 31
0.0
  0
LINE
  5
152
  8
0
 62
     0
 10
135.9710000000000036
 20
6.88192
 30
0.0
 11
135.1699999999999875
 21
6.88192
 31
0.0
  0
LINE
  5
153
  8
0
 62
     0
 10
135.1699999999999875
 20
6.88192
 30
0.0
 11
135.1699999999999875
 21
3.7827299999999999
 31
0.0
  0
LINE
  5
154
  8
0
 62
     0
 10
135.1699999999999875
 20
3.7827299999999999
 30
0.0
 11
135.9710000000000036
 21
3.7827299999999999
 31
0.0
  0
LINE
  5
155
  8
0
 62
     0
 10
135.9710000000000036
 20
3.7827299999999999
 30
0.0
 11
135.9710000000000036
 21
2.7822599999999991
 31
0.0
  0
LINE
  5
156
  8
0
 62
     0
 10
135.9710000000000036
 20
2.7822599999999991
 30
0.0
 11
149.9699999999999989
 21
2.7822599999999991
 31
0.0
  0
LINE
  5
157
  8
0
 62
     0
 10
149.9699999999999989
 20
2.7822599999999991
 30
0.0
 11
149.9699999999999989
 21
3.7827299999999999
 31
0.0
  0
LINE
  5
158
  8
0
 62
     0
 10
149.9699999999999989
 20
3.7827299999999999
 30
0.0
 11
150.7709999999999866
 21
3.7827299999999999
 31
0.0
  0
LINE
  5
159
  8
0
 62
     0
 10
150.7709999999999866
 20
3.7827299999999999
 30
0.0
 11
150.7709999999999866
 21
6.88192
 31
0.0
  0
LINE
  5
15A
  8
0
 62
     0
 10
150.7709999999999866
 20
6.88192
 30
0.0
 11
149.9699999999999989
 21
6.88192
 31
0.0
  0
LINE
  5
15B
  8
0
 62
     0
 10
149.9699999999999989
 20
6.88192
 30
0.0
 11
149.9699999999999989
 21
12.6835000000000004
 31
0.0
  0
LINE
  5
15C
  8
0
 62
     0
 10
149.9699999999999989
 20
12.6835000000000004
 30
0.0
 11
150.7709999999999866
 21
12.6835000000000004
 31
0.0
  0
LINE
  5
15D
  8
0
 62
     0
 10
150.7709999999999866
 20
12.6835000000000004
 30
0.0
 11
150.7709999999999866
 21
15.7827000000000002
 31
0.0
  0
LINE
  5
15E
  8
0
 62
     0
 10
150.7709999999999866
 20
15.7827000000000002
 30
0.0
 11
149.9699999999999989
 21
15.7827000000000002
 31
0.0
  0
LINE
  5
15F
  8
0
 62
     0
 10
149.9699999999999989
 20
15.7827000000000002
 30
0.0
 11
149.9699999999999989
 21
16.7817000000000007
 31
0.0
  0
LINE
  5
160
  8
0
 62
     0
 10
149.9699999999999989
 20
16.7817000000000007
 30
0.0
 11
135.9710000000000036
 21
16.7817000000000007
 31
0.0
  0
LINE
  5
161
  8
0
 62
     0
 10
78.8211000000000013
 20
16.7817000000000007
 30
0.0
 11
78.8211000000000013
 21
15.7827000000000002
 31
0.0
  0
LINE
  5
162
  8
0
 62
     0
 10
78.8211000000000013
 20
15.7827000000000002
 30
0.0
 11
78.020300000000006
 21
15.7827000000000002
 31
0.0
  0
LINE
  5
163
  8
0
 62
     0
 10
78.020300000000006
 20
15.7827000000000002
 30
0.0
 11
78.020300000000006
 21
12.6835000000000004
 31
0.0
  0
LINE
  5
164
  8
0
 62
     0
 10
78.020300000000006
 20
12.6835000000000004
 30
0.0
 11
78.8211000000000013
 21
12.6835000000000004
 31
0.0
  0
LINE
  5
165
  8
0
 62
     0
 10
78.8211000000000013
 20
12.6835000000000004
 30
0.0
 11
78.8211000000000013
 21
6.88192
 31
0.0
  0
LINE
  5
166
  8
0
 62
     0
 10
78.8211000000000013
 20
6.88192
 30
0.0
 11
78.020300000000006
 21
6.88192
 31
0.0
  0
LINE
  5
167
  8
0
 62
     0
 10
78.020300000000006
 20
6.88192
 30
0.0
 11
78.020300000000006
 21
3.7827299999999999
 31
0.0
  0
LINE
  5
168
  8
0
 62
     0
 10
78.020300000000006
 20
3.7827299999999999
 30
0.0
 11
78.8211000000000013
 21
3.7827299999999999
 31
0.0
  0
LINE
  5
169
  8
0
 62
     0
 10
78.8211000000000013
 20
3.7827299999999999
 30
0.0
 11
78.8211000000000013
 21
2.7822599999999991
 31
0.0
  0
LINE
  5
16A
  8
0
 62
     0
 10
78.8211000000000013
 20
2.7822599999999991
 30
0.0
 11
92.8204000000000065
 21
2.7822599999999991
 31
0.0
  0
LINE
  5
16B
  8
0
 62
     0
 10
92.8204000000000065
 20
2.7822599999999991
 30
0.0
 11
92.8204000000000065
 21
3.7827299999999999
 31
0.0
  0
LINE
  5
16C
  8
0
 62
     0
 10
92.8204000000000065
 20
3.7827299999999999
 30
0.0
 11
93.6197999999999979
 21
3.7827299999999999
 31
0.0
  0
LINE
  5
16D
  8
0
 62
     0
 10
93.6197999999999979
 20
3.7827299999999999
 30
0.0
 11
93.6197999999999979
 21
6.88192
 31
0.0
  0
LINE
  5
16E
  8
0
 62
     0
 10
93.6197999999999979
 20
6.88192
 30
0.0
 11
92.8204000000000065
 21
6.88192
 31
0.0
  0
LINE
  5
16F
  8
0
 62
     0
 10
92.8204000000000065
 20
6.88192
 30
0.0
 11
92.8204000000000065
 21
12.6835000000000004
 31
0.0
  0
LINE
  5
170
  8
0
 62
     0
 10
92.8204000000000065
 20
12.6835000000000004
 30
0.0
 11
93.6197999999999979
 21
12.6835000000000004
 31
0.0
  0
LINE
  5
171
  8
0
 62
     0
 10
93.6197999999999979
 20
12.6835000000000004
 30
0.0
 11
93.6197999999999979
 21
15.7827000000000002
 31
0.0
  0
LINE
  5
172
  8
0
 62
     0
 10
93.6197999999999979
 20
15.7827000000000002
 30
0.0
 11
92.8204000000000065
 21
15.7827000000000002
 31
0.0
  0
LINE
  5
173
  8
0
 62
     0
 10
92.8204000000000065
 20
15.7827000000000002
 30
0.0
 11
92.8204000000000065
 21
16.7817000000000007
 31
0.0
  0
LINE
  5
174
  8
0
 62
     0
 10
92.8204000000000065
 20
16.7817000000000007
 30
0.0
 11
78.8211000000000013
 21
16.7817000000000007
 31
0.0
  0
LINE
  5
175
  8
0
 62
     0
 10
59.7710999999999899
 20
16.7817000000000007
 30
0.0
 11
59.7710999999999899
 21
15.7827000000000002
 31
0.0
  0
LINE
  5
176
  8
0
 62
     0
 10
59.7710999999999899
 20
15.7827000000000002
 30
0.0
 11
58.9703000000000017
 21
15.7827000000000002
 31
0.0
  0
LINE
  5
177
  8
0
 62
     0
 10
58.9703000000000017
 20
15.7827000000000002
 30
0.0
 11
58.9703000000000017
 21
12.6835000000000004
 31
0.0
  0
LINE
  5
178
  8
0
 62
     0
 10
58.9703000000000017
 20
12.6835000000000004
 30
0.0
 11
59.7710999999999899
 21
12.6835000000000004
 31
0.0
  0
LINE
  5
179
  8
0
 62
     0
 10
59.7710999999999899
 20
12.6835000000000004
 30
0.0
 11
59.7710999999999899
 21
6.88192
 31
0.0
  0
LINE
  5
17A
  8
0
 62
     0
 10
59.7710999999999899
 20
6.88192
 30
0.0
 11
58.9703000000000017
 21
6.88192
 31
0.0
  0
LINE
  5
17B
  8
0
 62
     0
 10
58.9703000000000017
 20
6.88192
 30
0.0
 11
58.9703000000000017
 21
3.7827299999999999
 31
0.0
  0
LINE
  5
17C
  8
0
 62
     0
 10
58.9703000000000017
 20
3.7827299999999999
 30
0.0
 11
59.7710999999999899
 21
3.7827299999999999
 31
0.0
  0
LINE
  5
17D
  8
0
 62
     0
 10
59.7710999999999899
 20
3.7827299999999999
 30
0.0
 11
59.7710999999999899
 21
2.7822599999999991
 31
0.0
  0
LINE
  5
17E
  8
0
 62
     0
 10
59.7710999999999899
 20
2.7822599999999991
 30
0.0
 11
73.7703999999999951
 21
2.7822599999999991
 31
0.0
  0
LINE
  5
17F
  8
0
 62
     0
 10
73.7703999999999951
 20
2.7822599999999991
 30
0.0
 11
73.7703999999999951
 21
3.7827299999999999
 31
0.0
  0
LINE
  5
180
  8
0
 62
     0
 10
73.7703999999999951
 20
3.7827299999999999
 30
0.0
 11
74.5712000000000046
 21
3.7827299999999999
 31
0.0
  0
LINE
  5
181
  8
0
 62
     0
 10
74.5712000000000046
 20
3.7827299999999999
 30
0.0
 11
74.5712000000000046
 21
6.88192
 31
0.0
  0
LINE
  5
182
  8
0
 62
     0
 10
74.5712000000000046
 20
6.88192
 30
0.0
 11
73.7703999999999951
 21
6.88192
 31
0.0
  0
LINE
  5
183
  8
0
 62
     0
 10
73.7703999999999951
 20
6.88192
 30
0.0
 11
73.7703999999999951
 21
12.6835000000000004
 31
0.0
  0
LINE
  5
184
  8
0
 62
     0
 10
73.7703999999999951
 20
12.6835000000000004
 30
0.0
 11
74.5712000000000046
 21
12.6835000000000004
 31
0.0
  0
LINE
  5
185
  8
0
 62
     0
 10
74.5712000000000046
 20
12.6835000000000004
 30
0.0
 11
74.5712000000000046
 21
15.7827000000000002
 31
0.0
  0
LINE
  5
186
  8
0
 62
     0
 10
74.5712000000000046
 20
15.7827000000000002
 30
0.0
 11
73.7703999999999951
 21
15.7827000000000002
 31
0.0
  0
LINE
  5
187
  8
0
 62
     0
 10
73.7703999999999951
 20
15.7827000000000002
 30
0.0
 11
73.7703999999999951
 21
16.7817000000000007
 31
0.0
  0
LINE
  5
188
  8
0
 62
     0
 10
73.7703999999999951
 20
16.7817000000000007
 30
0.0
 11
59.7710999999999899
 21
16.7817000000000007
 31
0.0
  0
LINE
  5
189
  8
0
 62
     0
 10
40.7210999999999999
 20
16.7817000000000007
 30
0.0
 11
40.7210999999999999
 21
15.7827000000000002
 31
0.0
  0
LINE
  5
18A
  8
0
 62
     0
 10
40.7210999999999999
 20
15.7827000000000002
 30
0.0
 11
39.9202999999999975
 21
15.7827000000000002
 31
0.0
  0
LINE
  5
18B
  8
0
 62
     0
 10
39.9202999999999975
 20
15.7827000000000002
 30
0.0
 11
39.9202999999999975
 21
12.6835000000000004
 31
0.0
  0
LINE
  5
18C
  8
0
 62
     0
 10
39.9202999999999975
 20
12.6835000000000004
 30
0.0
 11
40.7210999999999999
 21
12.6835000000000004
 31
0.0
  0
LINE
  5
18D
  8
0
 62
     0
 10
40.7210999999999999
 20
12.6835000000000004
 30
0.0
 11
40.7210999999999999
 21
6.88192
 31
0.0
  0
LINE
  5
18E
  8
0
 62
     0
 10
40.7210999999999999
 20
6.88192
 30
0.0
 11
39.9202999999999975
 21
6.88192
 31
0.0
  0
LINE
  5
18F
  8
0
 62
     0
 10
39.9202999999999975
 20
6.88192
 30
0.0
 11
39.9202999999999975
 21
3.7827299999999999
 31
0.0
  0
LINE
  5
190
  8
0
 62
     0
 10
39.9202999999999975
 20
3.7827299999999999
 30
0.0
 11
40.7210999999999999
 21
3.7827299999999999
 31
0.0
  0
LINE
  5
191
  8
0
 62
     0
 10
40.7210999999999999
 20
3.7827299999999999
 30
0.0
 11
40.7210999999999999
 21
2.7822599999999991
 31
0.0
  0
LINE
  5
192
  8
0
 62
     0
 10
40.7210999999999999
 20
2.7822599999999991
 30
0.0
 11
54.7203999999999908
 21
2.7822599999999991
 31
0.0
  0
LINE
  5
193
  8
0
 62
     0
 10
54.7203999999999908
 20
2.7822599999999991
 30
0.0
 11
54.7203999999999908
 21
3.7827299999999999
 31
0.0
  0
LINE
  5
194
  8
0
 62
     0
 10
54.7203999999999908
 20
3.7827299999999999
 30
0.0
 11
55.5212000000000003
 21
3.7827299999999999
 31
0.0
  0
LINE
  5
195
  8
0
 62
     0
 10
55.5212000000000003
 20
3.7827299999999999
 30
0.0
 11
55.5212000000000003
 21
6.88192
 31
0.0
  0
LINE
  5
196
  8
0
 62
     0
 10
55.5212000000000003
 20
6.88192
 30
0.0
 11
54.7203999999999908
 21
6.88192
 31
0.0
  0
LINE
  5
197
  8
0
 62
     0
 10
54.7203999999999908
 20
6.88192
 30
0.0
 11
54.7203999999999908
 21
12.6835000000000004
 31
0.0
  0
LINE
  5
198
  8
0
 62
     0
 10
54.7203999999999908
 20
12.6835000000000004
 30
0.0
 11
55.5212000000000003
 21
12.6835000000000004
 31
0.0
  0
LINE
  5
199
  8
0
 62
     0
 10
55.5212000000000003
 20
12.6835000000000004
 30
0.0
 11
55.5212000000000003
 21
15.7827000000000002
 31
0.0
  0
LINE
  5
19A
  8
0
 62
     0
 10
55.5212000000000003
 20
15.7827000000000002
 30
0.0
 11
54.7203999999999908
 21
15.7827000000000002
 31
0.0
  0
LINE
  5
19B
  8
0
 62
     0
 10
54.7203999999999908
 20
15.7827000000000002
 30
0.0
 11
54.7203999999999908
 21
16.7817000000000007
 31
0.0
  0
LINE
  5
19C
  8
0
 62
     0
 10
54.7203999999999908
 20
16.7817000000000007
 30
0.0
 11
40.7210999999999999
 21
16.7817000000000007
 31
0.0
  0
LINE
  5
19D
  8
0
 62
     0
 10
21.6709999999999994
 20
16.7817000000000007
 30
0.0
 11
21.6709999999999994
 21
15.7827000000000002
 31
0.0
  0
LINE
  5
19E
  8
0
 62
     0
 10
21.6709999999999994
 20
15.7827000000000002
 30
0.0
 11
20.8704000000000001
 21
15.7827000000000002
 31
0.0
  0
LINE
  5
19F
  8
0
 62
     0
 10
20.8704000000000001
 20
15.7827000000000002
 30
0.0
 11
20.8704000000000001
 21
12.6835000000000004
 31
0.0
  0
LINE
  5
1A0
  8
0
 62
     0
 10
20.8704000000000001
 20
12.6835000000000004
 30
0.0
 11
21.6709999999999994
 21
12.6835000000000004
 31
0.0
  0
LINE
  5
1A1
  8
0
 62
     0
 10
21.6709999999999994
 20
12.6835000000000004
 30
0.0
 11
21.6709999999999994
 21
6.88192
 31
0.0
  0
LINE
  5
1A2
  8
0
 62
     0
 10
21.6709999999999994
 20
6.88192
 30
0.0
 11
20.8704000000000001
 21
6.88192
 31
0.0
  0
LINE
  5
1A3
  8
0
 62
     0
 10
20.8704000000000001
 20
6.88192
 30
0.0
 11
20.8704000000000001
 21
3.7827299999999999
 31
0.0
  0
LINE
  5
1A4
  8
0
 62
     0
 10
20.8704000000000001
 20
3.7827299999999999
 30
0.0
 11
21.6709999999999994
 21
3.7827299999999999
 31
0.0
  0
LINE
  5
1A5
  8
0
 62
     0
 10
21.6709999999999994
 20
3.7827299999999999
 30
0.0
 11
21.6709999999999994
 21
2.7822599999999991
 31
0.0
  0
LINE
  5
1A6
  8
0
 62
     0
 10
21.6709999999999994
 20
2.7822599999999991
 30
0.0
 11
35.6704000000000008
 21
2.7822599999999991
 31
0.0
  0
LINE
  5
1A7
  8
0
 62
     0
 10
35.6704000000000008
 20
2.7822599999999991
 30
0.0
 11
35.6704000000000008
 21
3.7827299999999999
 31
0.0
  0
LINE
  5
1A8
  8
0
 62
     0
 10
35.6704000000000008
 20
3.7827299999999999
 30
0.0
 11
36.4712000000000103
 21
3.7827299999999999
 31
0.0
  0
LINE
  5
1A9
  8
0
 62
     0
 10
36.4712000000000103
 20
3.7827299999999999
 30
0.0
 11
36.4712000000000103
 21
6.88192
 31
0.0
  0
LINE
  5
1AA
  8
0
 62
     0
 10
36.4712000000000103
 20
6.88192
 30
0.0
 11
35.6704000000000008
 21
6.88192
 31
0.0
  0
LINE
  5
1AB
  8
0
 62
     0
 10
35.6704000000000008
 20
6.88192
 30
0.0
 11
35.6704000000000008
 21
12.6835000000000004
 31
0.0
  0
LINE
  5
1AC
  8
0
 62
     0
 10
35.6704000000000008
 20
12.6835000000000004
 30
0.0
 11
36.4712000000000103
 21
12.6835000000000004
 31
0.0
  0
LINE
  5
1AD
  8
0
 62
     0
 10
36.4712000000000103
 20
12.6835000000000004
 30
0.0
 11
36.4712000000000103
 21
15.7827000000000002
 31
0.0
  0
LINE
  5
1AE
  8
0
 62
     0
 10
36.4712000000000103
 20
15.7827000000000002
 30
0.0
 11
35.6704000000000008
 21
15.7827000000000002
 31
0.0
  0
LINE
  5
1AF
  8
0
 62
     0
 10
35.6704000000000008
 20
15.7827000000000002
 30
0.0
 11
35.6704000000000008
 21
16.7817000000000007
 31
0.0
  0
LINE
  5
1B0
  8
0
 62
     0
 10
35.6704000000000008
 20
16.7817000000000007
 30
0.0
 11
21.6709999999999994
 21
16.7817000000000007
 31
0.0
  0
LINE
  5
1B1
  8
0
 62
     0
 10
2.6210299999999989
 20
16.7817000000000007
 30
0.0
 11
2.6210299999999989
 21
15.7827000000000002
 31
0.0
  0
LINE
  5
1B2
  8
0
 62
     0
 10
2.6210299999999989
 20
15.7827000000000002
 30
0.0
 11
1.82039
 21
15.7827000000000002
 31
0.0
  0
LINE
  5
1B3
  8
0
 62
     0
 10
1.82039
 20
15.7827000000000002
 30
0.0
 11
1.82039
 21
12.6835000000000004
 31
0.0
  0
LINE
  5
1B4
  8
0
 62
     0
 10
1.82039
 20
12.6835000000000004
 30
0.0
 11
2.6210299999999989
 21
12.6835000000000004
 31
0.0
  0
LINE
  5
1B5
  8
0
 62
     0
 10
2.6210299999999989
 20
12.6835000000000004
 30
0.0
 11
2.6210299999999989
 21
6.88192
 31
0.0
  0
LINE
  5
1B6
  8
0
 62
     0
 10
2.6210299999999989
 20
6.88192
 30
0.0
 11
1.82039
 21
6.88192
 31
0.0
  0
LINE
  5
1B7
  8
0
 62
     0
 10
1.82039
 20
6.88192
 30
0.0
 11
1.82039
 21
3.7827299999999999
 31
0.0
  0
LINE
  5
1B8
  8
0
 62
     0
 10
1.82039
 20
3.7827299999999999
 30
0.0
 11
2.6210299999999989
 21
3.7827299999999999
 31
0.0
  0
LINE
  5
1B9
  8
0
 62
     0
 10
2.6210299999999989
 20
3.7827299999999999
 30
0.0
 11
2.6210299999999989
 21
2.7822599999999991
 31
0.0
  0
LINE
  5
1BA
  8
0
 62
     0
 10
2.6210299999999989
 20
2.7822599999999991
 30
0.0
 11
16.6204999999999998
 21
2.7822599999999991
 31
0.0
  0
LINE
  5
1BB
  8
0
 62
     0
 10
16.6204999999999998
 20
2.7822599999999991
 30
0.0
 11
16.6204999999999998
 21
3.7827299999999999
 31
0.0
  0
LINE
  5
1BC
  8
0
 62
     0
 10
16.6204999999999998
 20
3.7827299999999999
 30
0.0
 11
17.4211999999999989
 21
3.7827299999999999
 31
0.0
  0
LINE
  5
1BD
  8
0
 62
     0
 10
17.4211999999999989
 20
3.7827299999999999
 30
0.0
 11
17.4211999999999989
 21
6.88192
 31
0.0
  0
LINE
  5
1BE
  8
0
 62
     0
 10
17.4211999999999989
 20
6.88192
 30
0.0
 11
16.6204999999999998
 21
6.88192
 31
0.0
  0
LINE
  5
1BF
  8
0
 62
     0
 10
16.6204999999999998
 20
6.88192
 30
0.0
 11
16.6204999999999998
 21
12.6835000000000004
 31
0.0
  0
LINE
  5
1C0
  8
0
 62
     0
 10
16.6204999999999998
 20
12.6835000000000004
 30
0.0
 11
17.4211999999999989
 21
12.6835000000000004
 31
0.0
  0
LINE
  5
1C1
  8
0
 62
     0
 10
17.4211999999999989
 20
12.6835000000000004
 30
0.0
 11
17.4211999999999989
 21
15.7827000000000002
 31
0.0
  0
LINE
  5
1C2
  8
0
 62
     0
 10
17.4211999999999989
 20
15.7827000000000002
 30
0.0
 11
16.6204999999999998
 21
15.7827000000000002
 31
0.0
  0
LINE
  5
1C3
  8
0
 62
     0
 10
16.6204999999999998
 20
15.7827000000000002
 30
0.0
 11
16.6204999999999998
 21
16.7817000000000007
 31
0.0
  0
LINE
  5
1C4
  8
0
 62
     0
 10
16.6204999999999998
 20
16.7817000000000007
 30
0.0
 11
2.6210299999999989
 21
16.7817000000000007
 31
0.0
  0
LINE
  5
1C5
  8
0
 62
     0
 10
212.1709999999999923
 20
35.8316000000000017
 30
0.0
 11
212.1709999999999923
 21
34.8327000000000027
 31
0.0
  0
LINE
  5
1C6
  8
0
 62
     0
 10
212.1709999999999923
 20
34.8327000000000027
 30
0.0
 11
211.3700000000000045
 21
34.8327000000000027
 31
0.0
  0
LINE
  5
1C7
  8
0
 62
     0
 10
211.3700000000000045
 20
34.8327000000000027
 30
0.0
 11
211.3700000000000045
 21
31.7320999999999991
 31
0.0
  0
LINE
  5
1C8
  8
0
 62
     0
 10
211.3700000000000045
 20
31.7320999999999991
 30
0.0
 11
212.1709999999999923
 21
31.7320999999999991
 31
0.0
  0
LINE
  5
1C9
  8
0
 62
     0
 10
212.1709999999999923
 20
31.7320999999999991
 30
0.0
 11
212.1709999999999923
 21
25.9318999999999988
 31
0.0
  0
LINE
  5
1CA
  8
0
 62
     0
 10
212.1709999999999923
 20
25.9318999999999988
 30
0.0
 11
211.3700000000000045
 21
25.9318999999999988
 31
0.0
  0
LINE
  5
1CB
  8
0
 62
     0
 10
211.3700000000000045
 20
25.9318999999999988
 30
0.0
 11
211.3700000000000045
 21
22.8326999999999991
 31
0.0
  0
LINE
  5
1CC
  8
0
 62
     0
 10
211.3700000000000045
 20
22.8326999999999991
 30
0.0
 11
212.1709999999999923
 21
22.8326999999999991
 31
0.0
  0
LINE
  5
1CD
  8
0
 62
     0
 10
212.1709999999999923
 20
22.8326999999999991
 30
0.0
 11
212.1709999999999923
 21
21.8323
 31
0.0
  0
LINE
  5
1CE
  8
0
 62
     0
 10
212.1709999999999923
 20
21.8323
 30
0.0
 11
226.1699999999999875
 21
21.8323
 31
0.0
  0
LINE
  5
1CF
  8
0
 62
     0
 10
226.1699999999999875
 20
21.8323
 30
0.0
 11
226.1699999999999875
 21
22.8326999999999991
 31
0.0
  0
LINE
  5
1D0
  8
0
 62
     0
 10
226.1699999999999875
 20
22.8326999999999991
 30
0.0
 11
226.9710000000000036
 21
22.8326999999999991
 31
0.0
  0
LINE
  5
1D1
  8
0
 62
     0
 10
226.9710000000000036
 20
22.8326999999999991
 30
0.0
 11
226.9710000000000036
 21
25.9318999999999988
 31
0.0
  0
LINE
  5
1D2
  8
0
 62
     0
 10
226.9710000000000036
 20
25.9318999999999988
 30
0.0
 11
226.1699999999999875
 21
25.9318999999999988
 31
0.0
  0
LINE
  5
1D3
  8
0
 62
     0
 10
226.1699999999999875
 20
25.9318999999999988
 30
0.0
 11
226.1699999999999875
 21
31.7320999999999991
 31
0.0
  0
LINE
  5
1D4
  8
0
 62
     0
 10
226.1699999999999875
 20
31.7320999999999991
 30
0.0
 11
226.9710000000000036
 21
31.7320999999999991
 31
0.0
  0
LINE
  5
1D5
  8
0
 62
     0
 10
226.9710000000000036
 20
31.7320999999999991
 30
0.0
 11
226.9710000000000036
 21
34.8327000000000027
 31
0.0
  0
LINE
  5
1D6
  8
0
 62
     0
 10
226.9710000000000036
 20
34.8327000000000027
 30
0.0
 11
226.1699999999999875
 21
34.8327000000000027
 31
0.0
  0
LINE
  5
1D7
  8
0
 62
     0
 10
226.1699999999999875
 20
34.8327000000000027
 30
0.0
 11
226.1699999999999875
 21
35.8316000000000017
 31
0.0
  0
LINE
  5
1D8
  8
0
 62
     0
 10
226.1699999999999875
 20
35.8316000000000017
 30
0.0
 11
212.1709999999999923
 21
35.8316000000000017
 31
0.0
  0
LINE
  5
1D9
  8
0
 62
     0
 10
193.1210000000000093
 20
35.8316000000000017
 30
0.0
 11
193.1210000000000093
 21
34.8327000000000027
 31
0.0
  0
LINE
  5
1DA
  8
0
 62
     0
 10
193.1210000000000093
 20
34.8327000000000027
 30
0.0
 11
192.3199999999999932
 21
34.8327000000000027
 31
0.0
  0
LINE
  5
1DB
  8
0
 62
     0
 10
192.3199999999999932
 20
34.8327000000000027
 30
0.0
 11
192.3199999999999932
 21
31.7320999999999991
 31
0.0
  0
LINE
  5
1DC
  8
0
 62
     0
 10
192.3199999999999932
 20
31.7320999999999991
 30
0.0
 11
193.1210000000000093
 21
31.7320999999999991
 31
0.0
  0
LINE
  5
1DD
  8
0
 62
     0
 10
193.1210000000000093
 20
31.7320999999999991
 30
0.0
 11
193.1210000000000093
 21
25.9318999999999988
 31
0.0
  0
LINE
  5
1DE
  8
0
 62
     0
 10
193.1210000000000093
 20
25.9318999999999988
 30
0.0
 11
192.3199999999999932
 21
25.9318999999999988
 31
0.0
  0
LINE
  5
1DF
  8
0
 62
     0
 10
192.3199999999999932
 20
25.9318999999999988
 30
0.0
 11
192.3199999999999932
 21
22.8326999999999991
 31
0.0
  0
LINE
  5
1E0
  8
0
 62
     0
 10
192.3199999999999932
 20
22.8326999999999991
 30
0.0
 11
193.1210000000000093
 21
22.8326999999999991
 31
0.0
  0
LINE
  5
1E1
  8
0
 62
     0
 10
193.1210000000000093
 20
22.8326999999999991
 30
0.0
 11
193.1210000000000093
 21
21.8323
 31
0.0
  0
LINE
  5
1E2
  8
0
 62
     0
 10
193.1210000000000093
 20
21.8323
 30
0.0
 11
207.1200000000000045
 21
21.8323
 31
0.0
  0
LINE
  5
1E3
  8
0
 62
     0
 10
207.1200000000000045
 20
21.8323
 30
0.0
 11
207.1200000000000045
 21
22.8326999999999991
 31
0.0
  0
LINE
  5
1E4
  8
0
 62
     0
 10
207.1200000000000045
 20
22.8326999999999991
 30
0.0
 11
207.9209999999999923
 21
22.8326999999999991
 31
0.0
  0
LINE
  5
1E5
  8
0
 62
     0
 10
207.9209999999999923
 20
22.8326999999999991
 30
0.0
 11
207.9209999999999923
 21
25.9318999999999988
 31
0.0
  0
LINE
  5
1E6
  8
0
 62
     0
 10
207.9209999999999923
 20
25.9318999999999988
 30
0.0
 11
207.1200000000000045
 21
25.9318999999999988
 31
0.0
  0
LINE
  5
1E7
  8
0
 62
     0
 10
207.1200000000000045
 20
25.9318999999999988
 30
0.0
 11
207.1200000000000045
 21
31.7320999999999991
 31
0.0
  0
LINE
  5
1E8
  8
0
 62
     0
 10
207.1200000000000045
 20
31.7320999999999991
 30
0.0
 11
207.9209999999999923
 21
31.7320999999999991
 31
0.0
  0
LINE
  5
1E9
  8
0
 62
     0
 10
207.9209999999999923
 20
31.7320999999999991
 30
0.0
 11
207.9209999999999923
 21
34.8327000000000027
 31
0.0
  0
LINE
  5
1EA
  8
0
 62
     0
 10
207.9209999999999923
 20
34.8327000000000027
 30
0.0
 11
207.1200000000000045
 21
34.8327000000000027
 31
0.0
  0
LINE
  5
1EB
  8
0
 62
     0
 10
207.1200000000000045
 20
34.8327000000000027
 30
0.0
 11
207.1200000000000045
 21
35.8316000000000017
 31
0.0
  0
LINE
  5
1EC
  8
0
 62
     0
 10
207.1200000000000045
 20
35.8316000000000017
 30
0.0
 11
193.1210000000000093
 21
35.8316000000000017
 31
0.0
  0
LINE
  5
1ED
  8
0
 62
     0
 10
174.070999999999998
 20
35.8316000000000017
 30
0.0
 11
174.070999999999998
 21
34.8327000000000027
 31
0.0
  0
LINE
  5
1EE
  8
0
 62
     0
 10
174.070999999999998
 20
34.8327000000000027
 30
0.0
 11
173.2700000000000102
 21
34.8327000000000027
 31
0.0
  0
LINE
  5
1EF
  8
0
 62
     0
 10
173.2700000000000102
 20
34.8327000000000027
 30
0.0
 11
173.2700000000000102
 21
31.7320999999999991
 31
0.0
  0
LINE
  5
1F0
  8
0
 62
     0
 10
173.2700000000000102
 20
31.7320999999999991
 30
0.0
 11
174.070999999999998
 21
31.7320999999999991
 31
0.0
  0
LINE
  5
1F1
  8
0
 62
     0
 10
174.070999999999998
 20
31.7320999999999991
 30
0.0
 11
174.070999999999998
 21
25.9318999999999988
 31
0.0
  0
LINE
  5
1F2
  8
0
 62
     0
 10
174.070999999999998
 20
25.9318999999999988
 30
0.0
 11
173.2700000000000102
 21
25.9318999999999988
 31
0.0
  0
LINE
  5
1F3
  8
0
 62
     0
 10
173.2700000000000102
 20
25.9318999999999988
 30
0.0
 11
173.2700000000000102
 21
22.8326999999999991
 31
0.0
  0
LINE
  5
1F4
  8
0
 62
     0
 10
173.2700000000000102
 20
22.8326999999999991
 30
0.0
 11
174.070999999999998
 21
22.8326999999999991
 31
0.0
  0
LINE
  5
1F5
  8
0
 62
     0
 10
174.070999999999998
 20
22.8326999999999991
 30
0.0
 11
174.070999999999998
 21
21.8323
 31
0.0
  0
LINE
  5
1F6
  8
0
 62
     0
 10
174.070999999999998
 20
21.8323
 30
0.0
 11
188.0699999999999932
 21
21.8323
 31
0.0
  0
LINE
  5
1F7
  8
0
 62
     0
 10
188.0699999999999932
 20
21.8323
 30
0.0
 11
188.0699999999999932
 21
22.8326999999999991
 31
0.0
  0
LINE
  5
1F8
  8
0
 62
     0
 10
188.0699999999999932
 20
22.8326999999999991
 30
0.0
 11
188.8710000000000093
 21
22.8326999999999991
 31
0.0
  0
LINE
  5
1F9
  8
0
 62
     0
 10
188.8710000000000093
 20
22.8326999999999991
 30
0.0
 11
188.8710000000000093
 21
25.9318999999999988
 31
0.0
  0
LINE
  5
1FA
  8
0
 62
     0
 10
188.8710000000000093
 20
25.9318999999999988
 30
0.0
 11
188.0699999999999932
 21
25.9318999999999988
 31
0.0
  0
LINE
  5
1FB
  8
0
 62
     0
 10
188.0699999999999932
 20
25.9318999999999988
 30
0.0
 11
188.0699999999999932
 21
31.7320999999999991
 31
0.0
  0
LINE
  5
1FC
  8
0
 62
     0
 10
188.0699999999999932
 20
31.7320999999999991
 30
0.0
 11
188.8710000000000093
 21
31.7320999999999991
 31
0.0
  0
LINE
  5
1FD
  8
0
 62
     0
 10
188.8710000000000093
 20
31.7320999999999991
 30
0.0
 11
188.8710000000000093
 21
34.8327000000000027
 31
0.0
  0
LINE
  5
1FE
  8
0
 62
     0
 10
188.8710000000000093
 20
34.8327000000000027
 30
0.0
 11
188.0699999999999932
 21
34.8327000000000027
 31
0.0
  0
LINE
  5
1FF
  8
0
 62
     0
 10
188.0699999999999932
 20
34.8327000000000027
 30
0.0
 11
188.0699999999999932
 21
35.8316000000000017
 31
0.0
  0
LINE
  5
200
  8
0
 62
     0
 10
188.0699999999999932
 20
35.8316000000000017
 30
0.0
 11
174.070999999999998
 21
35.8316000000000017
 31
0.0
  0
LINE
  5
201
  8
0
 62
     0
 10
155.0209999999999866
 20
35.8316000000000017
 30
0.0
 11
155.0209999999999866
 21
34.8327000000000027
 31
0.0
  0
LINE
  5
202
  8
0
 62
     0
 10
155.0209999999999866
 20
34.8327000000000027
 30
0.0
 11
154.2199999999999989
 21
34.8327000000000027
 31
0.0
  0
LINE
  5
203
  8
0
 62
     0
 10
154.2199999999999989
 20
34.8327000000000027
 30
0.0
 11
154.2199999999999989
 21
31.7320999999999991
 31
0.0
  0
LINE
  5
204
  8
0
 62
     0
 10
154.2199999999999989
 20
31.7320999999999991
 30
0.0
 11
155.0209999999999866
 21
31.7320999999999991
 31
0.0
  0
LINE
  5
205
  8
0
 62
     0
 10
155.0209999999999866
 20
31.7320999999999991
 30
0.0
 11
155.0209999999999866
 21
25.9318999999999988
 31
0.0
  0
LINE
  5
206
  8
0
 62
     0
 10
155.0209999999999866
 20
25.9318999999999988
 30
0.0
 11
154.2199999999999989
 21
25.9318999999999988
 31
0.0
  0
LINE
  5
207
  8
0
 62
     0
 10
154.2199999999999989
 20
25.9318999999999988
 30
0.0
 11
154.2199999999999989
 21
22.8326999999999991
 31
0.0
  0
LINE
  5
208
  8
0
 62
     0
 10
154.2199999999999989
 20
22.8326999999999991
 30
0.0
 11
155.0209999999999866
 21
22.8326999999999991
 31
0.0
  0
LINE
  5
209
  8
0
 62
     0
 10
155.0209999999999866
 20
22.8326999999999991
 30
0.0
 11
155.0209999999999866
 21
21.8323
 31
0.0
  0
LINE
  5
20A
  8
0
 62
     0
 10
155.0209999999999866
 20
21.8323
 30
0.0
 11
169.0200000000000102
 21
21.8323
 31
0.0
  0
LINE
  5
20B
  8
0
 62
     0
 10
169.0200000000000102
 20
21.8323
 30
0.0
 11
169.0200000000000102
 21
22.8326999999999991
 31
0.0
  0
LINE
  5
20C
  8
0
 62
     0
 10
169.0200000000000102
 20
22.8326999999999991
 30
0.0
 11
169.820999999999998
 21
22.8326999999999991
 31
0.0
  0
LINE
  5
20D
  8
0
 62
     0
 10
169.820999999999998
 20
22.8326999999999991
 30
0.0
 11
169.820999999999998
 21
25.9318999999999988
 31
0.0
  0
LINE
  5
20E
  8
0
 62
     0
 10
169.820999999999998
 20
25.9318999999999988
 30
0.0
 11
169.0200000000000102
 21
25.9318999999999988
 31
0.0
  0
LINE
  5
20F
  8
0
 62
     0
 10
169.0200000000000102
 20
25.9318999999999988
 30
0.0
 11
169.0200000000000102
 21
31.7320999999999991
 31
0.0
  0
LINE
  5
210
  8
0
 62
     0
 10
169.0200000000000102
 20
31.7320999999999991
 30
0.0
 11
169.820999999999998
 21
31.7320999999999991
 31
0.0
  0
LINE
  5
211
  8
0
 62
     0
 10
169.820999999999998
 20
31.7320999999999991
 30
0.0
 11
169.820999999999998
 21
34.8327000000000027
 31
0.0
  0
LINE
  5
212
  8
0
 62
     0
 10
169.820999999999998
 20
34.8327000000000027
 30
0.0
 11
169.0200000000000102
 21
34.8327000000000027
 31
0.0
  0
LINE
  5
213
  8
0
 62
     0
 10
169.0200000000000102
 20
34.8327000000000027
 30
0.0
 11
169.0200000000000102
 21
35.8316000000000017
 31
0.0
  0
LINE
  5
214
  8
0
 62
     0
 10
169.0200000000000102
 20
35.8316000000000017
 30
0.0
 11
155.0209999999999866
 21
35.8316000000000017
 31
0.0
  0
LINE
  5
215
  8
0
 62
     0
 10
135.9710000000000036
 20
35.8316000000000017
 30
0.0
 11
135.9710000000000036
 21
34.8327000000000027
 31
0.0
  0
LINE
  5
216
  8
0
 62
     0
 10
135.9710000000000036
 20
34.8327000000000027
 30
0.0
 11
135.1699999999999875
 21
34.8327000000000027
 31
0.0
  0
LINE
  5
217
  8
0
 62
     0
 10
135.1699999999999875
 20
34.8327000000000027
 30
0.0
 11
135.1699999999999875
 21
31.7320999999999991
 31
0.0
  0
LINE
  5
218
  8
0
 62
     0
 10
135.1699999999999875
 20
31.7320999999999991
 30
0.0
 11
135.9710000000000036
 21
31.7320999999999991
 31
0.0
  0
LINE
  5
219
  8
0
 62
     0
 10
135.9710000000000036
 20
31.7320999999999991
 30
0.0
 11
135.9710000000000036
 21
25.9318999999999988
 31
0.0
  0
LINE
  5
21A
  8
0
 62
     0
 10
135.9710000000000036
 20
25.9318999999999988
 30
0.0
 11
135.1699999999999875
 21
25.9318999999999988
 31
0.0
  0
LINE
  5
21B
  8
0
 62
     0
 10
135.1699999999999875
 20
25.9318999999999988
 30
0.0
 11
135.1699999999999875
 21
22.8326999999999991
 31
0.0
  0
LINE
  5
21C
  8
0
 62
     0
 10
135.1699999999999875
 20
22.8326999999999991
 30
0.0
 11
135.9710000000000036
 21
22.8326999999999991
 31
0.0
  0
LINE
  5
21D
  8
0
 62
     0
 10
135.9710000000000036
 20
22.8326999999999991
 30
0.0
 11
135.9710000000000036
 21
21.8323
 31
0.0
  0
LINE
  5
21E
  8
0
 62
     0
 10
135.9710000000000036
 20
21.8323
 30
0.0
 11
149.9699999999999989
 21
21.8323
 31
0.0
  0
LINE
  5
21F
  8
0
 62
     0
 10
149.9699999999999989
 20
21.8323
 30
0.0
 11
149.9699999999999989
 21
22.8326999999999991
 31
0.0
  0
LINE
  5
220
  8
0
 62
     0
 10
149.9699999999999989
 20
22.8326999999999991
 30
0.0
 11
150.7709999999999866
 21
22.8326999999999991
 31
0.0
  0
LINE
  5
221
  8
0
 62
     0
 10
150.7709999999999866
 20
22.8326999999999991
 30
0.0
 11
150.7709999999999866
 21
25.9318999999999988
 31
0.0
  0
LINE
  5
222
  8
0
 62
     0
 10
150.7709999999999866
 20
25.9318999999999988
 30
0.0
 11
149.9699999999999989
 21
25.9318999999999988
 31
0.0
  0
LINE
  5
223
  8
0
 62
     0
 10
149.9699999999999989
 20
25.9318999999999988
 30
0.0
 11
149.9699999999999989
 21
31.7320999999999991
 31
0.0
  0
LINE
  5
224
  8
0
 62
     0
 10
149.9699999999999989
 20
31.7320999999999991
 30
0.0
 11
150.7709999999999866
 21
31.7320999999999991
 31
0.0
  0
LINE
  5
225
  8
0
 62
     0
 10
150.7709999999999866
 20
31.7320999999999991
 30
0.0
 11
150.7709999999999866
 21
34.8327000000000027
 31
0.0
  0
LINE
  5
226
  8
0
 62
     0
 10
150.7709999999999866
 20
34.8327000000000027
 30
0.0
 11
149.9699999999999989
 21
34.8327000000000027
 31
0.0
  0
LINE
  5
227
  8
0
 62
     0
 10
149.9699999999999989
 20
34.8327000000000027
 30
0.0
 11
149.9699999999999989
 21
35.8316000000000017
 31
0.0
  0
LINE
  5
228
  8
0
 62
     0
 10
149.9699999999999989
 20
35.8316000000000017
 30
0.0
 11
135.9710000000000036
 21
35.8316000000000017
 31
0.0
  0
LINE
  5
229
  8
0
 62
     0
 10
116.9200000000000017
 20
35.8316000000000017
 30
0.0
 11
116.9200000000000017
 21
34.8327000000000027
 31
0.0
  0
LINE
  5
22A
  8
0
 62
     0
 10
116.9200000000000017
 20
34.8327000000000027
 30
0.0
 11
116.1189999999999998
 21
34.8327000000000027
 31
0.0
  0
LINE
  5
22B
  8
0
 62
     0
 10
116.1189999999999998
 20
34.8327000000000027
 30
0.0
 11
116.1189999999999998
 21
31.7320999999999991
 31
0.0
  0
LINE
  5
22C
  8
0
 62
     0
 10
116.1189999999999998
 20
31.7320999999999991
 30
0.0
 11
116.9200000000000017
 21
31.7320999999999991
 31
0.0
  0
LINE
  5
22D
  8
0
 62
     0
 10
116.9200000000000017
 20
31.7320999999999991
 30
0.0
 11
116.9200000000000017
 21
25.9318999999999988
 31
0.0
  0
LINE
  5
22E
  8
0
 62
     0
 10
116.9200000000000017
 20
25.9318999999999988
 30
0.0
 11
116.1189999999999998
 21
25.9318999999999988
 31
0.0
  0
LINE
  5
22F
  8
0
 62
     0
 10
116.1189999999999998
 20
25.9318999999999988
 30
0.0
 11
116.1189999999999998
 21
22.8326999999999991
 31
0.0
  0
LINE
  5
230
  8
0
 62
     0
 10
116.1189999999999998
 20
22.8326999999999991
 30
0.0
 11
116.9200000000000017
 21
22.8326999999999991
 31
0.0
  0
LINE
  5
231
  8
0
 62
     0
 10
116.9200000000000017
 20
22.8326999999999991
 30
0.0
 11
116.9200000000000017
 21
21.8323
 31
0.0
  0
LINE
  5
232
  8
0
 62
     0
 10
116.9200000000000017
 20
21.8323
 30
0.0
 11
130.9199999999999875
 21
21.8323
 31
0.0
  0
LINE
  5
233
  8
0
 62
     0
 10
130.9199999999999875
 20
21.8323
 30
0.0
 11
130.9199999999999875
 21
22.8326999999999991
 31
0.0
  0
LINE
  5
234
  8
0
 62
     0
 10
130.9199999999999875
 20
22.8326999999999991
 30
0.0
 11
131.7210000000000036
 21
22.8326999999999991
 31
0.0
  0
LINE
  5
235
  8
0
 62
     0
 10
131.7210000000000036
 20
22.8326999999999991
 30
0.0
 11
131.7210000000000036
 21
25.9318999999999988
 31
0.0
  0
LINE
  5
236
  8
0
 62
     0
 10
131.7210000000000036
 20
25.9318999999999988
 30
0.0
 11
130.9199999999999875
 21
25.9318999999999988
 31
0.0
  0
LINE
  5
237
  8
0
 62
     0
 10
130.9199999999999875
 20
25.9318999999999988
 30
0.0
 11
130.9199999999999875
 21
31.7320999999999991
 31
0.0
  0
LINE
  5
238
  8
0
 62
     0
 10
130.9199999999999875
 20
31.7320999999999991
 30
0.0
 11
131.7210000000000036
 21
31.7320999999999991
 31
0.0
  0
LINE
  5
239
  8
0
 62
     0
 10
131.7210000000000036
 20
31.7320999999999991
 30
0.0
 11
131.7210000000000036
 21
34.8327000000000027
 31
0.0
  0
LINE
  5
23A
  8
0
 62
     0
 10
131.7210000000000036
 20
34.8327000000000027
 30
0.0
 11
130.9199999999999875
 21
34.8327000000000027
 31
0.0
  0
LINE
  5
23B
  8
0
 62
     0
 10
130.9199999999999875
 20
34.8327000000000027
 30
0.0
 11
130.9199999999999875
 21
35.8316000000000017
 31
0.0
  0
LINE
  5
23C
  8
0
 62
     0
 10
130.9199999999999875
 20
35.8316000000000017
 30
0.0
 11
116.9200000000000017
 21
35.8316000000000017
 31
0.0
  0
LINE
  5
23D
  8
0
 62
     0
 10
97.8696999999999946
 20
35.8316000000000017
 30
0.0
 11
97.8696999999999946
 21
34.8327000000000027
 31
0.0
  0
LINE
  5
23E
  8
0
 62
     0
 10
97.8696999999999946
 20
34.8327000000000027
 30
0.0
 11
97.0703000000000031
 21
34.8327000000000027
 31
0.0
  0
LINE
  5
23F
  8
0
 62
     0
 10
97.0703000000000031
 20
34.8327000000000027
 30
0.0
 11
97.0703000000000031
 21
31.7320999999999991
 31
0.0
  0
LINE
  5
240
  8
0
 62
     0
 10
97.0703000000000031
 20
31.7320999999999991
 30
0.0
 11
97.8696999999999946
 21
31.7320999999999991
 31
0.0
  0
LINE
  5
241
  8
0
 62
     0
 10
97.8696999999999946
 20
31.7320999999999991
 30
0.0
 11
97.8696999999999946
 21
25.9318999999999988
 31
0.0
  0
LINE
  5
242
  8
0
 62
     0
 10
97.8696999999999946
 20
25.9318999999999988
 30
0.0
 11
97.0703000000000031
 21
25.9318999999999988
 31
0.0
  0
LINE
  5
243
  8
0
 62
     0
 10
97.0703000000000031
 20
25.9318999999999988
 30
0.0
 11
97.0703000000000031
 21
22.8326999999999991
 31
0.0
  0
LINE
  5
244
  8
0
 62
     0
 10
97.0703000000000031
 20
22.8326999999999991
 30
0.0
 11
97.8696999999999946
 21
22.8326999999999991
 31
0.0
  0
LINE
  5
245
  8
0
 62
     0
 10
97.8696999999999946
 20
22.8326999999999991
 30
0.0
 11
97.8696999999999946
 21
21.8323
 31
0.0
  0
LINE
  5
246
  8
0
 62
     0
 10
97.8696999999999946
 20
21.8323
 30
0.0
 11
111.8689999999999998
 21
21.8323
 31
0.0
  0
LINE
  5
247
  8
0
 62
     0
 10
111.8689999999999998
 20
21.8323
 30
0.0
 11
111.8689999999999998
 21
22.8326999999999991
 31
0.0
  0
LINE
  5
248
  8
0
 62
     0
 10
111.8689999999999998
 20
22.8326999999999991
 30
0.0
 11
112.6700000000000017
 21
22.8326999999999991
 31
0.0
  0
LINE
  5
249
  8
0
 62
     0
 10
112.6700000000000017
 20
22.8326999999999991
 30
0.0
 11
112.6700000000000017
 21
25.9318999999999988
 31
0.0
  0
LINE
  5
24A
  8
0
 62
     0
 10
112.6700000000000017
 20
25.9318999999999988
 30
0.0
 11
111.8689999999999998
 21
25.9318999999999988
 31
0.0
  0
LINE
  5
24B
  8
0
 62
     0
 10
111.8689999999999998
 20
25.9318999999999988
 30
0.0
 11
111.8689999999999998
 21
31.7320999999999991
 31
0.0
  0
LINE
  5
24C
  8
0
 62
     0
 10
111.8689999999999998
 20
31.7320999999999991
 30
0.0
 11
112.6700000000000017
 21
31.7320999999999991
 31
0.0
  0
LINE
  5
24D
  8
0
 62
     0
 10
112.6700000000000017
 20
31.7320999999999991
 30
0.0
 11
112.6700000000000017
 21
34.8327000000000027
 31
0.0
  0
LINE
  5
24E
  8
0
 62
     0
 10
112.6700000000000017
 20
34.8327000000000027
 30
0.0
 11
111.8689999999999998
 21
34.8327000000000027
 31
0.0
  0
LINE
  5
24F
  8
0
 62
     0
 10
111.8689999999999998
 20
34.8327000000000027
 30
0.0
 11
111.8689999999999998
 21
35.8316000000000017
 31
0.0
  0
LINE
  5
250
  8
0
 62
     0
 10
111.8689999999999998
 20
35.8316000000000017
 30
0.0
 11
97.8696999999999946
 21
35.8316000000000017
 31
0.0
  0
LINE
  5
251
  8
0
 62
     0
 10
78.8211000000000013
 20
35.8316000000000017
 30
0.0
 11
78.8211000000000013
 21
34.8327000000000027
 31
0.0
  0
LINE
  5
252
  8
0
 62
     0
 10
78.8211000000000013
 20
34.8327000000000027
 30
0.0
 11
78.020300000000006
 21
34.8327000000000027
 31
0.0
  0
LINE
  5
253
  8
0
 62
     0
 10
78.020300000000006
 20
34.8327000000000027
 30
0.0
 11
78.020300000000006
 21
31.7320999999999991
 31
0.0
  0
LINE
  5
254
  8
0
 62
     0
 10
78.020300000000006
 20
31.7320999999999991
 30
0.0
 11
78.8211000000000013
 21
31.7320999999999991
 31
0.0
  0
LINE
  5
255
  8
0
 62
     0
 10
78.8211000000000013
 20
31.7320999999999991
 30
0.0
 11
78.8211000000000013
 21
25.9318999999999988
 31
0.0
  0
LINE
  5
256
  8
0
 62
     0
 10
78.8211000000000013
 20
25.9318999999999988
 30
0.0
 11
78.020300000000006
 21
25.9318999999999988
 31
0.0
  0
LINE
  5
257
  8
0
 62
     0
 10
78.020300000000006
 20
25.9318999999999988
 30
0.0
 11
78.020300000000006
 21
22.8326999999999991
 31
0.0
  0
LINE
  5
258
  8
0
 62
     0
 10
78.020300000000006
 20
22.8326999999999991
 30
0.0
 11
78.8211000000000013
 21
22.8326999999999991
 31
0.0
  0
LINE
  5
259
  8
0
 62
     0
 10
78.8211000000000013
 20
22.8326999999999991
 30
0.0
 11
78.8211000000000013
 21
21.8323
 31
0.0
  0
LINE
  5
25A
  8
0
 62
     0
 10
78.8211000000000013
 20
21.8323
 30
0.0
 11
92.8204000000000065
 21
21.8323
 31
0.0
  0
LINE
  5
25B
  8
0
 62
     0
 10
92.8204000000000065
 20
21.8323
 30
0.0
 11
92.8204000000000065
 21
22.8326999999999991
 31
0.0
  0
LINE
  5
25C
  8
0
 62
     0
 10
92.8204000000000065
 20
22.8326999999999991
 30
0.0
 11
93.6197999999999979
 21
22.8326999999999991
 31
0.0
  0
LINE
  5
25D
  8
0
 62
     0
 10
93.6197999999999979
 20
22.8326999999999991
 30
0.0
 11
93.6197999999999979
 21
25.9318999999999988
 31
0.0
  0
LINE
  5
25E
  8
0
 62
     0
 10
93.6197999999999979
 20
25.9318999999999988
 30
0.0
 11
92.8204000000000065
 21
25.9318999999999988
 31
0.0
  0
LINE
  5
25F
  8
0
 62
     0
 10
92.8204000000000065
 20
25.9318999999999988
 30
0.0
 11
92.8204000000000065
 21
31.7320999999999991
 31
0.0
  0
LINE
  5
260
  8
0
 62
     0
 10
92.8204000000000065
 20
31.7320999999999991
 30
0.0
 11
93.6197999999999979
 21
31.7320999999999991
 31
0.0
  0
LINE
  5
261
  8
0
 62
     0
 10
93.6197999999999979
 20
31.7320999999999991
 30
0.0
 11
93.6197999999999979
 21
34.8327000000000027
 31
0.0
  0
LINE
  5
262
  8
0
 62
     0
 10
93.6197999999999979
 20
34.8327000000000027
 30
0.0
 11
92.8204000000000065
 21
34.8327000000000027
 31
0.0
  0
LINE
  5
263
  8
0
 62
     0
 10
92.8204000000000065
 20
34.8327000000000027
 30
0.0
 11
92.8204000000000065
 21
35.8316000000000017
 31
0.0
  0
LINE
  5
264
  8
0
 62
     0
 10
92.8204000000000065
 20
35.8316000000000017
 30
0.0
 11
78.8211000000000013
 21
35.8316000000000017
 31
0.0
  0
LINE
  5
265
  8
0
 62
     0
 10
59.7710999999999899
 20
35.8316000000000017
 30
0.0
 11
59.7710999999999899
 21
34.8327000000000027
 31
0.0
  0
LINE
  5
266
  8
0
 62
     0
 10
59.7710999999999899
 20
34.8327000000000027
 30
0.0
 11
58.9703000000000017
 21
34.8327000000000027
 31
0.0
  0
LINE
  5
267
  8
0
 62
     0
 10
58.9703000000000017
 20
34.8327000000000027
 30
0.0
 11
58.9703000000000017
 21
31.7320999999999991
 31
0.0
  0
LINE
  5
268
  8
0
 62
     0
 10
58.9703000000000017
 20
31.7320999999999991
 30
0.0
 11
59.7710999999999899
 21
31.7320999999999991
 31
0.0
  0
LINE
  5
269
  8
0
 62
     0
 10
59.7710999999999899
 20
31.7320999999999991
 30
0.0
 11
59.7710999999999899
 21
25.9318999999999988
 31
0.0
  0
LINE
  5
26A
  8
0
 62
     0
 10
59.7710999999999899
 20
25.9318999999999988
 30
0.0
 11
58.9703000000000017
 21
25.9318999999999988
 31
0.0
  0
LINE
  5
26B
  8
0
 62
     0
 10
58.9703000000000017
 20
25.9318999999999988
 30
0.0
 11
58.9703000000000017
 21
22.8326999999999991
 31
0.0
  0
LINE
  5
26C
  8
0
 62
     0
 10
58.9703000000000017
 20
22.8326999999999991
 30
0.0
 11
59.7710999999999899
 21
22.8326999999999991
 31
0.0
  0
LINE
  5
26D
  8
0
 62
     0
 10
59.7710999999999899
 20
22.8326999999999991
 30
0.0
 11
59.7710999999999899
 21
21.8323
 31
0.0
  0
LINE
  5
26E
  8
0
 62
     0
 10
59.7710999999999899
 20
21.8323
 30
0.0
 11
73.7703999999999951
 21
21.8323
 31
0.0
  0
LINE
  5
26F
  8
0
 62
     0
 10
73.7703999999999951
 20
21.8323
 30
0.0
 11
73.7703999999999951
 21
22.8326999999999991
 31
0.0
  0
LINE
  5
270
  8
0
 62
     0
 10
73.7703999999999951
 20
22.8326999999999991
 30
0.0
 11
74.5712000000000046
 21
22.8326999999999991
 31
0.0
  0
LINE
  5
271
  8
0
 62
     0
 10
74.5712000000000046
 20
22.8326999999999991
 30
0.0
 11
74.5712000000000046
 21
25.9318999999999988
 31
0.0
  0
LINE
  5
272
  8
0
 62
     0
 10
74.5712000000000046
 20
25.9318999999999988
 30
0.0
 11
73.7703999999999951
 21
25.9318999999999988
 31
0.0
  0
LINE
  5
273
  8
0
 62
     0
 10
73.7703999999999951
 20
25.9318999999999988
 30
0.0
 11
73.7703999999999951
 21
31.7320999999999991
 31
0.0
  0
LINE
  5
274
  8
0
 62
     0
 10
73.7703999999999951
 20
31.7320999999999991
 30
0.0
 11
74.5712000000000046
 21
31.7320999999999991
 31
0.0
  0
LINE
  5
275
  8
0
 62
     0
 10
74.5712000000000046
 20
31.7320999999999991
 30
0.0
 11
74.5712000000000046
 21
34.8327000000000027
 31
0.0
  0
LINE
  5
276
  8
0
 62
     0
 10
74.5712000000000046
 20
34.8327000000000027
 30
0.0
 11
73.7703999999999951
 21
34.8327000000000027
 31
0.0
  0
LINE
  5
277
  8
0
 62
     0
 10
73.7703999999999951
 20
34.8327000000000027
 30
0.0
 11
73.7703999999999951
 21
35.8316000000000017
 31
0.0
  0
LINE
  5
278
  8
0
 62
     0
 10
73.7703999999999951
 20
35.8316000000000017
 30
0.0
 11
59.7710999999999899
 21
35.8316000000000017
 31
0.0
  0
LINE
  5
279
  8
0
 62
     0
 10
40.7210999999999999
 20
35.8316000000000017
 30
0.0
 11
40.7210999999999999
 21
34.8327000000000027
 31
0.0
  0
LINE
  5
27A
  8
0
 62
     0
 10
40.7210999999999999
 20
34.8327000000000027
 30
0.0
 11
39.9202999999999975
 21
34.8327000000000027
 31
0.0
  0
LINE
  5
27B
  8
0
 62
     0
 10
39.9202999999999975
 20
34.8327000000000027
 30
0.0
 11
39.9202999999999975
 21
31.7320999999999991
 31
0.0
  0
LINE
  5
27C
  8
0
 62
     0
 10
39.9202999999999975
 20
31.7320999999999991
 30
0.0
 11
40.7210999999999999
 21
31.7320999999999991
 31
0.0
  0
LINE
  5
27D
  8
0
 62
     0
 10
40.7210999999999999
 20
31.7320999999999991
 30
0.0
 11
40.7210999999999999
 21
25.9318999999999988
 31
0.0
  0
LINE
  5
27E
  8
0
 62
     0
 10
40.7210999999999999
 20
25.9318999999999988
 30
0.0
 11
39.9202999999999975
 21
25.9318999999999988
 31
0.0
  0
LINE
  5
27F
  8
0
 62
     0
 10
39.9202999999999975
 20
25.9318999999999988
 30
0.0
 11
39.9202999999999975
 21
22.8326999999999991
 31
0.0
  0
LINE
  5
280
  8
0
 62
     0
 10
39.9202999999999975
 20
22.8326999999999991
 30
0.0
 11
40.7210999999999999
 21
22.8326999999999991
 31
0.0
  0
LINE
  5
281
  8
0
 62
     0
 10
40.7210999999999999
 20
22.8326999999999991
 30
0.0
 11
40.7210999999999999
 21
21.8323
 31
0.0
  0
LINE
  5
282
  8
0
 62
     0
 10
40.7210999999999999
 20
21.8323
 30
0.0
 11
54.7203999999999908
 21
21.8323
 31
0.0
  0
LINE
  5
283
  8
0
 62
     0
 10
54.7203999999999908
 20
21.8323
 30
0.0
 11
54.7203999999999908
 21
22.8326999999999991
 31
0.0
  0
LINE
  5
284
  8
0
 62
     0
 10
54.7203999999999908
 20
22.8326999999999991
 30
0.0
 11
55.5212000000000003
 21
22.8326999999999991
 31
0.0
  0
LINE
  5
285
  8
0
 62
     0
 10
55.5212000000000003
 20
22.8326999999999991
 30
0.0
 11
55.5212000000000003
 21
25.9318999999999988
 31
0.0
  0
LINE
  5
286
  8
0
 62
     0
 10
55.5212000000000003
 20
25.9318999999999988
 30
0.0
 11
54.7203999999999908
 21
25.9318999999999988
 31
0.0
  0
LINE
  5
287
  8
0
 62
     0
 10
54.7203999999999908
 20
25.9318999999999988
 30
0.0
 11
54.7203999999999908
 21
31.7320999999999991
 31
0.0
  0
LINE
  5
288
  8
0
 62
     0
 10
54.7203999999999908
 20
31.7320999999999991
 30
0.0
 11
55.5212000000000003
 21
31.7320999999999991
 31
0.0
  0
LINE
  5
289
  8
0
 62
     0
 10
55.5212000000000003
 20
31.7320999999999991
 30
0.0
 11
55.5212000000000003
 21
34.8327000000000027
 31
0.0
  0
LINE
  5
28A
  8
0
 62
     0
 10
55.5212000000000003
 20
34.8327000000000027
 30
0.0
 11
54.7203999999999908
 21
34.8327000000000027
 31
0.0
  0
LINE
  5
28B
  8
0
 62
     0
 10
54.7203999999999908
 20
34.8327000000000027
 30
0.0
 11
54.7203999999999908
 21
35.8316000000000017
 31
0.0
  0
LINE
  5
28C
  8
0
 62
     0
 10
54.7203999999999908
 20
35.8316000000000017
 30
0.0
 11
40.7210999999999999
 21
35.8316000000000017
 31
0.0
  0
LINE
  5
28D
  8
0
 62
     0
 10
21.6709999999999994
 20
35.8316000000000017
 30
0.0
 11
21.6709999999999994
 21
34.8327000000000027
 31
0.0
  0
LINE
  5
28E
  8
0
 62
     0
 10
21.6709999999999994
 20
34.8327000000000027
 30
0.0
 11
20.8704000000000001
 21
34.8327000000000027
 31
0.0
  0
LINE
  5
28F
  8
0
 62
     0
 10
20.8704000000000001
 20
34.8327000000000027
 30
0.0
 11
20.8704000000000001
 21
31.7320999999999991
 31
0.0
  0
LINE
  5
290
  8
0
 62
     0
 10
20.8704000000000001
 20
31.7320999999999991
 30
0.0
 11
21.6709999999999994
 21
31.7320999999999991
 31
0.0
  0
LINE
  5
291
  8
0
 62
     0
 10
21.6709999999999994
 20
31.7320999999999991
 30
0.0
 11
21.6709999999999994
 21
25.9318999999999988
 31
0.0
  0
LINE
  5
292
  8
0
 62
     0
 10
21.6709999999999994
 20
25.9318999999999988
 30
0.0
 11
20.8704000000000001
 21
25.9318999999999988
 31
0.0
  0
LINE
  5
293
  8
0
 62
     0
 10
20.8704000000000001
 20
25.9318999999999988
 30
0.0
 11
20.8704000000000001
 21
22.8326999999999991
 31
0.0
  0
LINE
  5
294
  8
0
 62
     0
 10
20.8704000000000001
 20
22.8326999999999991
 30
0.0
 11
21.6709999999999994
 21
22.8326999999999991
 31
0.0
  0
LINE
  5
295
  8
0
 62
     0
 10
21.6709999999999994
 20
22.8326999999999991
 30
0.0
 11
21.6709999999999994
 21
21.8323
 31
0.0
  0
LINE
  5
296
  8
0
 62
     0
 10
21.6709999999999994
 20
21.8323
 30
0.0
 11
35.6704000000000008
 21
21.8323
 31
0.0
  0
LINE
  5
297
  8
0
 62
     0
 10
35.6704000000000008
 20
21.8323
 30
0.0
 11
35.6704000000000008
 21
22.8326999999999991
 31
0.0
  0
LINE
  5
298
  8
0
 62
     0
 10
35.6704000000000008
 20
22.8326999999999991
 30
0.0
 11
36.4712000000000103
 21
22.8326999999999991
 31
0.0
  0
LINE
  5
299
  8
0
 62
     0
 10
36.4712000000000103
 20
22.8326999999999991
 30
0.0
 11
36.4712000000000103
 21
25.9318999999999988
 31
0.0
  0
LINE
  5
29A
  8
0
 62
     0
 10
36.4712000000000103
 20
25.9318999999999988
 30
0.0
 11
35.6704000000000008
 21
25.9318999999999988
 31
0.0
  0
LINE
  5
29B
  8
0
 62
     0
 10
35.6704000000000008
 20
25.9318999999999988
 30
0.0
 11
35.6704000000000008
 21
31.7320999999999991
 31
0.0
  0
LINE
  5
29C
  8
0
 62
     0
 10
35.6704000000000008
 20
31.7320999999999991
 30
0.0
 11
36.4712000000000103
 21
31.7320999999999991
 31
0.0
  0
LINE
  5
29D
  8
0
 62
     0
 10
36.4712000000000103
 20
31.7320999999999991
 30
0.0
 11
36.4712000000000103
 21
34.8327000000000027
 31
0.0
  0
LINE
  5
29E
  8
0
 62
     0
 10
36.4712000000000103
 20
34.8327000000000027
 30
0.0
 11
35.6704000000000008
 21
34.8327000000000027
 31
0.0
  0
LINE
  5
29F
  8
0
 62
     0
 10
35.6704000000000008
 20
34.8327000000000027
 30
0.0
 11
35.6704000000000008
 21
35.8316000000000017
 31
0.0
  0
LINE
  5
2A0
  8
0
 62
     0
 10
35.6704000000000008
 20
35.8316000000000017
 30
0.0
 11
21.6709999999999994
 21
35.8316000000000017
 31
0.0
  0
LINE
  5
2A1
  8
0
 62
     0
 10
2.6210299999999989
 20
35.8316000000000017
 30
0.0
 11
2.6210299999999989
 21
34.8327000000000027
 31
0.0
  0
LINE
  5
2A2
  8
0
 62
     0
 10
2.6210299999999989
 20
34.8327000000000027
 30
0.0
 11
1.82039
 21
34.8327000000000027
 31
0.0
  0
LINE
  5
2A3
  8
0
 62
     0
 10
1.82039
 20
34.8327000000000027
 30
0.0
 11
1.82039
 21
31.7320999999999991
 31
0.0
  0
LINE
  5
2A4
  8
0
 62
     0
 10
1.82039
 20
31.7320999999999991
 30
0.0
 11
2.6210299999999989
 21
31.7320999999999991
 31
0.0
  0
LINE
  5
2A5
  8
0
 62
     0
 10
2.6210299999999989
 20
31.7320999999999991
 30
0.0
 11
2.6210299999999989
 21
25.9318999999999988
 31
0.0
  0
LINE
  5
2A6
  8
0
 62
     0
 10
2.6210299999999989
 20
25.9318999999999988
 30
0.0
 11
1.82039
 21
25.9318999999999988
 31
0.0
  0
LINE
  5
2A7
  8
0
 62
     0
 10
1.82039
 20
25.9318999999999988
 30
0.0
 11
1.82039
 21
22.8326999999999991
 31
0.0
  0
LINE
  5
2A8
  8
0
 62
     0
 10
1.82039
 20
22.8326999999999991
 30
0.0
 11
2.6210299999999989
 21
22.8326999999999991
 31
0.0
  0
LINE
  5
2A9
  8
0
 62
     0
 10
2.6210299999999989
 20
22.8326999999999991
 30
0.0
 11
2.6210299999999989
 21
21.8323
 31
0.0
  0
LINE
  5
2AA
  8
0
 62
     0
 10
2.6210299999999989
 20
21.8323
 30
0.0
 11
16.6204999999999998
 21
21.8323
 31
0.0
  0
LINE
  5
2AB
  8
0
 62
     0
 10
16.6204999999999998
 20
21.8323
 30
0.0
 11
16.6204999999999998
 21
22.8326999999999991
 31
0.0
  0
LINE
  5
2AC
  8
0
 62
     0
 10
16.6204999999999998
 20
22.8326999999999991
 30
0.0
 11
17.4211999999999989
 21
22.8326999999999991
 31
0.0
  0
LINE
  5
2AD
  8
0
 62
     0
 10
17.4211999999999989
 20
22.8326999999999991
 30
0.0
 11
17.4211999999999989
 21
25.9318999999999988
 31
0.0
  0
LINE
  5
2AE
  8
0
 62
     0
 10
17.4211999999999989
 20
25.9318999999999988
 30
0.0
 11
16.6204999999999998
 21
25.9318999999999988
 31
0.0
  0
LINE
  5
2AF
  8
0
 62
     0
 10
16.6204999999999998
 20
25.9318999999999988
 30
0.0
 11
16.6204999999999998
 21
31.7320999999999991
 31
0.0
  0
LINE
  5
2B0
  8
0
 62
     0
 10
16.6204999999999998
 20
31.7320999999999991
 30
0.0
 11
17.4211999999999989
 21
31.7320999999999991
 31
0.0
  0
LINE
  5
2B1
  8
0
 62
     0
 10
17.4211999999999989
 20
31.7320999999999991
 30
0.0
 11
17.4211999999999989
 21
34.8327000000000027
 31
0.0
  0
LINE
  5
2B2
  8
0
 62
     0
 10
17.4211999999999989
 20
34.8327000000000027
 30
0.0
 11
16.6204999999999998
 21
34.8327000000000027
 31
0.0
  0
LINE
  5
2B3
  8
0
 62
     0
 10
16.6204999999999998
 20
34.8327000000000027
 30
0.0
 11
16.6204999999999998
 21
35.8316000000000017
 31
0.0
  0
LINE
  5
2B4
  8
0
 62
     0
 10
16.6204999999999998
 20
35.8316000000000017
 30
0.0
 11
2.6210299999999989
 21
35.8316000000000017
 31
0.0
  0
LINE
  5
2B5
  8
0
 62
     0
 10
212.1709999999999923
 20
54.8815999999999988
 30
0.0
 11
212.1709999999999923
 21
53.8825999999999894
 31
0.0
  0
LINE
  5
2B6
  8
0
 62
     0
 10
212.1709999999999923
 20
53.8825999999999894
 30
0.0
 11
211.3700000000000045
 21
53.8825999999999894
 31
0.0
  0
LINE
  5
2B7
  8
0
 62
     0
 10
211.3700000000000045
 20
53.8825999999999894
 30
0.0
 11
211.3700000000000045
 21
50.7819999999999894
 31
0.0
  0
LINE
  5
2B8
  8
0
 62
     0
 10
211.3700000000000045
 20
50.7819999999999894
 30
0.0
 11
212.1709999999999923
 21
50.7819999999999894
 31
0.0
  0
LINE
  5
2B9
  8
0
 62
     0
 10
212.1709999999999923
 20
50.7819999999999894
 30
0.0
 11
212.1709999999999923
 21
44.9819999999999922
 31
0.0
  0
LINE
  5
2BA
  8
0
 62
     0
 10
212.1709999999999923
 20
44.9819999999999922
 30
0.0
 11
211.3700000000000045
 21
44.9819999999999922
 31
0.0
  0
LINE
  5
2BB
  8
0
 62
     0
 10
211.3700000000000045
 20
44.9819999999999922
 30
0.0
 11
211.3700000000000045
 21
41.8828000000000031
 31
0.0
  0
LINE
  5
2BC
  8
0
 62
     0
 10
211.3700000000000045
 20
41.8828000000000031
 30
0.0
 11
212.1709999999999923
 21
41.8828000000000031
 31
0.0
  0
LINE
  5
2BD
  8
0
 62
     0
 10
212.1709999999999923
 20
41.8828000000000031
 30
0.0
 11
212.1709999999999923
 21
40.8823999999999899
 31
0.0
  0
LINE
  5
2BE
  8
0
 62
     0
 10
212.1709999999999923
 20
40.8823999999999899
 30
0.0
 11
226.1699999999999875
 21
40.8823999999999899
 31
0.0
  0
LINE
  5
2BF
  8
0
 62
     0
 10
226.1699999999999875
 20
40.8823999999999899
 30
0.0
 11
226.1699999999999875
 21
41.8828000000000031
 31
0.0
  0
LINE
  5
2C0
  8
0
 62
     0
 10
226.1699999999999875
 20
41.8828000000000031
 30
0.0
 11
226.9710000000000036
 21
41.8828000000000031
 31
0.0
  0
LINE
  5
2C1
  8
0
 62
     0
 10
226.9710000000000036
 20
41.8828000000000031
 30
0.0
 11
226.9710000000000036
 21
44.9819999999999922
 31
0.0
  0
LINE
  5
2C2
  8
0
 62
     0
 10
226.9710000000000036
 20
44.9819999999999922
 30
0.0
 11
226.1699999999999875
 21
44.9819999999999922
 31
0.0
  0
LINE
  5
2C3
  8
0
 62
     0
 10
226.1699999999999875
 20
44.9819999999999922
 30
0.0
 11
226.1699999999999875
 21
50.7819999999999894
 31
0.0
  0
LINE
  5
2C4
  8
0
 62
     0
 10
226.1699999999999875
 20
50.7819999999999894
 30
0.0
 11
226.9710000000000036
 21
50.7819999999999894
 31
0.0
  0
LINE
  5
2C5
  8
0
 62
     0
 10
226.9710000000000036
 20
50.7819999999999894
 30
0.0
 11
226.9710000000000036
 21
53.8825999999999894
 31
0.0
  0
LINE
  5
2C6
  8
0
 62
     0
 10
226.9710000000000036
 20
53.8825999999999894
 30
0.0
 11
226.1699999999999875
 21
53.8825999999999894
 31
0.0
  0
LINE
  5
2C7
  8
0
 62
     0
 10
226.1699999999999875
 20
53.8825999999999894
 30
0.0
 11
226.1699999999999875
 21
54.8815999999999988
 31
0.0
  0
LINE
  5
2C8
  8
0
 62
     0
 10
226.1699999999999875
 20
54.8815999999999988
 30
0.0
 11
212.1709999999999923
 21
54.8815999999999988
 31
0.0
  0
LINE
  5
2C9
  8
0
 62
     0
 10
193.1210000000000093
 20
54.8815999999999988
 30
0.0
 11
193.1210000000000093
 21
53.8825999999999894
 31
0.0
  0
LINE
  5
2CA
  8
0
 62
     0
 10
193.1210000000000093
 20
53.8825999999999894
 30
0.0
 11
192.3199999999999932
 21
53.8825999999999894
 31
0.0
  0
LINE
  5
2CB
  8
0
 62
     0
 10
192.3199999999999932
 20
53.8825999999999894
 30
0.0
 11
192.3199999999999932
 21
50.7819999999999894
 31
0.0
  0
LINE
  5
2CC
  8
0
 62
     0
 10
192.3199999999999932
 20
50.7819999999999894
 30
0.0
 11
193.1210000000000093
 21
50.7819999999999894
 31
0.0
  0
LINE
  5
2CD
  8
0
 62
     0
 10
193.1210000000000093
 20
50.7819999999999894
 30
0.0
 11
193.1210000000000093
 21
44.9819999999999922
 31
0.0
  0
LINE
  5
2CE
  8
0
 62
     0
 10
193.1210000000000093
 20
44.9819999999999922
 30
0.0
 11
192.3199999999999932
 21
44.9819999999999922
 31
0.0
  0
LINE
  5
2CF
  8
0
 62
     0
 10
192.3199999999999932
 20
44.9819999999999922
 30
0.0
 11
192.3199999999999932
 21
41.8828000000000031
 31
0.0
  0
LINE
  5
2D0
  8
0
 62
     0
 10
192.3199999999999932
 20
41.8828000000000031
 30
0.0
 11
193.1210000000000093
 21
41.8828000000000031
 31
0.0
  0
LINE
  5
2D1
  8
0
 62
     0
 10
193.1210000000000093
 20
41.8828000000000031
 30
0.0
 11
193.1210000000000093
 21
40.8823999999999899
 31
0.0
  0
LINE
  5
2D2
  8
0
 62
     0
 10
193.1210000000000093
 20
40.8823999999999899
 30
0.0
 11
207.1200000000000045
 21
40.8823999999999899
 31
0.0
  0
LINE
  5
2D3
  8
0
 62
     0
 10
207.1200000000000045
 20
40.8823999999999899
 30
0.0
 11
207.1200000000000045
 21
41.8828000000000031
 31
0.0
  0
LINE
  5
2D4
  8
0
 62
     0
 10
207.1200000000000045
 20
41.8828000000000031
 30
0.0
 11
207.9209999999999923
 21
41.8828000000000031
 31
0.0
  0
LINE
  5
2D5
  8
0
 62
     0
 10
207.9209999999999923
 20
41.8828000000000031
 30
0.0
 11
207.9209999999999923
 21
44.9819999999999922
 31
0.0
  0
LINE
  5
2D6
  8
0
 62
     0
 10
207.9209999999999923
 20
44.9819999999999922
 30
0.0
 11
207.1200000000000045
 21
44.9819999999999922
 31
0.0
  0
LINE
  5
2D7
  8
0
 62
     0
 10
207.1200000000000045
 20
44.9819999999999922
 30
0.0
 11
207.1200000000000045
 21
50.7819999999999894
 31
0.0
  0
LINE
  5
2D8
  8
0
 62
     0
 10
207.1200000000000045
 20
50.7819999999999894
 30
0.0
 11
207.9209999999999923
 21
50.7819999999999894
 31
0.0
  0
LINE
  5
2D9
  8
0
 62
     0
 10
207.9209999999999923
 20
50.7819999999999894
 30
0.0
 11
207.9209999999999923
 21
53.8825999999999894
 31
0.0
  0
LINE
  5
2DA
  8
0
 62
     0
 10
207.9209999999999923
 20
53.8825999999999894
 30
0.0
 11
207.1200000000000045
 21
53.8825999999999894
 31
0.0
  0
LINE
  5
2DB
  8
0
 62
     0
 10
207.1200000000000045
 20
53.8825999999999894
 30
0.0
 11
207.1200000000000045
 21
54.8815999999999988
 31
0.0
  0
LINE
  5
2DC
  8
0
 62
     0
 10
207.1200000000000045
 20
54.8815999999999988
 30
0.0
 11
193.1210000000000093
 21
54.8815999999999988
 31
0.0
  0
LINE
  5
2DD
  8
0
 62
     0
 10
174.070999999999998
 20
54.8815999999999988
 30
0.0
 11
174.070999999999998
 21
53.8825999999999894
 31
0.0
  0
LINE
  5
2DE
  8
0
 62
     0
 10
174.070999999999998
 20
53.8825999999999894
 30
0.0
 11
173.2700000000000102
 21
53.8825999999999894
 31
0.0
  0
LINE
  5
2DF
  8
0
 62
     0
 10
173.2700000000000102
 20
53.8825999999999894
 30
0.0
 11
173.2700000000000102
 21
50.7819999999999894
 31
0.0
  0
LINE
  5
2E0
  8
0
 62
     0
 10
173.2700000000000102
 20
50.7819999999999894
 30
0.0
 11
174.070999999999998
 21
50.7819999999999894
 31
0.0
  0
LINE
  5
2E1
  8
0
 62
     0
 10
174.070999999999998
 20
50.7819999999999894
 30
0.0
 11
174.070999999999998
 21
44.9819999999999922
 31
0.0
  0
LINE
  5
2E2
  8
0
 62
     0
 10
174.070999999999998
 20
44.9819999999999922
 30
0.0
 11
173.2700000000000102
 21
44.9819999999999922
 31
0.0
  0
LINE
  5
2E3
  8
0
 62
     0
 10
173.2700000000000102
 20
44.9819999999999922
 30
0.0
 11
173.2700000000000102
 21
41.8828000000000031
 31
0.0
  0
LINE
  5
2E4
  8
0
 62
     0
 10
173.2700000000000102
 20
41.8828000000000031
 30
0.0
 11
174.070999999999998
 21
41.8828000000000031
 31
0.0
  0
LINE
  5
2E5
  8
0
 62
     0
 10
174.070999999999998
 20
41.8828000000000031
 30
0.0
 11
174.070999999999998
 21
40.8823999999999899
 31
0.0
  0
LINE
  5
2E6
  8
0
 62
     0
 10
174.070999999999998
 20
40.8823999999999899
 30
0.0
 11
188.0699999999999932
 21
40.8823999999999899
 31
0.0
  0
LINE
  5
2E7
  8
0
 62
     0
 10
188.0699999999999932
 20
40.8823999999999899
 30
0.0
 11
188.0699999999999932
 21
41.8828000000000031
 31
0.0
  0
LINE
  5
2E8
  8
0
 62
     0
 10
188.0699999999999932
 20
41.8828000000000031
 30
0.0
 11
188.8710000000000093
 21
41.8828000000000031
 31
0.0
  0
LINE
  5
2E9
  8
0
 62
     0
 10
188.8710000000000093
 20
41.8828000000000031
 30
0.0
 11
188.8710000000000093
 21
44.9819999999999922
 31
0.0
  0
LINE
  5
2EA
  8
0
 62
     0
 10
188.8710000000000093
 20
44.9819999999999922
 30
0.0
 11
188.0699999999999932
 21
44.9819999999999922
 31
0.0
  0
LINE
  5
2EB
  8
0
 62
     0
 10
188.0699999999999932
 20
44.9819999999999922
 30
0.0
 11
188.0699999999999932
 21
50.7819999999999894
 31
0.0
  0
LINE
  5
2EC
  8
0
 62
     0
 10
188.0699999999999932
 20
50.7819999999999894
 30
0.0
 11
188.8710000000000093
 21
50.7819999999999894
 31
0.0
  0
LINE
  5
2ED
  8
0
 62
     0
 10
188.8710000000000093
 20
50.7819999999999894
 30
0.0
 11
188.8710000000000093
 21
53.8825999999999894
 31
0.0
  0
LINE
  5
2EE
  8
0
 62
     0
 10
188.8710000000000093
 20
53.8825999999999894
 30
0.0
 11
188.0699999999999932
 21
53.8825999999999894
 31
0.0
  0
LINE
  5
2EF
  8
0
 62
     0
 10
188.0699999999999932
 20
53.8825999999999894
 30
0.0
 11
188.0699999999999932
 21
54.8815999999999988
 31
0.0
  0
LINE
  5
2F0
  8
0
 62
     0
 10
188.0699999999999932
 20
54.8815999999999988
 30
0.0
 11
174.070999999999998
 21
54.8815999999999988
 31
0.0
  0
LINE
  5
2F1
  8
0
 62
     0
 10
155.0209999999999866
 20
54.8815999999999988
 30
0.0
 11
155.0209999999999866
 21
53.8825999999999894
 31
0.0
  0
LINE
  5
2F2
  8
0
 62
     0
 10
155.0209999999999866
 20
53.8825999999999894
 30
0.0
 11
154.2199999999999989
 21
53.8825999999999894
 31
0.0
  0
LINE
  5
2F3
  8
0
 62
     0
 10
154.2199999999999989
 20
53.8825999999999894
 30
0.0
 11
154.2199999999999989
 21
50.7819999999999894
 31
0.0
  0
LINE
  5
2F4
  8
0
 62
     0
 10
154.2199999999999989
 20
50.7819999999999894
 30
0.0
 11
155.0209999999999866
 21
50.7819999999999894
 31
0.0
  0
LINE
  5
2F5
  8
0
 62
     0
 10
155.0209999999999866
 20
50.7819999999999894
 30
0.0
 11
155.0209999999999866
 21
44.9819999999999922
 31
0.0
  0
LINE
  5
2F6
  8
0
 62
     0
 10
155.0209999999999866
 20
44.9819999999999922
 30
0.0
 11
154.2199999999999989
 21
44.9819999999999922
 31
0.0
  0
LINE
  5
2F7
  8
0
 62
     0
 10
154.2199999999999989
 20
44.9819999999999922
 30
0.0
 11
154.2199999999999989
 21
41.8828000000000031
 31
0.0
  0
LINE
  5
2F8
  8
0
 62
     0
 10
154.2199999999999989
 20
41.8828000000000031
 30
0.0
 11
155.0209999999999866
 21
41.8828000000000031
 31
0.0
  0
LINE
  5
2F9
  8
0
 62
     0
 10
155.0209999999999866
 20
41.8828000000000031
 30
0.0
 11
155.0209999999999866
 21
40.8823999999999899
 31
0.0
  0
LINE
  5
2FA
  8
0
 62
     0
 10
155.0209999999999866
 20
40.8823999999999899
 30
0.0
 11
169.0200000000000102
 21
40.8823999999999899
 31
0.0
  0
LINE
  5
2FB
  8
0
 62
     0
 10
169.0200000000000102
 20
40.8823999999999899
 30
0.0
 11
169.0200000000000102
 21
41.8828000000000031
 31
0.0
  0
LINE
  5
2FC
  8
0
 62
     0
 10
169.0200000000000102
 20
41.8828000000000031
 30
0.0
 11
169.820999999999998
 21
41.8828000000000031
 31
0.0
  0
LINE
  5
2FD
  8
0
 62
     0
 10
169.820999999999998
 20
41.8828000000000031
 30
0.0
 11
169.820999999999998
 21
44.9819999999999922
 31
0.0
  0
LINE
  5
2FE
  8
0
 62
     0
 10
169.820999999999998
 20
44.9819999999999922
 30
0.0
 11
169.0200000000000102
 21
44.9819999999999922
 31
0.0
  0
LINE
  5
2FF
  8
0
 62
     0
 10
169.0200000000000102
 20
44.9819999999999922
 30
0.0
 11
169.0200000000000102
 21
50.7819999999999894
 31
0.0
  0
LINE
  5
300
  8
0
 62
     0
 10
169.0200000000000102
 20
50.7819999999999894
 30
0.0
 11
169.820999999999998
 21
50.7819999999999894
 31
0.0
  0
LINE
  5
301
  8
0
 62
     0
 10
169.820999999999998
 20
50.7819999999999894
 30
0.0
 11
169.820999999999998
 21
53.8825999999999894
 31
0.0
  0
LINE
  5
302
  8
0
 62
     0
 10
169.820999999999998
 20
53.8825999999999894
 30
0.0
 11
169.0200000000000102
 21
53.8825999999999894
 31
0.0
  0
LINE
  5
303
  8
0
 62
     0
 10
169.0200000000000102
 20
53.8825999999999894
 30
0.0
 11
169.0200000000000102
 21
54.8815999999999988
 31
0.0
  0
LINE
  5
304
  8
0
 62
     0
 10
169.0200000000000102
 20
54.8815999999999988
 30
0.0
 11
155.0209999999999866
 21
54.8815999999999988
 31
0.0
  0
LINE
  5
305
  8
0
 62
     0
 10
135.9710000000000036
 20
54.8815999999999988
 30
0.0
 11
135.9710000000000036
 21
53.8825999999999894
 31
0.0
  0
LINE
  5
306
  8
0
 62
     0
 10
135.9710000000000036
 20
53.8825999999999894
 30
0.0
 11
135.1699999999999875
 21
53.8825999999999894
 31
0.0
  0
LINE
  5
307
  8
0
 62
     0
 10
135.1699999999999875
 20
53.8825999999999894
 30
0.0
 11
135.1699999999999875
 21
50.7819999999999894
 31
0.0
  0
LINE
  5
308
  8
0
 62
     0
 10
135.1699999999999875
 20
50.7819999999999894
 30
0.0
 11
135.9710000000000036
 21
50.7819999999999894
 31
0.0
  0
LINE
  5
309
  8
0
 62
     0
 10
135.9710000000000036
 20
50.7819999999999894
 30
0.0
 11
135.9710000000000036
 21
44.9819999999999922
 31
0.0
  0
LINE
  5
30A
  8
0
 62
     0
 10
135.9710000000000036
 20
44.9819999999999922
 30
0.0
 11
135.1699999999999875
 21
44.9819999999999922
 31
0.0
  0
LINE
  5
30B
  8
0
 62
     0
 10
135.1699999999999875
 20
44.9819999999999922
 30
0.0
 11
135.1699999999999875
 21
41.8828000000000031
 31
0.0
  0
LINE
  5
30C
  8
0
 62
     0
 10
135.1699999999999875
 20
41.8828000000000031
 30
0.0
 11
135.9710000000000036
 21
41.8828000000000031
 31
0.0
  0
LINE
  5
30D
  8
0
 62
     0
 10
135.9710000000000036
 20
41.8828000000000031
 30
0.0
 11
135.9710000000000036
 21
40.8823999999999899
 31
0.0
  0
LINE
  5
30E
  8
0
 62
     0
 10
135.9710000000000036
 20
40.8823999999999899
 30
0.0
 11
149.9699999999999989
 21
40.8823999999999899
 31
0.0
  0
LINE
  5
30F
  8
0
 62
     0
 10
149.9699999999999989
 20
40.8823999999999899
 30
0.0
 11
149.9699999999999989
 21
41.8828000000000031
 31
0.0
  0
LINE
  5
310
  8
0
 62
     0
 10
149.9699999999999989
 20
41.8828000000000031
 30
0.0
 11
150.7709999999999866
 21
41.8828000000000031
 31
0.0
  0
LINE
  5
311
  8
0
 62
     0
 10
150.7709999999999866
 20
41.8828000000000031
 30
0.0
 11
150.7709999999999866
 21
44.9819999999999922
 31
0.0
  0
LINE
  5
312
  8
0
 62
     0
 10
150.7709999999999866
 20
44.9819999999999922
 30
0.0
 11
149.9699999999999989
 21
44.9819999999999922
 31
0.0
  0
LINE
  5
313
  8
0
 62
     0
 10
149.9699999999999989
 20
44.9819999999999922
 30
0.0
 11
149.9699999999999989
 21
50.7819999999999894
 31
0.0
  0
LINE
  5
314
  8
0
 62
     0
 10
149.9699999999999989
 20
50.7819999999999894
 30
0.0
 11
150.7709999999999866
 21
50.7819999999999894
 31
0.0
  0
LINE
  5
315
  8
0
 62
     0
 10
150.7709999999999866
 20
50.7819999999999894
 30
0.0
 11
150.7709999999999866
 21
53.8825999999999894
 31
0.0
  0
LINE
  5
316
  8
0
 62
     0
 10
150.7709999999999866
 20
53.8825999999999894
 30
0.0
 11
149.9699999999999989
 21
53.8825999999999894
 31
0.0
  0
LINE
  5
317
  8
0
 62
     0
 10
149.9699999999999989
 20
53.8825999999999894
 30
0.0
 11
149.9699999999999989
 21
54.8815999999999988
 31
0.0
  0
LINE
  5
318
  8
0
 62
     0
 10
149.9699999999999989
 20
54.8815999999999988
 30
0.0
 11
135.9710000000000036
 21
54.8815999999999988
 31
0.0
  0
LINE
  5
319
  8
0
 62
     0
 10
116.9200000000000017
 20
54.8815999999999988
 30
0.0
 11
116.9200000000000017
 21
53.8825999999999894
 31
0.0
  0
LINE
  5
31A
  8
0
 62
     0
 10
116.9200000000000017
 20
53.8825999999999894
 30
0.0
 11
116.1189999999999998
 21
53.8825999999999894
 31
0.0
  0
LINE
  5
31B
  8
0
 62
     0
 10
116.1189999999999998
 20
53.8825999999999894
 30
0.0
 11
116.1189999999999998
 21
50.7819999999999894
 31
0.0
  0
LINE
  5
31C
  8
0
 62
     0
 10
116.1189999999999998
 20
50.7819999999999894
 30
0.0
 11
116.9200000000000017
 21
50.7819999999999894
 31
0.0
  0
LINE
  5
31D
  8
0
 62
     0
 10
116.9200000000000017
 20
50.7819999999999894
 30
0.0
 11
116.9200000000000017
 21
44.9819999999999922
 31
0.0
  0
LINE
  5
31E
  8
0
 62
     0
 10
116.9200000000000017
 20
44.9819999999999922
 30
0.0
 11
116.1189999999999998
 21
44.9819999999999922
 31
0.0
  0
LINE
  5
31F
  8
0
 62
     0
 10
116.1189999999999998
 20
44.9819999999999922
 30
0.0
 11
116.1189999999999998
 21
41.8828000000000031
 31
0.0
  0
LINE
  5
320
  8
0
 62
     0
 10
116.1189999999999998
 20
41.8828000000000031
 30
0.0
 11
116.9200000000000017
 21
41.8828000000000031
 31
0.0
  0
LINE
  5
321
  8
0
 62
     0
 10
116.9200000000000017
 20
41.8828000000000031
 30
0.0
 11
116.9200000000000017
 21
40.8823999999999899
 31
0.0
  0
LINE
  5
322
  8
0
 62
     0
 10
116.9200000000000017
 20
40.8823999999999899
 30
0.0
 11
130.9199999999999875
 21
40.8823999999999899
 31
0.0
  0
LINE
  5
323
  8
0
 62
     0
 10
130.9199999999999875
 20
40.8823999999999899
 30
0.0
 11
130.9199999999999875
 21
41.8828000000000031
 31
0.0
  0
LINE
  5
324
  8
0
 62
     0
 10
130.9199999999999875
 20
41.8828000000000031
 30
0.0
 11
131.7210000000000036
 21
41.8828000000000031
 31
0.0
  0
LINE
  5
325
  8
0
 62
     0
 10
131.7210000000000036
 20
41.8828000000000031
 30
0.0
 11
131.7210000000000036
 21
44.9819999999999922
 31
0.0
  0
LINE
  5
326
  8
0
 62
     0
 10
131.7210000000000036
 20
44.9819999999999922
 30
0.0
 11
130.9199999999999875
 21
44.9819999999999922
 31
0.0
  0
LINE
  5
327
  8
0
 62
     0
 10
130.9199999999999875
 20
44.9819999999999922
 30
0.0
 11
130.9199999999999875
 21
50.7819999999999894
 31
0.0
  0
LINE
  5
328
  8
0
 62
     0
 10
130.9199999999999875
 20
50.7819999999999894
 30
0.0
 11
131.7210000000000036
 21
50.7819999999999894
 31
0.0
  0
LINE
  5
329
  8
0
 62
     0
 10
131.7210000000000036
 20
50.7819999999999894
 30
0.0
 11
131.7210000000000036
 21
53.8825999999999894
 31
0.0
  0
LINE
  5
32A
  8
0
 62
     0
 10
131.7210000000000036
 20
53.8825999999999894
 30
0.0
 11
130.9199999999999875
 21
53.8825999999999894
 31
0.0
  0
LINE
  5
32B
  8
0
 62
     0
 10
130.9199999999999875
 20
53.8825999999999894
 30
0.0
 11
130.9199999999999875
 21
54.8815999999999988
 31
0.0
  0
LINE
  5
32C
  8
0
 62
     0
 10
130.9199999999999875
 20
54.8815999999999988
 30
0.0
 11
116.9200000000000017
 21
54.8815999999999988
 31
0.0
  0
LINE
  5
32D
  8
0
 62
     0
 10
97.8696999999999946
 20
54.8815999999999988
 30
0.0
 11
97.8696999999999946
 21
53.8825999999999894
 31
0.0
  0
LINE
  5
32E
  8
0
 62
     0
 10
97.8696999999999946
 20
53.8825999999999894
 30
0.0
 11
97.0703000000000031
 21
53.8825999999999894
 31
0.0
  0
LINE
  5
32F
  8
0
 62
     0
 10
97.0703000000000031
 20
53.8825999999999894
 30
0.0
 11
97.0703000000000031
 21
50.7819999999999894
 31
0.0
  0
LINE
  5
330
  8
0
 62
     0
 10
97.0703000000000031
 20
50.7819999999999894
 30
0.0
 11
97.8696999999999946
 21
50.7819999999999894
 31
0.0
  0
LINE
  5
331
  8
0
 62
     0
 10
97.8696999999999946
 20
50.7819999999999894
 30
0.0
 11
97.8696999999999946
 21
44.9819999999999922
 31
0.0
  0
LINE
  5
332
  8
0
 62
     0
 10
97.8696999999999946
 20
44.9819999999999922
 30
0.0
 11
97.0703000000000031
 21
44.9819999999999922
 31
0.0
  0
LINE
  5
333
  8
0
 62
     0
 10
97.0703000000000031
 20
44.9819999999999922
 30
0.0
 11
97.0703000000000031
 21
41.8828000000000031
 31
0.0
  0
LINE
  5
334
  8
0
 62
     0
 10
97.0703000000000031
 20
41.8828000000000031
 30
0.0
 11
97.8696999999999946
 21
41.8828000000000031
 31
0.0
  0
LINE
  5
335
  8
0
 62
     0
 10
97.8696999999999946
 20
41.8828000000000031
 30
0.0
 11
97.8696999999999946
 21
40.8823999999999899
 31
0.0
  0
LINE
  5
336
  8
0
 62
     0
 10
97.8696999999999946
 20
40.8823999999999899
 30
0.0
 11
111.8689999999999998
 21
40.8823999999999899
 31
0.0
  0
LINE
  5
337
  8
0
 62
     0
 10
111.8689999999999998
 20
40.8823999999999899
 30
0.0
 11
111.8689999999999998
 21
41.8828000000000031
 31
0.0
  0
LINE
  5
338
  8
0
 62
     0
 10
111.8689999999999998
 20
41.8828000000000031
 30
0.0
 11
112.6700000000000017
 21
41.8828000000000031
 31
0.0
  0
LINE
  5
339
  8
0
 62
     0
 10
112.6700000000000017
 20
41.8828000000000031
 30
0.0
 11
112.6700000000000017
 21
44.9819999999999922
 31
0.0
  0
LINE
  5
33A
  8
0
 62
     0
 10
112.6700000000000017
 20
44.9819999999999922
 30
0.0
 11
111.8689999999999998
 21
44.9819999999999922
 31
0.0
  0
LINE
  5
33B
  8
0
 62
     0
 10
111.8689999999999998
 20
44.9819999999999922
 30
0.0
 11
111.8689999999999998
 21
50.7819999999999894
 31
0.0
  0
LINE
  5
33C
  8
0
 62
     0
 10
111.8689999999999998
 20
50.7819999999999894
 30
0.0
 11
112.6700000000000017
 21
50.7819999999999894
 31
0.0
  0
LINE
  5
33D
  8
0
 62
     0
 10
112.6700000000000017
 20
50.7819999999999894
 30
0.0
 11
112.6700000000000017
 21
53.8825999999999894
 31
0.0
  0
LINE
  5
33E
  8
0
 62
     0
 10
112.6700000000000017
 20
53.8825999999999894
 30
0.0
 11
111.8689999999999998
 21
53.8825999999999894
 31
0.0
  0
LINE
  5
33F
  8
0
 62
     0
 10
111.8689999999999998
 20
53.8825999999999894
 30
0.0
 11
111.8689999999999998
 21
54.8815999999999988
 31
0.0
  0
LINE
  5
340
  8
0
 62
     0
 10
111.8689999999999998
 20
54.8815999999999988
 30
0.0
 11
97.8696999999999946
 21
54.8815999999999988
 31
0.0
  0
LINE
  5
341
  8
0
 62
     0
 10
78.8211000000000013
 20
54.8815999999999988
 30
0.0
 11
78.8211000000000013
 21
53.8825999999999894
 31
0.0
  0
LINE
  5
342
  8
0
 62
     0
 10
78.8211000000000013
 20
53.8825999999999894
 30
0.0
 11
78.020300000000006
 21
53.8825999999999894
 31
0.0
  0
LINE
  5
343
  8
0
 62
     0
 10
78.020300000000006
 20
53.8825999999999894
 30
0.0
 11
78.020300000000006
 21
50.7819999999999894
 31
0.0
  0
LINE
  5
344
  8
0
 62
     0
 10
78.020300000000006
 20
50.7819999999999894
 30
0.0
 11
78.8211000000000013
 21
50.7819999999999894
 31
0.0
  0
LINE
  5
345
  8
0
 62
     0
 10
78.8211000000000013
 20
50.7819999999999894
 30
0.0
 11
78.8211000000000013
 21
44.9819999999999922
 31
0.0
  0
LINE
  5
346
  8
0
 62
     0
 10
78.8211000000000013
 20
44.9819999999999922
 30
0.0
 11
78.020300000000006
 21
44.9819999999999922
 31
0.0
  0
LINE
  5
347
  8
0
 62
     0
 10
78.020300000000006
 20
44.9819999999999922
 30
0.0
 11
78.020300000000006
 21
41.8828000000000031
 31
0.0
  0
LINE
  5
348
  8
0
 62
     0
 10
78.020300000000006
 20
41.8828000000000031
 30
0.0
 11
78.8211000000000013
 21
41.8828000000000031
 31
0.0
  0
LINE
  5
349
  8
0
 62
     0
 10
78.8211000000000013
 20
41.8828000000000031
 30
0.0
 11
78.8211000000000013
 21
40.8823999999999899
 31
0.0
  0
LINE
  5
34A
  8
0
 62
     0
 10
78.8211000000000013
 20
40.8823999999999899
 30
0.0
 11
92.8204000000000065
 21
40.8823999999999899
 31
0.0
  0
LINE
  5
34B
  8
0
 62
     0
 10
92.8204000000000065
 20
40.8823999999999899
 30
0.0
 11
92.8204000000000065
 21
41.8828000000000031
 31
0.0
  0
LINE
  5
34C
  8
0
 62
     0
 10
92.8204000000000065
 20
41.8828000000000031
 30
0.0
 11
93.6197999999999979
 21
41.8828000000000031
 31
0.0
  0
LINE
  5
34D
  8
0
 62
     0
 10
93.6197999999999979
 20
41.8828000000000031
 30
0.0
 11
93.6197999999999979
 21
44.9819999999999922
 31
0.0
  0
LINE
  5
34E
  8
0
 62
     0
 10
93.6197999999999979
 20
44.9819999999999922
 30
0.0
 11
92.8204000000000065
 21
44.9819999999999922
 31
0.0
  0
LINE
  5
34F
  8
0
 62
     0
 10
92.8204000000000065
 20
44.9819999999999922
 30
0.0
 11
92.8204000000000065
 21
50.7819999999999894
 31
0.0
  0
LINE
  5
350
  8
0
 62
     0
 10
92.8204000000000065
 20
50.7819999999999894
 30
0.0
 11
93.6197999999999979
 21
50.7819999999999894
 31
0.0
  0
LINE
  5
351
  8
0
 62
     0
 10
93.6197999999999979
 20
50.7819999999999894
 30
0.0
 11
93.6197999999999979
 21
53.8825999999999894
 31
0.0
  0
LINE
  5
352
  8
0
 62
     0
 10
93.6197999999999979
 20
53.8825999999999894
 30
0.0
 11
92.8204000000000065
 21
53.8825999999999894
 31
0.0
  0
LINE
  5
353
  8
0
 62
     0
 10
92.8204000000000065
 20
53.8825999999999894
 30
0.0
 11
92.8204000000000065
 21
54.8815999999999988
 31
0.0
  0
LINE
  5
354
  8
0
 62
     0
 10
92.8204000000000065
 20
54.8815999999999988
 30
0.0
 11
78.8211000000000013
 21
54.8815999999999988
 31
0.0
  0
LINE
  5
355
  8
0
 62
     0
 10
59.7710999999999899
 20
54.8815999999999988
 30
0.0
 11
59.7710999999999899
 21
53.8825999999999894
 31
0.0
  0
LINE
  5
356
  8
0
 62
     0
 10
59.7710999999999899
 20
53.8825999999999894
 30
0.0
 11
58.9703000000000017
 21
53.8825999999999894
 31
0.0
  0
LINE
  5
357
  8
0
 62
     0
 10
58.9703000000000017
 20
53.8825999999999894
 30
0.0
 11
58.9703000000000017
 21
50.7819999999999894
 31
0.0
  0
LINE
  5
358
  8
0
 62
     0
 10
58.9703000000000017
 20
50.7819999999999894
 30
0.0
 11
59.7710999999999899
 21
50.7819999999999894
 31
0.0
  0
LINE
  5
359
  8
0
 62
     0
 10
59.7710999999999899
 20
50.7819999999999894
 30
0.0
 11
59.7710999999999899
 21
44.9819999999999922
 31
0.0
  0
LINE
  5
35A
  8
0
 62
     0
 10
59.7710999999999899
 20
44.9819999999999922
 30
0.0
 11
58.9703000000000017
 21
44.9819999999999922
 31
0.0
  0
LINE
  5
35B
  8
0
 62
     0
 10
58.9703000000000017
 20
44.9819999999999922
 30
0.0
 11
58.9703000000000017
 21
41.8828000000000031
 31
0.0
  0
LINE
  5
35C
  8
0
 62
     0
 10
58.9703000000000017
 20
41.8828000000000031
 30
0.0
 11
59.7710999999999899
 21
41.8828000000000031
 31
0.0
  0
LINE
  5
35D
  8
0
 62
     0
 10
59.7710999999999899
 20
41.8828000000000031
 30
0.0
 11
59.7710999999999899
 21
40.8823999999999899
 31
0.0
  0
LINE
  5
35E
  8
0
 62
     0
 10
59.7710999999999899
 20
40.8823999999999899
 30
0.0
 11
73.7703999999999951
 21
40.8823999999999899
 31
0.0
  0
LINE
  5
35F
  8
0
 62
     0
 10
73.7703999999999951
 20
40.8823999999999899
 30
0.0
 11
73.7703999999999951
 21
41.8828000000000031
 31
0.0
  0
LINE
  5
360
  8
0
 62
     0
 10
73.7703999999999951
 20
41.8828000000000031
 30
0.0
 11
74.5712000000000046
 21
41.8828000000000031
 31
0.0
  0
LINE
  5
361
  8
0
 62
     0
 10
74.5712000000000046
 20
41.8828000000000031
 30
0.0
 11
74.5712000000000046
 21
44.9819999999999922
 31
0.0
  0
LINE
  5
362
  8
0
 62
     0
 10
74.5712000000000046
 20
44.9819999999999922
 30
0.0
 11
73.7703999999999951
 21
44.9819999999999922
 31
0.0
  0
LINE
  5
363
  8
0
 62
     0
 10
73.7703999999999951
 20
44.9819999999999922
 30
0.0
 11
73.7703999999999951
 21
50.7819999999999894
 31
0.0
  0
LINE
  5
364
  8
0
 62
     0
 10
73.7703999999999951
 20
50.7819999999999894
 30
0.0
 11
74.5712000000000046
 21
50.7819999999999894
 31
0.0
  0
LINE
  5
365
  8
0
 62
     0
 10
74.5712000000000046
 20
50.7819999999999894
 30
0.0
 11
74.5712000000000046
 21
53.8825999999999894
 31
0.0
  0
LINE
  5
366
  8
0
 62
     0
 10
74.5712000000000046
 20
53.8825999999999894
 30
0.0
 11
73.7703999999999951
 21
53.8825999999999894
 31
0.0
  0
LINE
  5
367
  8
0
 62
     0
 10
73.7703999999999951
 20
53.8825999999999894
 30
0.0
 11
73.7703999999999951
 21
54.8815999999999988
 31
0.0
  0
LINE
  5
368
  8
0
 62
     0
 10
73.7703999999999951
 20
54.8815999999999988
 30
0.0
 11
59.7710999999999899
 21
54.8815999999999988
 31
0.0
  0
LINE
  5
369
  8
0
 62
     0
 10
40.7210999999999999
 20
54.8815999999999988
 30
0.0
 11
40.7210999999999999
 21
53.8825999999999894
 31
0.0
  0
LINE
  5
36A
  8
0
 62
     0
 10
40.7210999999999999
 20
53.8825999999999894
 30
0.0
 11
39.9202999999999975
 21
53.8825999999999894
 31
0.0
  0
LINE
  5
36B
  8
0
 62
     0
 10
39.9202999999999975
 20
53.8825999999999894
 30
0.0
 11
39.9202999999999975
 21
50.7819999999999894
 31
0.0
  0
LINE
  5
36C
  8
0
 62
     0
 10
39.9202999999999975
 20
50.7819999999999894
 30
0.0
 11
40.7210999999999999
 21
50.7819999999999894
 31
0.0
  0
LINE
  5
36D
  8
0
 62
     0
 10
40.7210999999999999
 20
50.7819999999999894
 30
0.0
 11
40.7210999999999999
 21
44.9819999999999922
 31
0.0
  0
LINE
  5
36E
  8
0
 62
     0
 10
40.7210999999999999
 20
44.9819999999999922
 30
0.0
 11
39.9202999999999975
 21
44.9819999999999922
 31
0.0
  0
LINE
  5
36F
  8
0
 62
     0
 10
39.9202999999999975
 20
44.9819999999999922
 30
0.0
 11
39.9202999999999975
 21
41.8828000000000031
 31
0.0
  0
LINE
  5
370
  8
0
 62
     0
 10
39.9202999999999975
 20
41.8828000000000031
 30
0.0
 11
40.7210999999999999
 21
41.8828000000000031
 31
0.0
  0
LINE
  5
371
  8
0
 62
     0
 10
40.7210999999999999
 20
41.8828000000000031
 30
0.0
 11
40.7210999999999999
 21
40.8823999999999899
 31
0.0
  0
LINE
  5
372
  8
0
 62
     0
 10
40.7210999999999999
 20
40.8823999999999899
 30
0.0
 11
54.7203999999999908
 21
40.8823999999999899
 31
0.0
  0
LINE
  5
373
  8
0
 62
     0
 10
54.7203999999999908
 20
40.8823999999999899
 30
0.0
 11
54.7203999999999908
 21
41.8828000000000031
 31
0.0
  0
LINE
  5
374
  8
0
 62
     0
 10
54.7203999999999908
 20
41.8828000000000031
 30
0.0
 11
55.5212000000000003
 21
41.8828000000000031
 31
0.0
  0
LINE
  5
375
  8
0
 62
     0
 10
55.5212000000000003
 20
41.8828000000000031
 30
0.0
 11
55.5212000000000003
 21
44.9819999999999922
 31
0.0
  0
LINE
  5
376
  8
0
 62
     0
 10
55.5212000000000003
 20
44.9819999999999922
 30
0.0
 11
54.7203999999999908
 21
44.9819999999999922
 31
0.0
  0
LINE
  5
377
  8
0
 62
     0
 10
54.7203999999999908
 20
44.9819999999999922
 30
0.0
 11
54.7203999999999908
 21
50.7819999999999894
 31
0.0
  0
LINE
  5
378
  8
0
 62
     0
 10
54.7203999999999908
 20
50.7819999999999894
 30
0.0
 11
55.5212000000000003
 21
50.7819999999999894
 31
0.0
  0
LINE
  5
379
  8
0
 62
     0
 10
55.5212000000000003
 20
50.7819999999999894
 30
0.0
 11
55.5212000000000003
 21
53.8825999999999894
 31
0.0
  0
LINE
  5
37A
  8
0
 62
     0
 10
55.5212000000000003
 20
53.8825999999999894
 30
0.0
 11
54.7203999999999908
 21
53.8825999999999894
 31
0.0
  0
LINE
  5
37B
  8
0
 62
     0
 10
54.7203999999999908
 20
53.8825999999999894
 30
0.0
 11
54.7203999999999908
 21
54.8815999999999988
 31
0.0
  0
LINE
  5
37C
  8
0
 62
     0
 10
54.7203999999999908
 20
54.8815999999999988
 30
0.0
 11
40.7210999999999999
 21
54.8815999999999988
 31
0.0
  0
LINE
  5
37D
  8
0
 62
     0
 10
21.6709999999999994
 20
54.8815999999999988
 30
0.0
 11
21.6709999999999994
 21
53.8825999999999894
 31
0.0
  0
LINE
  5
37E
  8
0
 62
     0
 10
21.6709999999999994
 20
53.8825999999999894
 30
0.0
 11
20.8704000000000001
 21
53.8825999999999894
 31
0.0
  0
LINE
  5
37F
  8
0
 62
     0
 10
20.8704000000000001
 20
53.8825999999999894
 30
0.0
 11
20.8704000000000001
 21
50.7819999999999894
 31
0.0
  0
LINE
  5
380
  8
0
 62
     0
 10
20.8704000000000001
 20
50.7819999999999894
 30
0.0
 11
21.6709999999999994
 21
50.7819999999999894
 31
0.0
  0
LINE
  5
381
  8
0
 62
     0
 10
21.6709999999999994
 20
50.7819999999999894
 30
0.0
 11
21.6709999999999994
 21
44.9819999999999922
 31
0.0
  0
LINE
  5
382
  8
0
 62
     0
 10
21.6709999999999994
 20
44.9819999999999922
 30
0.0
 11
20.8704000000000001
 21
44.9819999999999922
 31
0.0
  0
LINE
  5
383
  8
0
 62
     0
 10
20.8704000000000001
 20
44.9819999999999922
 30
0.0
 11
20.8704000000000001
 21
41.8828000000000031
 31
0.0
  0
LINE
  5
384
  8
0
 62
     0
 10
20.8704000000000001
 20
41.8828000000000031
 30
0.0
 11
21.6709999999999994
 21
41.8828000000000031
 31
0.0
  0
LINE
  5
385
  8
0
 62
     0
 10
21.6709999999999994
 20
41.8828000000000031
 30
0.0
 11
21.6709999999999994
 21
40.8823999999999899
 31
0.0
  0
LINE
  5
386
  8
0
 62
     0
 10
21.6709999999999994
 20
40.8823999999999899
 30
0.0
 11
35.6704000000000008
 21
40.8823999999999899
 31
0.0
  0
LINE
  5
387
  8
0
 62
     0
 10
35.6704000000000008
 20
40.8823999999999899
 30
0.0
 11
35.6704000000000008
 21
41.8828000000000031
 31
0.0
  0
LINE
  5
388
  8
0
 62
     0
 10
35.6704000000000008
 20
41.8828000000000031
 30
0.0
 11
36.4712000000000103
 21
41.8828000000000031
 31
0.0
  0
LINE
  5
389
  8
0
 62
     0
 10
36.4712000000000103
 20
41.8828000000000031
 30
0.0
 11
36.4712000000000103
 21
44.9819999999999922
 31
0.0
  0
LINE
  5
38A
  8
0
 62
     0
 10
36.4712000000000103
 20
44.9819999999999922
 30
0.0
 11
35.6704000000000008
 21
44.9819999999999922
 31
0.0
  0
LINE
  5
38B
  8
0
 62
     0
 10
35.6704000000000008
 20
44.9819999999999922
 30
0.0
 11
35.6704000000000008
 21
50.7819999999999894
 31
0.0
  0
LINE
  5
38C
  8
0
 62
     0
 10
35.6704000000000008
 20
50.7819999999999894
 30
0.0
 11
36.4712000000000103
 21
50.7819999999999894
 31
0.0
  0
LINE
  5
38D
  8
0
 62
     0
 10
36.4712000000000103
 20
50.7819999999999894
 30
0.0
 11
36.4712000000000103
 21
53.8825999999999894
 31
0.0
  0
LINE
  5
38E
  8
0
 62
     0
 10
36.4712000000000103
 20
53.8825999999999894
 30
0.0
 11
35.6704000000000008
 21
53.8825999999999894
 31
0.0
  0
LINE
  5
38F
  8
0
 62
     0
 10
35.6704000000000008
 20
53.8825999999999894
 30
0.0
 11
35.6704000000000008
 21
54.8815999999999988
 31
0.0
  0
LINE
  5
390
  8
0
 62
     0
 10
35.6704000000000008
 20
54.8815999999999988
 30
0.0
 11
21.6709999999999994
 21
54.8815999999999988
 31
0.0
  0
LINE
  5
391
  8
0
 62
     0
 10
2.6210299999999989
 20
54.8815999999999988
 30
0.0
 11
2.6210299999999989
 21
53.8825999999999894
 31
0.0
  0
LINE
  5
392
  8
0
 62
     0
 10
2.6210299999999989
 20
53.8825999999999894
 30
0.0
 11
1.82039
 21
53.8825999999999894
 31
0.0
  0
LINE
  5
393
  8
0
 62
     0
 10
1.82039
 20
53.8825999999999894
 30
0.0
 11
1.82039
 21
50.7819999999999894
 31
0.0
  0
LINE
  5
394
  8
0
 62
     0
 10
1.82039
 20
50.7819999999999894
 30
0.0
 11
2.6210299999999989
 21
50.7819999999999894
 31
0.0
  0
LINE
  5
395
  8
0
 62
     0
 10
2.6210299999999989
 20
50.7819999999999894
 30
0.0
 11
2.6210299999999989
 21
44.9819999999999922
 31
0.0
  0
LINE
  5
396
  8
0
 62
     0
 10
2.6210299999999989
 20
44.9819999999999922
 30
0.0
 11
1.82039
 21
44.9819999999999922
 31
0.0
  0
LINE
  5
397
  8
0
 62
     0
 10
1.82039
 20
44.9819999999999922
 30
0.0
 11
1.82039
 21
41.8828000000000031
 31
0.0
  0
LINE
  5
398
  8
0
 62
     0
 10
1.82039
 20
41.8828000000000031
 30
0.0
 11
2.6210299999999989
 21
41.8828000000000031
 31
0.0
  0
LINE
  5
399
  8
0
 62
     0
 10
2.6210299999999989
 20
41.8828000000000031
 30
0.0
 11
2.6210299999999989
 21
40.8823999999999899
 31
0.0
  0
LINE
  5
39A
  8
0
 62
     0
 10
2.6210299999999989
 20
40.8823999999999899
 30
0.0
 11
16.6204999999999998
 21
40.8823999999999899
 31
0.0
  0
LINE
  5
39B
  8
0
 62
     0
 10
16.6204999999999998
 20
40.8823999999999899
 30
0.0
 11
16.6204999999999998
 21
41.8828000000000031
 31
0.0
  0
LINE
  5
39C
  8
0
 62
     0
 10
16.6204999999999998
 20
41.8828000000000031
 30
0.0
 11
17.4211999999999989
 21
41.8828000000000031
 31
0.0
  0
LINE
  5
39D
  8
0
 62
     0
 10
17.4211999999999989
 20
41.8828000000000031
 30
0.0
 11
17.4211999999999989
 21
44.9819999999999922
 31
0.0
  0
LINE
  5
39E
  8
0
 62
     0
 10
17.4211999999999989
 20
44.9819999999999922
 30
0.0
 11
16.6204999999999998
 21
44.9819999999999922
 31
0.0
  0
LINE
  5
39F
  8
0
 62
     0
 10
16.6204999999999998
 20
44.9819999999999922
 30
0.0
 11
16.6204999999999998
 21
50.7819999999999894
 31
0.0
  0
LINE
  5
3A0
  8
0
 62
     0
 10
16.6204999999999998
 20
50.7819999999999894
 30
0.0
 11
17.4211999999999989
 21
50.7819999999999894
 31
0.0
  0
LINE
  5
3A1
  8
0
 62
     0
 10
17.4211999999999989
 20
50.7819999999999894
 30
0.0
 11
17.4211999999999989
 21
53.8825999999999894
 31
0.0
  0
LINE
  5
3A2
  8
0
 62
     0
 10
17.4211999999999989
 20
53.8825999999999894
 30
0.0
 11
16.6204999999999998
 21
53.8825999999999894
 31
0.0
  0
LINE
  5
3A3
  8
0
 62
     0
 10
16.6204999999999998
 20
53.8825999999999894
 30
0.0
 11
16.6204999999999998
 21
54.8815999999999988
 31
0.0
  0
LINE
  5
3A4
  8
0
 62
     0
 10
16.6204999999999998
 20
54.8815999999999988
 30
0.0
 11
2.6210299999999989
 21
54.8815999999999988
 31
0.0
  0
LINE
  5
3A5
  8
0
 62
     0
 10
212.1709999999999923
 20
73.9316000000000031
 30
0.0
 11
212.1709999999999923
 21
72.9325999999999937
 31
0.0
  0
LINE
  5
3A6
  8
0
 62
     0
 10
212.1709999999999923
 20
72.9325999999999937
 30
0.0
 11
211.3700000000000045
 21
72.9325999999999937
 31
0.0
  0
LINE
  5
3A7
  8
0
 62
     0
 10
211.3700000000000045
 20
72.9325999999999937
 30
0.0
 11
211.3700000000000045
 21
69.8319999999999936
 31
0.0
  0
LINE
  5
3A8
  8
0
 62
     0
 10
211.3700000000000045
 20
69.8319999999999936
 30
0.0
 11
212.1709999999999923
 21
69.8319999999999936
 31
0.0
  0
LINE
  5
3A9
  8
0
 62
     0
 10
212.1709999999999923
 20
69.8319999999999936
 30
0.0
 11
212.1709999999999923
 21
64.0319999999999965
 31
0.0
  0
LINE
  5
3AA
  8
0
 62
     0
 10
212.1709999999999923
 20
64.0319999999999965
 30
0.0
 11
211.3700000000000045
 21
64.0319999999999965
 31
0.0
  0
LINE
  5
3AB
  8
0
 62
     0
 10
211.3700000000000045
 20
64.0319999999999965
 30
0.0
 11
211.3700000000000045
 21
60.9328000000000003
 31
0.0
  0
LINE
  5
3AC
  8
0
 62
     0
 10
211.3700000000000045
 20
60.9328000000000003
 30
0.0
 11
212.1709999999999923
 21
60.9328000000000003
 31
0.0
  0
LINE
  5
3AD
  8
0
 62
     0
 10
212.1709999999999923
 20
60.9328000000000003
 30
0.0
 11
212.1709999999999923
 21
59.9324000000000012
 31
0.0
  0
LINE
  5
3AE
  8
0
 62
     0
 10
212.1709999999999923
 20
59.9324000000000012
 30
0.0
 11
226.1699999999999875
 21
59.9324000000000012
 31
0.0
  0
LINE
  5
3AF
  8
0
 62
     0
 10
226.1699999999999875
 20
59.9324000000000012
 30
0.0
 11
226.1699999999999875
 21
60.9328000000000003
 31
0.0
  0
LINE
  5
3B0
  8
0
 62
     0
 10
226.1699999999999875
 20
60.9328000000000003
 30
0.0
 11
226.9710000000000036
 21
60.9328000000000003
 31
0.0
  0
LINE
  5
3B1
  8
0
 62
     0
 10
226.9710000000000036
 20
60.9328000000000003
 30
0.0
 11
226.9710000000000036
 21
64.0319999999999965
 31
0.0
  0
LINE
  5
3B2
  8
0
 62
     0
 10
226.9710000000000036
 20
64.0319999999999965
 30
0.0
 11
226.1699999999999875
 21
64.0319999999999965
 31
0.0
  0
LINE
  5
3B3
  8
0
 62
     0
 10
226.1699999999999875
 20
64.0319999999999965
 30
0.0
 11
226.1699999999999875
 21
69.8319999999999936
 31
0.0
  0
LINE
  5
3B4
  8
0
 62
     0
 10
226.1699999999999875
 20
69.8319999999999936
 30
0.0
 11
226.9710000000000036
 21
69.8319999999999936
 31
0.0
  0
LINE
  5
3B5
  8
0
 62
     0
 10
226.9710000000000036
 20
69.8319999999999936
 30
0.0
 11
226.9710000000000036
 21
72.9325999999999937
 31
0.0
  0
LINE
  5
3B6
  8
0
 62
     0
 10
226.9710000000000036
 20
72.9325999999999937
 30
0.0
 11
226.1699999999999875
 21
72.9325999999999937
 31
0.0
  0
LINE
  5
3B7
  8
0
 62
     0
 10
226.1699999999999875
 20
72.9325999999999937
 30
0.0
 11
226.1699999999999875
 21
73.9316000000000031
 31
0.0
  0
LINE
  5
3B8
  8
0
 62
     0
 10
226.1699999999999875
 20
73.9316000000000031
 30
0.0
 11
212.1709999999999923
 21
73.9316000000000031
 31
0.0
  0
LINE
  5
3B9
  8
0
 62
     0
 10
193.1210000000000093
 20
73.9316000000000031
 30
0.0
 11
193.1210000000000093
 21
72.9325999999999937
 31
0.0
  0
LINE
  5
3BA
  8
0
 62
     0
 10
193.1210000000000093
 20
72.9325999999999937
 30
0.0
 11
192.3199999999999932
 21
72.9325999999999937
 31
0.0
  0
LINE
  5
3BB
  8
0
 62
     0
 10
192.3199999999999932
 20
72.9325999999999937
 30
0.0
 11
192.3199999999999932
 21
69.8319999999999936
 31
0.0
  0
LINE
  5
3BC
  8
0
 62
     0
 10
192.3199999999999932
 20
69.8319999999999936
 30
0.0
 11
193.1210000000000093
 21
69.8319999999999936
 31
0.0
  0
LINE
  5
3BD
  8
0
 62
     0
 10
193.1210000000000093
 20
69.8319999999999936
 30
0.0
 11
193.1210000000000093
 21
64.0319999999999965
 31
0.0
  0
LINE
  5
3BE
  8
0
 62
     0
 10
193.1210000000000093
 20
64.0319999999999965
 30
0.0
 11
192.3199999999999932
 21
64.0319999999999965
 31
0.0
  0
LINE
  5
3BF
  8
0
 62
     0
 10
192.3199999999999932
 20
64.0319999999999965
 30
0.0
 11
192.3199999999999932
 21
60.9328000000000003
 31
0.0
  0
LINE
  5
3C0
  8
0
 62
     0
 10
192.3199999999999932
 20
60.9328000000000003
 30
0.0
 11
193.1210000000000093
 21
60.9328000000000003
 31
0.0
  0
LINE
  5
3C1
  8
0
 62
     0
 10
193.1210000000000093
 20
60.9328000000000003
 30
0.0
 11
193.1210000000000093
 21
59.9324000000000012
 31
0.0
  0
LINE
  5
3C2
  8
0
 62
     0
 10
193.1210000000000093
 20
59.9324000000000012
 30
0.0
 11
207.1200000000000045
 21
59.9324000000000012
 31
0.0
  0
LINE
  5
3C3
  8
0
 62
     0
 10
207.1200000000000045
 20
59.9324000000000012
 30
0.0
 11
207.1200000000000045
 21
60.9328000000000003
 31
0.0
  0
LINE
  5
3C4
  8
0
 62
     0
 10
207.1200000000000045
 20
60.9328000000000003
 30
0.0
 11
207.9209999999999923
 21
60.9328000000000003
 31
0.0
  0
LINE
  5
3C5
  8
0
 62
     0
 10
207.9209999999999923
 20
60.9328000000000003
 30
0.0
 11
207.9209999999999923
 21
64.0319999999999965
 31
0.0
  0
LINE
  5
3C6
  8
0
 62
     0
 10
207.9209999999999923
 20
64.0319999999999965
 30
0.0
 11
207.1200000000000045
 21
64.0319999999999965
 31
0.0
  0
LINE
  5
3C7
  8
0
 62
     0
 10
207.1200000000000045
 20
64.0319999999999965
 30
0.0
 11
207.1200000000000045
 21
69.8319999999999936
 31
0.0
  0
LINE
  5
3C8
  8
0
 62
     0
 10
207.1200000000000045
 20
69.8319999999999936
 30
0.0
 11
207.9209999999999923
 21
69.8319999999999936
 31
0.0
  0
LINE
  5
3C9
  8
0
 62
     0
 10
207.9209999999999923
 20
69.8319999999999936
 30
0.0
 11
207.9209999999999923
 21
72.9325999999999937
 31
0.0
  0
LINE
  5
3CA
  8
0
 62
     0
 10
207.9209999999999923
 20
72.9325999999999937
 30
0.0
 11
207.1200000000000045
 21
72.9325999999999937
 31
0.0
  0
LINE
  5
3CB
  8
0
 62
     0
 10
207.1200000000000045
 20
72.9325999999999937
 30
0.0
 11
207.1200000000000045
 21
73.9316000000000031
 31
0.0
  0
LINE
  5
3CC
  8
0
 62
     0
 10
207.1200000000000045
 20
73.9316000000000031
 30
0.0
 11
193.1210000000000093
 21
73.9316000000000031
 31
0.0
  0
LINE
  5
3CD
  8
0
 62
     0
 10
174.070999999999998
 20
73.9316000000000031
 30
0.0
 11
174.070999999999998
 21
72.9325999999999937
 31
0.0
  0
LINE
  5
3CE
  8
0
 62
     0
 10
174.070999999999998
 20
72.9325999999999937
 30
0.0
 11
173.2700000000000102
 21
72.9325999999999937
 31
0.0
  0
LINE
  5
3CF
  8
0
 62
     0
 10
173.2700000000000102
 20
72.9325999999999937
 30
0.0
 11
173.2700000000000102
 21
69.8319999999999936
 31
0.0
  0
LINE
  5
3D0
  8
0
 62
     0
 10
173.2700000000000102
 20
69.8319999999999936
 30
0.0
 11
174.070999999999998
 21
69.8319999999999936
 31
0.0
  0
LINE
  5
3D1
  8
0
 62
     0
 10
174.070999999999998
 20
69.8319999999999936
 30
0.0
 11
174.070999999999998
 21
64.0319999999999965
 31
0.0
  0
LINE
  5
3D2
  8
0
 62
     0
 10
174.070999999999998
 20
64.0319999999999965
 30
0.0
 11
173.2700000000000102
 21
64.0319999999999965
 31
0.0
  0
LINE
  5
3D3
  8
0
 62
     0
 10
173.2700000000000102
 20
64.0319999999999965
 30
0.0
 11
173.2700000000000102
 21
60.9328000000000003
 31
0.0
  0
LINE
  5
3D4
  8
0
 62
     0
 10
173.2700000000000102
 20
60.9328000000000003
 30
0.0
 11
174.070999999999998
 21
60.9328000000000003
 31
0.0
  0
LINE
  5
3D5
  8
0
 62
     0
 10
174.070999999999998
 20
60.9328000000000003
 30
0.0
 11
174.070999999999998
 21
59.9324000000000012
 31
0.0
  0
LINE
  5
3D6
  8
0
 62
     0
 10
174.070999999999998
 20
59.9324000000000012
 30
0.0
 11
188.0699999999999932
 21
59.9324000000000012
 31
0.0
  0
LINE
  5
3D7
  8
0
 62
     0
 10
188.0699999999999932
 20
59.9324000000000012
 30
0.0
 11
188.0699999999999932
 21
60.9328000000000003
 31
0.0
  0
LINE
  5
3D8
  8
0
 62
     0
 10
188.0699999999999932
 20
60.9328000000000003
 30
0.0
 11
188.8710000000000093
 21
60.9328000000000003
 31
0.0
  0
LINE
  5
3D9
  8
0
 62
     0
 10
188.8710000000000093
 20
60.9328000000000003
 30
0.0
 11
188.8710000000000093
 21
64.0319999999999965
 31
0.0
  0
LINE
  5
3DA
  8
0
 62
     0
 10
188.8710000000000093
 20
64.0319999999999965
 30
0.0
 11
188.0699999999999932
 21
64.0319999999999965
 31
0.0
  0
LINE
  5
3DB
  8
0
 62
     0
 10
188.0699999999999932
 20
64.0319999999999965
 30
0.0
 11
188.0699999999999932
 21
69.8319999999999936
 31
0.0
  0
LINE
  5
3DC
  8
0
 62
     0
 10
188.0699999999999932
 20
69.8319999999999936
 30
0.0
 11
188.8710000000000093
 21
69.8319999999999936
 31
0.0
  0
LINE
  5
3DD
  8
0
 62
     0
 10
188.8710000000000093
 20
69.8319999999999936
 30
0.0
 11
188.8710000000000093
 21
72.9325999999999937
 31
0.0
  0
LINE
  5
3DE
  8
0
 62
     0
 10
188.8710000000000093
 20
72.9325999999999937
 30
0.0
 11
188.0699999999999932
 21
72.9325999999999937
 31
0.0
  0
LINE
  5
3DF
  8
0
 62
     0
 10
188.0699999999999932
 20
72.9325999999999937
 30
0.0
 11
188.0699999999999932
 21
73.9316000000000031
 31
0.0
  0
LINE
  5
3E0
  8
0
 62
     0
 10
188.0699999999999932
 20
73.9316000000000031
 30
0.0
 11
174.070999999999998
 21
73.9316000000000031
 31
0.0
  0
LINE
  5
3E1
  8
0
 62
     0
 10
155.0209999999999866
 20
73.9316000000000031
 30
0.0
 11
155.0209999999999866
 21
72.9325999999999937
 31
0.0
  0
LINE
  5
3E2
  8
0
 62
     0
 10
155.0209999999999866
 20
72.9325999999999937
 30
0.0
 11
154.2199999999999989
 21
72.9325999999999937
 31
0.0
  0
LINE
  5
3E3
  8
0
 62
     0
 10
154.2199999999999989
 20
72.9325999999999937
 30
0.0
 11
154.2199999999999989
 21
69.8319999999999936
 31
0.0
  0
LINE
  5
3E4
  8
0
 62
     0
 10
154.2199999999999989
 20
69.8319999999999936
 30
0.0
 11
155.0209999999999866
 21
69.8319999999999936
 31
0.0
  0
LINE
  5
3E5
  8
0
 62
     0
 10
155.0209999999999866
 20
69.8319999999999936
 30
0.0
 11
155.0209999999999866
 21
64.0319999999999965
 31
0.0
  0
LINE
  5
3E6
  8
0
 62
     0
 10
155.0209999999999866
 20
64.0319999999999965
 30
0.0
 11
154.2199999999999989
 21
64.0319999999999965
 31
0.0
  0
LINE
  5
3E7
  8
0
 62
     0
 10
154.2199999999999989
 20
64.0319999999999965
 30
0.0
 11
154.2199999999999989
 21
60.9328000000000003
 31
0.0
  0
LINE
  5
3E8
  8
0
 62
     0
 10
154.2199999999999989
 20
60.9328000000000003
 30
0.0
 11
155.0209999999999866
 21
60.9328000000000003
 31
0.0
  0
LINE
  5
3E9
  8
0
 62
     0
 10
155.0209999999999866
 20
60.9328000000000003
 30
0.0
 11
155.0209999999999866
 21
59.9324000000000012
 31
0.0
  0
LINE
  5
3EA
  8
0
 62
     0
 10
155.0209999999999866
 20
59.9324000000000012
 30
0.0
 11
169.0200000000000102
 21
59.9324000000000012
 31
0.0
  0
LINE
  5
3EB
  8
0
 62
     0
 10
169.0200000000000102
 20
59.9324000000000012
 30
0.0
 11
169.0200000000000102
 21
60.9328000000000003
 31
0.0
  0
LINE
  5
3EC
  8
0
 62
     0
 10
169.0200000000000102
 20
60.9328000000000003
 30
0.0
 11
169.820999999999998
 21
60.9328000000000003
 31
0.0
  0
LINE
  5
3ED
  8
0
 62
     0
 10
169.820999999999998
 20
60.9328000000000003
 30
0.0
 11
169.820999999999998
 21
64.0319999999999965
 31
0.0
  0
LINE
  5
3EE
  8
0
 62
     0
 10
169.820999999999998
 20
64.0319999999999965
 30
0.0
 11
169.0200000000000102
 21
64.0319999999999965
 31
0.0
  0
LINE
  5
3EF
  8
0
 62
     0
 10
169.0200000000000102
 20
64.0319999999999965
 30
0.0
 11
169.0200000000000102
 21
69.8319999999999936
 31
0.0
  0
LINE
  5
3F0
  8
0
 62
     0
 10
169.0200000000000102
 20
69.8319999999999936
 30
0.0
 11
169.820999999999998
 21
69.8319999999999936
 31
0.0
  0
LINE
  5
3F1
  8
0
 62
     0
 10
169.820999999999998
 20
69.8319999999999936
 30
0.0
 11
169.820999999999998
 21
72.9325999999999937
 31
0.0
  0
LINE
  5
3F2
  8
0
 62
     0
 10
169.820999999999998
 20
72.9325999999999937
 30
0.0
 11
169.0200000000000102
 21
72.9325999999999937
 31
0.0
  0
LINE
  5
3F3
  8
0
 62
     0
 10
169.0200000000000102
 20
72.9325999999999937
 30
0.0
 11
169.0200000000000102
 21
73.9316000000000031
 31
0.0
  0
LINE
  5
3F4
  8
0
 62
     0
 10
169.0200000000000102
 20
73.9316000000000031
 30
0.0
 11
155.0209999999999866
 21
73.9316000000000031
 31
0.0
  0
LINE
  5
3F5
  8
0
 62
     0
 10
135.9710000000000036
 20
73.9316000000000031
 30
0.0
 11
135.9710000000000036
 21
72.9325999999999937
 31
0.0
  0
LINE
  5
3F6
  8
0
 62
     0
 10
135.9710000000000036
 20
72.9325999999999937
 30
0.0
 11
135.1699999999999875
 21
72.9325999999999937
 31
0.0
  0
LINE
  5
3F7
  8
0
 62
     0
 10
135.1699999999999875
 20
72.9325999999999937
 30
0.0
 11
135.1699999999999875
 21
69.8319999999999936
 31
0.0
  0
LINE
  5
3F8
  8
0
 62
     0
 10
135.1699999999999875
 20
69.8319999999999936
 30
0.0
 11
135.9710000000000036
 21
69.8319999999999936
 31
0.0
  0
LINE
  5
3F9
  8
0
 62
     0
 10
135.9710000000000036
 20
69.8319999999999936
 30
0.0
 11
135.9710000000000036
 21
64.0319999999999965
 31
0.0
  0
LINE
  5
3FA
  8
0
 62
     0
 10
135.9710000000000036
 20
64.0319999999999965
 30
0.0
 11
135.1699999999999875
 21
64.0319999999999965
 31
0.0
  0
LINE
  5
3FB
  8
0
 62
     0
 10
135.1699999999999875
 20
64.0319999999999965
 30
0.0
 11
135.1699999999999875
 21
60.9328000000000003
 31
0.0
  0
LINE
  5
3FC
  8
0
 62
     0
 10
135.1699999999999875
 20
60.9328000000000003
 30
0.0
 11
135.9710000000000036
 21
60.9328000000000003
 31
0.0
  0
LINE
  5
3FD
  8
0
 62
     0
 10
135.9710000000000036
 20
60.9328000000000003
 30
0.0
 11
135.9710000000000036
 21
59.9324000000000012
 31
0.0
  0
LINE
  5
3FE
  8
0
 62
     0
 10
135.9710000000000036
 20
59.9324000000000012
 30
0.0
 11
149.9699999999999989
 21
59.9324000000000012
 31
0.0
  0
LINE
  5
3FF
  8
0
 62
     0
 10
149.9699999999999989
 20
59.9324000000000012
 30
0.0
 11
149.9699999999999989
 21
60.9328000000000003
 31
0.0
  0
LINE
  5
400
  8
0
 62
     0
 10
149.9699999999999989
 20
60.9328000000000003
 30
0.0
 11
150.7709999999999866
 21
60.9328000000000003
 31
0.0
  0
LINE
  5
401
  8
0
 62
     0
 10
150.7709999999999866
 20
60.9328000000000003
 30
0.0
 11
150.7709999999999866
 21
64.0319999999999965
 31
0.0
  0
LINE
  5
402
  8
0
 62
     0
 10
150.7709999999999866
 20
64.0319999999999965
 30
0.0
 11
149.9699999999999989
 21
64.0319999999999965
 31
0.0
  0
LINE
  5
403
  8
0
 62
     0
 10
149.9699999999999989
 20
64.0319999999999965
 30
0.0
 11
149.9699999999999989
 21
69.8319999999999936
 31
0.0
  0
LINE
  5
404
  8
0
 62
     0
 10
149.9699999999999989
 20
69.8319999999999936
 30
0.0
 11
150.7709999999999866
 21
69.8319999999999936
 31
0.0
  0
LINE
  5
405
  8
0
 62
     0
 10
150.7709999999999866
 20
69.8319999999999936
 30
0.0
 11
150.7709999999999866
 21
72.9325999999999937
 31
0.0
  0
LINE
  5
406
  8
0
 62
     0
 10
150.7709999999999866
 20
72.9325999999999937
 30
0.0
 11
149.9699999999999989
 21
72.9325999999999937
 31
0.0
  0
LINE
  5
407
  8
0
 62
     0
 10
149.9699999999999989
 20
72.9325999999999937
 30
0.0
 11
149.9699999999999989
 21
73.9316000000000031
 31
0.0
  0
LINE
  5
408
  8
0
 62
     0
 10
149.9699999999999989
 20
73.9316000000000031
 30
0.0
 11
135.9710000000000036
 21
73.9316000000000031
 31
0.0
  0
LINE
  5
409
  8
0
 62
     0
 10
116.9200000000000017
 20
73.9316000000000031
 30
0.0
 11
116.9200000000000017
 21
72.9325999999999937
 31
0.0
  0
LINE
  5
40A
  8
0
 62
     0
 10
116.9200000000000017
 20
72.9325999999999937
 30
0.0
 11
116.1189999999999998
 21
72.9325999999999937
 31
0.0
  0
LINE
  5
40B
  8
0
 62
     0
 10
116.1189999999999998
 20
72.9325999999999937
 30
0.0
 11
116.1189999999999998
 21
69.8319999999999936
 31
0.0
  0
LINE
  5
40C
  8
0
 62
     0
 10
116.1189999999999998
 20
69.8319999999999936
 30
0.0
 11
116.9200000000000017
 21
69.8319999999999936
 31
0.0
  0
LINE
  5
40D
  8
0
 62
     0
 10
116.9200000000000017
 20
69.8319999999999936
 30
0.0
 11
116.9200000000000017
 21
64.0319999999999965
 31
0.0
  0
LINE
  5
40E
  8
0
 62
     0
 10
116.9200000000000017
 20
64.0319999999999965
 30
0.0
 11
116.1189999999999998
 21
64.0319999999999965
 31
0.0
  0
LINE
  5
40F
  8
0
 62
     0
 10
116.1189999999999998
 20
64.0319999999999965
 30
0.0
 11
116.1189999999999998
 21
60.9328000000000003
 31
0.0
  0
LINE
  5
410
  8
0
 62
     0
 10
116.1189999999999998
 20
60.9328000000000003
 30
0.0
 11
116.9200000000000017
 21
60.9328000000000003
 31
0.0
  0
LINE
  5
411
  8
0
 62
     0
 10
116.9200000000000017
 20
60.9328000000000003
 30
0.0
 11
116.9200000000000017
 21
59.9324000000000012
 31
0.0
  0
LINE
  5
412
  8
0
 62
     0
 10
116.9200000000000017
 20
59.9324000000000012
 30
0.0
 11
130.9199999999999875
 21
59.9324000000000012
 31
0.0
  0
LINE
  5
413
  8
0
 62
     0
 10
130.9199999999999875
 20
59.9324000000000012
 30
0.0
 11
130.9199999999999875
 21
60.9328000000000003
 31
0.0
  0
LINE
  5
414
  8
0
 62
     0
 10
130.9199999999999875
 20
60.9328000000000003
 30
0.0
 11
131.7210000000000036
 21
60.9328000000000003
 31
0.0
  0
LINE
  5
415
  8
0
 62
     0
 10
131.7210000000000036
 20
60.9328000000000003
 30
0.0
 11
131.7210000000000036
 21
64.0319999999999965
 31
0.0
  0
LINE
  5
416
  8
0
 62
     0
 10
131.7210000000000036
 20
64.0319999999999965
 30
0.0
 11
130.9199999999999875
 21
64.0319999999999965
 31
0.0
  0
LINE
  5
417
  8
0
 62
     0
 10
130.9199999999999875
 20
64.0319999999999965
 30
0.0
 11
130.9199999999999875
 21
69.8319999999999936
 31
0.0
  0
LINE
  5
418
  8
0
 62
     0
 10
130.9199999999999875
 20
69.8319999999999936
 30
0.0
 11
131.7210000000000036
 21
69.8319999999999936
 31
0.0
  0
LINE
  5
419
  8
0
 62
     0
 10
131.7210000000000036
 20
69.8319999999999936
 30
0.0
 11
131.7210000000000036
 21
72.9325999999999937
 31
0.0
  0
LINE
  5
41A
  8
0
 62
     0
 10
131.7210000000000036
 20
72.9325999999999937
 30
0.0
 11
130.9199999999999875
 21
72.9325999999999937
 31
0.0
  0
LINE
  5
41B
  8
0
 62
     0
 10
130.9199999999999875
 20
72.9325999999999937
 30
0.0
 11
130.9199999999999875
 21
73.9316000000000031
 31
0.0
  0
LINE
  5
41C
  8
0
 62
     0
 10
130.9199999999999875
 20
73.9316000000000031
 30
0.0
 11
116.9200000000000017
 21
73.9316000000000031
 31
0.0
  0
LINE
  5
41D
  8
0
 62
     0
 10
97.8696999999999946
 20
73.9316000000000031
 30
0.0
 11
97.8696999999999946
 21
72.9325999999999937
 31
0.0
  0
LINE
  5
41E
  8
0
 62
     0
 10
97.8696999999999946
 20
72.9325999999999937
 30
0.0
 11
97.0703000000000031
 21
72.9325999999999937
 31
0.0
  0
LINE
  5
41F
  8
0
 62
     0
 10
97.0703000000000031
 20
72.9325999999999937
 30
0.0
 11
97.0703000000000031
 21
69.8319999999999936
 31
0.0
  0
LINE
  5
420
  8
0
 62
     0
 10
97.0703000000000031
 20
69.8319999999999936
 30
0.0
 11
97.8696999999999946
 21
69.8319999999999936
 31
0.0
  0
LINE
  5
421
  8
0
 62
     0
 10
97.8696999999999946
 20
69.8319999999999936
 30
0.0
 11
97.8696999999999946
 21
64.0319999999999965
 31
0.0
  0
LINE
  5
422
  8
0
 62
     0
 10
97.8696999999999946
 20
64.0319999999999965
 30
0.0
 11
97.0703000000000031
 21
64.0319999999999965
 31
0.0
  0
LINE
  5
423
  8
0
 62
     0
 10
97.0703000000000031
 20
64.0319999999999965
 30
0.0
 11
97.0703000000000031
 21
60.9328000000000003
 31
0.0
  0
LINE
  5
424
  8
0
 62
     0
 10
97.0703000000000031
 20
60.9328000000000003
 30
0.0
 11
97.8696999999999946
 21
60.9328000000000003
 31
0.0
  0
LINE
  5
425
  8
0
 62
     0
 10
97.8696999999999946
 20
60.9328000000000003
 30
0.0
 11
97.8696999999999946
 21
59.9324000000000012
 31
0.0
  0
LINE
  5
426
  8
0
 62
     0
 10
97.8696999999999946
 20
59.9324000000000012
 30
0.0
 11
111.8689999999999998
 21
59.9324000000000012
 31
0.0
  0
LINE
  5
427
  8
0
 62
     0
 10
111.8689999999999998
 20
59.9324000000000012
 30
0.0
 11
111.8689999999999998
 21
60.9328000000000003
 31
0.0
  0
LINE
  5
428
  8
0
 62
     0
 10
111.8689999999999998
 20
60.9328000000000003
 30
0.0
 11
112.6700000000000017
 21
60.9328000000000003
 31
0.0
  0
LINE
  5
429
  8
0
 62
     0
 10
112.6700000000000017
 20
60.9328000000000003
 30
0.0
 11
112.6700000000000017
 21
64.0319999999999965
 31
0.0
  0
LINE
  5
42A
  8
0
 62
     0
 10
112.6700000000000017
 20
64.0319999999999965
 30
0.0
 11
111.8689999999999998
 21
64.0319999999999965
 31
0.0
  0
LINE
  5
42B
  8
0
 62
     0
 10
111.8689999999999998
 20
64.0319999999999965
 30
0.0
 11
111.8689999999999998
 21
69.8319999999999936
 31
0.0
  0
LINE
  5
42C
  8
0
 62
     0
 10
111.8689999999999998
 20
69.8319999999999936
 30
0.0
 11
112.6700000000000017
 21
69.8319999999999936
 31
0.0
  0
LINE
  5
42D
  8
0
 62
     0
 10
112.6700000000000017
 20
69.8319999999999936
 30
0.0
 11
112.6700000000000017
 21
72.9325999999999937
 31
0.0
  0
LINE
  5
42E
  8
0
 62
     0
 10
112.6700000000000017
 20
72.9325999999999937
 30
0.0
 11
111.8689999999999998
 21
72.9325999999999937
 31
0.0
  0
LINE
  5
42F
  8
0
 62
     0
 10
111.8689999999999998
 20
72.9325999999999937
 30
0.0
 11
111.8689999999999998
 21
73.9316000000000031
 31
0.0
  0
LINE
  5
430
  8
0
 62
     0
 10
111.8689999999999998
 20
73.9316000000000031
 30
0.0
 11
97.8696999999999946
 21
73.9316000000000031
 31
0.0
  0
LINE
  5
431
  8
0
 62
     0
 10
78.8211000000000013
 20
73.9316000000000031
 30
0.0
 11
78.8211000000000013
 21
72.9325999999999937
 31
0.0
  0
LINE
  5
432
  8
0
 62
     0
 10
78.8211000000000013
 20
72.9325999999999937
 30
0.0
 11
78.020300000000006
 21
72.9325999999999937
 31
0.0
  0
LINE
  5
433
  8
0
 62
     0
 10
78.020300000000006
 20
72.9325999999999937
 30
0.0
 11
78.020300000000006
 21
69.8319999999999936
 31
0.0
  0
LINE
  5
434
  8
0
 62
     0
 10
78.020300000000006
 20
69.8319999999999936
 30
0.0
 11
78.8211000000000013
 21
69.8319999999999936
 31
0.0
  0
LINE
  5
435
  8
0
 62
     0
 10
78.8211000000000013
 20
69.8319999999999936
 30
0.0
 11
78.8211000000000013
 21
64.0319999999999965
 31
0.0
  0
LINE
  5
436
  8
0
 62
     0
 10
78.8211000000000013
 20
64.0319999999999965
 30
0.0
 11
78.020300000000006
 21
64.0319999999999965
 31
0.0
  0
LINE
  5
437
  8
0
 62
     0
 10
78.020300000000006
 20
64.0319999999999965
 30
0.0
 11
78.020300000000006
 21
60.9328000000000003
 31
0.0
  0
LINE
  5
438
  8
0
 62
     0
 10
78.020300000000006
 20
60.9328000000000003
 30
0.0
 11
78.8211000000000013
 21
60.9328000000000003
 31
0.0
  0
LINE
  5
439
  8
0
 62
     0
 10
78.8211000000000013
 20
60.9328000000000003
 30
0.0
 11
78.8211000000000013
 21
59.9324000000000012
 31
0.0
  0
LINE
  5
43A
  8
0
 62
     0
 10
78.8211000000000013
 20
59.9324000000000012
 30
0.0
 11
92.8204000000000065
 21
59.9324000000000012
 31
0.0
  0
LINE
  5
43B
  8
0
 62
     0
 10
92.8204000000000065
 20
59.9324000000000012
 30
0.0
 11
92.8204000000000065
 21
60.9328000000000003
 31
0.0
  0
LINE
  5
43C
  8
0
 62
     0
 10
92.8204000000000065
 20
60.9328000000000003
 30
0.0
 11
93.6197999999999979
 21
60.9328000000000003
 31
0.0
  0
LINE
  5
43D
  8
0
 62
     0
 10
93.6197999999999979
 20
60.9328000000000003
 30
0.0
 11
93.6197999999999979
 21
64.0319999999999965
 31
0.0
  0
LINE
  5
43E
  8
0
 62
     0
 10
93.6197999999999979
 20
64.0319999999999965
 30
0.0
 11
92.8204000000000065
 21
64.0319999999999965
 31
0.0
  0
LINE
  5
43F
  8
0
 62
     0
 10
92.8204000000000065
 20
64.0319999999999965
 30
0.0
 11
92.8204000000000065
 21
69.8319999999999936
 31
0.0
  0
LINE
  5
440
  8
0
 62
     0
 10
92.8204000000000065
 20
69.8319999999999936
 30
0.0
 11
93.6197999999999979
 21
69.8319999999999936
 31
0.0
  0
LINE
  5
441
  8
0
 62
     0
 10
93.6197999999999979
 20
69.8319999999999936
 30
0.0
 11
93.6197999999999979
 21
72.9325999999999937
 31
0.0
  0
LINE
  5
442
  8
0
 62
     0
 10
93.6197999999999979
 20
72.9325999999999937
 30
0.0
 11
92.8204000000000065
 21
72.9325999999999937
 31
0.0
  0
LINE
  5
443
  8
0
 62
     0
 10
92.8204000000000065
 20
72.9325999999999937
 30
0.0
 11
92.8204000000000065
 21
73.9316000000000031
 31
0.0
  0
LINE
  5
444
  8
0
 62
     0
 10
92.8204000000000065
 20
73.9316000000000031
 30
0.0
 11
78.8211000000000013
 21
73.9316000000000031
 31
0.0
  0
LINE
  5
445
  8
0
 62
     0
 10
59.7710999999999899
 20
73.9316000000000031
 30
0.0
 11
59.7710999999999899
 21
72.9325999999999937
 31
0.0
  0
LINE
  5
446
  8
0
 62
     0
 10
59.7710999999999899
 20
72.9325999999999937
 30
0.0
 11
58.9703000000000017
 21
72.9325999999999937
 31
0.0
  0
LINE
  5
447
  8
0
 62
     0
 10
58.9703000000000017
 20
72.9325999999999937
 30
0.0
 11
58.9703000000000017
 21
69.8319999999999936
 31
0.0
  0
LINE
  5
448
  8
0
 62
     0
 10
58.9703000000000017
 20
69.8319999999999936
 30
0.0
 11
59.7710999999999899
 21
69.8319999999999936
 31
0.0
  0
LINE
  5
449
  8
0
 62
     0
 10
59.7710999999999899
 20
69.8319999999999936
 30
0.0
 11
59.7710999999999899
 21
64.0319999999999965
 31
0.0
  0
LINE
  5
44A
  8
0
 62
     0
 10
59.7710999999999899
 20
64.0319999999999965
 30
0.0
 11
58.9703000000000017
 21
64.0319999999999965
 31
0.0
  0
LINE
  5
44B
  8
0
 62
     0
 10
58.9703000000000017
 20
64.0319999999999965
 30
0.0
 11
58.9703000000000017
 21
60.9328000000000003
 31
0.0
  0
LINE
  5
44C
  8
0
 62
     0
 10
58.9703000000000017
 20
60.9328000000000003
 30
0.0
 11
59.7710999999999899
 21
60.9328000000000003
 31
0.0
  0
LINE
  5
44D
  8
0
 62
     0
 10
59.7710999999999899
 20
60.9328000000000003
 30
0.0
 11
59.7710999999999899
 21
59.9324000000000012
 31
0.0
  0
LINE
  5
44E
  8
0
 62
     0
 10
59.7710999999999899
 20
59.9324000000000012
 30
0.0
 11
73.7703999999999951
 21
59.9324000000000012
 31
0.0
  0
LINE
  5
44F
  8
0
 62
     0
 10
73.7703999999999951
 20
59.9324000000000012
 30
0.0
 11
73.7703999999999951
 21
60.9328000000000003
 31
0.0
  0
LINE
  5
450
  8
0
 62
     0
 10
73.7703999999999951
 20
60.9328000000000003
 30
0.0
 11
74.5712000000000046
 21
60.9328000000000003
 31
0.0
  0
LINE
  5
451
  8
0
 62
     0
 10
74.5712000000000046
 20
60.9328000000000003
 30
0.0
 11
74.5712000000000046
 21
64.0319999999999965
 31
0.0
  0
LINE
  5
452
  8
0
 62
     0
 10
74.5712000000000046
 20
64.0319999999999965
 30
0.0
 11
73.7703999999999951
 21
64.0319999999999965
 31
0.0
  0
LINE
  5
453
  8
0
 62
     0
 10
73.7703999999999951
 20
64.0319999999999965
 30
0.0
 11
73.7703999999999951
 21
69.8319999999999936
 31
0.0
  0
LINE
  5
454
  8
0
 62
     0
 10
73.7703999999999951
 20
69.8319999999999936
 30
0.0
 11
74.5712000000000046
 21
69.8319999999999936
 31
0.0
  0
LINE
  5
455
  8
0
 62
     0
 10
74.5712000000000046
 20
69.8319999999999936
 30
0.0
 11
74.5712000000000046
 21
72.9325999999999937
 31
0.0
  0
LINE
  5
456
  8
0
 62
     0
 10
74.5712000000000046
 20
72.9325999999999937
 30
0.0
 11
73.7703999999999951
 21
72.9325999999999937
 31
0.0
  0
LINE
  5
457
  8
0
 62
     0
 10
73.7703999999999951
 20
72.9325999999999937
 30
0.0
 11
73.7703999999999951
 21
73.9316000000000031
 31
0.0
  0
LINE
  5
458
  8
0
 62
     0
 10
73.7703999999999951
 20
73.9316000000000031
 30
0.0
 11
59.7710999999999899
 21
73.9316000000000031
 31
0.0
  0
LINE
  5
459
  8
0
 62
     0
 10
40.7210999999999999
 20
73.9316000000000031
 30
0.0
 11
40.7210999999999999
 21
72.9325999999999937
 31
0.0
  0
LINE
  5
45A
  8
0
 62
     0
 10
40.7210999999999999
 20
72.9325999999999937
 30
0.0
 11
39.9202999999999975
 21
72.9325999999999937
 31
0.0
  0
LINE
  5
45B
  8
0
 62
     0
 10
39.9202999999999975
 20
72.9325999999999937
 30
0.0
 11
39.9202999999999975
 21
69.8319999999999936
 31
0.0
  0
LINE
  5
45C
  8
0
 62
     0
 10
39.9202999999999975
 20
69.8319999999999936
 30
0.0
 11
40.7210999999999999
 21
69.8319999999999936
 31
0.0
  0
LINE
  5
45D
  8
0
 62
     0
 10
40.7210999999999999
 20
69.8319999999999936
 30
0.0
 11
40.7210999999999999
 21
64.0319999999999965
 31
0.0
  0
LINE
  5
45E
  8
0
 62
     0
 10
40.7210999999999999
 20
64.0319999999999965
 30
0.0
 11
39.9202999999999975
 21
64.0319999999999965
 31
0.0
  0
LINE
  5
45F
  8
0
 62
     0
 10
39.9202999999999975
 20
64.0319999999999965
 30
0.0
 11
39.9202999999999975
 21
60.9328000000000003
 31
0.0
  0
LINE
  5
460
  8
0
 62
     0
 10
39.9202999999999975
 20
60.9328000000000003
 30
0.0
 11
40.7210999999999999
 21
60.9328000000000003
 31
0.0
  0
LINE
  5
461
  8
0
 62
     0
 10
40.7210999999999999
 20
60.9328000000000003
 30
0.0
 11
40.7210999999999999
 21
59.9324000000000012
 31
0.0
  0
LINE
  5
462
  8
0
 62
     0
 10
40.7210999999999999
 20
59.9324000000000012
 30
0.0
 11
54.7203999999999908
 21
59.9324000000000012
 31
0.0
  0
LINE
  5
463
  8
0
 62
     0
 10
54.7203999999999908
 20
59.9324000000000012
 30
0.0
 11
54.7203999999999908
 21
60.9328000000000003
 31
0.0
  0
LINE
  5
464
  8
0
 62
     0
 10
54.7203999999999908
 20
60.9328000000000003
 30
0.0
 11
55.5212000000000003
 21
60.9328000000000003
 31
0.0
  0
LINE
  5
465
  8
0
 62
     0
 10
55.5212000000000003
 20
60.9328000000000003
 30
0.0
 11
55.5212000000000003
 21
64.0319999999999965
 31
0.0
  0
LINE
  5
466
  8
0
 62
     0
 10
55.5212000000000003
 20
64.0319999999999965
 30
0.0
 11
54.7203999999999908
 21
64.0319999999999965
 31
0.0
  0
LINE
  5
467
  8
0
 62
     0
 10
54.7203999999999908
 20
64.0319999999999965
 30
0.0
 11
54.7203999999999908
 21
69.8319999999999936
 31
0.0
  0
LINE
  5
468
  8
0
 62
     0
 10
54.7203999999999908
 20
69.8319999999999936
 30
0.0
 11
55.5212000000000003
 21
69.8319999999999936
 31
0.0
  0
LINE
  5
469
  8
0
 62
     0
 10
55.5212000000000003
 20
69.8319999999999936
 30
0.0
 11
55.5212000000000003
 21
72.9325999999999937
 31
0.0
  0
LINE
  5
46A
  8
0
 62
     0
 10
55.5212000000000003
 20
72.9325999999999937
 30
0.0
 11
54.7203999999999908
 21
72.9325999999999937
 31
0.0
  0
LINE
  5
46B
  8
0
 62
     0
 10
54.7203999999999908
 20
72.9325999999999937
 30
0.0
 11
54.7203999999999908
 21
73.9316000000000031
 31
0.0
  0
LINE
  5
46C
  8
0
 62
     0
 10
54.7203999999999908
 20
73.9316000000000031
 30
0.0
 11
40.7210999999999999
 21
73.9316000000000031
 31
0.0
  0
LINE
  5
46D
  8
0
 62
     0
 10
21.6709999999999994
 20
73.9316000000000031
 30
0.0
 11
21.6709999999999994
 21
72.9325999999999937
 31
0.0
  0
LINE
  5
46E
  8
0
 62
     0
 10
21.6709999999999994
 20
72.9325999999999937
 30
0.0
 11
20.8704000000000001
 21
72.9325999999999937
 31
0.0
  0
LINE
  5
46F
  8
0
 62
     0
 10
20.8704000000000001
 20
72.9325999999999937
 30
0.0
 11
20.8704000000000001
 21
69.8319999999999936
 31
0.0
  0
LINE
  5
470
  8
0
 62
     0
 10
20.8704000000000001
 20
69.8319999999999936
 30
0.0
 11
21.6709999999999994
 21
69.8319999999999936
 31
0.0
  0
LINE
  5
471
  8
0
 62
     0
 10
21.6709999999999994
 20
69.8319999999999936
 30
0.0
 11
21.6709999999999994
 21
64.0319999999999965
 31
0.0
  0
LINE
  5
472
  8
0
 62
     0
 10
21.6709999999999994
 20
64.0319999999999965
 30
0.0
 11
20.8704000000000001
 21
64.0319999999999965
 31
0.0
  0
LINE
  5
473
  8
0
 62
     0
 10
20.8704000000000001
 20
64.0319999999999965
 30
0.0
 11
20.8704000000000001
 21
60.9328000000000003
 31
0.0
  0
LINE
  5
474
  8
0
 62
     0
 10
20.8704000000000001
 20
60.9328000000000003
 30
0.0
 11
21.6709999999999994
 21
60.9328000000000003
 31
0.0
  0
LINE
  5
475
  8
0
 62
     0
 10
21.6709999999999994
 20
60.9328000000000003
 30
0.0
 11
21.6709999999999994
 21
59.9324000000000012
 31
0.0
  0
LINE
  5
476
  8
0
 62
     0
 10
21.6709999999999994
 20
59.9324000000000012
 30
0.0
 11
35.6704000000000008
 21
59.9324000000000012
 31
0.0
  0
LINE
  5
477
  8
0
 62
     0
 10
35.6704000000000008
 20
59.9324000000000012
 30
0.0
 11
35.6704000000000008
 21
60.9328000000000003
 31
0.0
  0
LINE
  5
478
  8
0
 62
     0
 10
35.6704000000000008
 20
60.9328000000000003
 30
0.0
 11
36.4712000000000103
 21
60.9328000000000003
 31
0.0
  0
LINE
  5
479
  8
0
 62
     0
 10
36.4712000000000103
 20
60.9328000000000003
 30
0.0
 11
36.4712000000000103
 21
64.0319999999999965
 31
0.0
  0
LINE
  5
47A
  8
0
 62
     0
 10
36.4712000000000103
 20
64.0319999999999965
 30
0.0
 11
35.6704000000000008
 21
64.0319999999999965
 31
0.0
  0
LINE
  5
47B
  8
0
 62
     0
 10
35.6704000000000008
 20
64.0319999999999965
 30
0.0
 11
35.6704000000000008
 21
69.8319999999999936
 31
0.0
  0
LINE
  5
47C
  8
0
 62
     0
 10
35.6704000000000008
 20
69.8319999999999936
 30
0.0
 11
36.4712000000000103
 21
69.8319999999999936
 31
0.0
  0
LINE
  5
47D
  8
0
 62
     0
 10
36.4712000000000103
 20
69.8319999999999936
 30
0.0
 11
36.4712000000000103
 21
72.9325999999999937
 31
0.0
  0
LINE
  5
47E
  8
0
 62
     0
 10
36.4712000000000103
 20
72.9325999999999937
 30
0.0
 11
35.6704000000000008
 21
72.9325999999999937
 31
0.0
  0
LINE
  5
47F
  8
0
 62
     0
 10
35.6704000000000008
 20
72.9325999999999937
 30
0.0
 11
35.6704000000000008
 21
73.9316000000000031
 31
0.0
  0
LINE
  5
480
  8
0
 62
     0
 10
35.6704000000000008
 20
73.9316000000000031
 30
0.0
 11
21.6709999999999994
 21
73.9316000000000031
 31
0.0
  0
LINE
  5
481
  8
0
 62
     0
 10
2.6210299999999989
 20
73.9316000000000031
 30
0.0
 11
2.6210299999999989
 21
72.9325999999999937
 31
0.0
  0
LINE
  5
482
  8
0
 62
     0
 10
2.6210299999999989
 20
72.9325999999999937
 30
0.0
 11
1.82039
 21
72.9325999999999937
 31
0.0
  0
LINE
  5
483
  8
0
 62
     0
 10
1.82039
 20
72.9325999999999937
 30
0.0
 11
1.82039
 21
69.8319999999999936
 31
0.0
  0
LINE
  5
484
  8
0
 62
     0
 10
1.82039
 20
69.8319999999999936
 30
0.0
 11
2.6210299999999989
 21
69.8319999999999936
 31
0.0
  0
LINE
  5
485
  8
0
 62
     0
 10
2.6210299999999989
 20
69.8319999999999936
 30
0.0
 11
2.6210299999999989
 21
64.0319999999999965
 31
0.0
  0
LINE
  5
486
  8
0
 62
     0
 10
2.6210299999999989
 20
64.0319999999999965
 30
0.0
 11
1.82039
 21
64.0319999999999965
 31
0.0
  0
LINE
  5
487
  8
0
 62
     0
 10
1.82039
 20
64.0319999999999965
 30
0.0
 11
1.82039
 21
60.9328000000000003
 31
0.0
  0
LINE
  5
488
  8
0
 62
     0
 10
1.82039
 20
60.9328000000000003
 30
0.0
 11
2.6210299999999989
 21
60.9328000000000003
 31
0.0
  0
LINE
  5
489
  8
0
 62
     0
 10
2.6210299999999989
 20
60.9328000000000003
 30
0.0
 11
2.6210299999999989
 21
59.9324000000000012
 31
0.0
  0
LINE
  5
48A
  8
0
 62
     0
 10
2.6210299999999989
 20
59.9324000000000012
 30
0.0
 11
16.6204999999999998
 21
59.9324000000000012
 31
0.0
  0
LINE
  5
48B
  8
0
 62
     0
 10
16.6204999999999998
 20
59.9324000000000012
 30
0.0
 11
16.6204999999999998
 21
60.9328000000000003
 31
0.0
  0
LINE
  5
48C
  8
0
 62
     0
 10
16.6204999999999998
 20
60.9328000000000003
 30
0.0
 11
17.4211999999999989
 21
60.9328000000000003
 31
0.0
  0
LINE
  5
48D
  8
0
 62
     0
 10
17.4211999999999989
 20
60.9328000000000003
 30
0.0
 11
17.4211999999999989
 21
64.0319999999999965
 31
0.0
  0
LINE
  5
48E
  8
0
 62
     0
 10
17.4211999999999989
 20
64.0319999999999965
 30
0.0
 11
16.6204999999999998
 21
64.0319999999999965
 31
0.0
  0
LINE
  5
48F
  8
0
 62
     0
 10
16.6204999999999998
 20
64.0319999999999965
 30
0.0
 11
16.6204999999999998
 21
69.8319999999999936
 31
0.0
  0
LINE
  5
490
  8
0
 62
     0
 10
16.6204999999999998
 20
69.8319999999999936
 30
0.0
 11
17.4211999999999989
 21
69.8319999999999936
 31
0.0
  0
LINE
  5
491
  8
0
 62
     0
 10
17.4211999999999989
 20
69.8319999999999936
 30
0.0
 11
17.4211999999999989
 21
72.9325999999999937
 31
0.0
  0
LINE
  5
492
  8
0
 62
     0
 10
17.4211999999999989
 20
72.9325999999999937
 30
0.0
 11
16.6204999999999998
 21
72.9325999999999937
 31
0.0
  0
LINE
  5
493
  8
0
 62
     0
 10
16.6204999999999998
 20
72.9325999999999937
 30
0.0
 11
16.6204999999999998
 21
73.9316000000000031
 31
0.0
  0
LINE
  5
494
  8
0
 62
     0
 10
16.6204999999999998
 20
73.9316000000000031
 30
0.0
 11
2.6210299999999989
 21
73.9316000000000031
 31
0.0
  0
CIRCLE
  5
4AC
  8
0
  6
CONTINUOUS
 10
19.1458000000000013
 20
19.3069999999999986
 30
0.0
 40
0.95
  0
CIRCLE
  5
4AD
  8
0
  6
CONTINUOUS
 10
19.1458000000000013
 20
57.4069999999999965
 30
0.0
 40
0.95
  0
CIRCLE
  5
4AE
  8
0
  6
CONTINUOUS
 10
57.2457499999999868
 20
38.3569050000000118
 30
0.0
 40
0.95
  0
CIRCLE
  5
4AF
  8
0
  6
CONTINUOUS
 10
209.6454999999999984
 20
19.3069999999999986
 30
0.0
 40
0.95
  0
CIRCLE
  5
4B0
  8
0
  6
CONTINUOUS
 10
209.6454999999999984
 20
57.4069999999999965
 30
0.0
 40
0.95
  0
CIRCLE
  5
4B1
  8
0
  6
CONTINUOUS
 10
171.5455000000000041
 20
38.3573549999999912
 30
0.0
 40
0.95
  0
ENDSEC
  0
EOF
