  0
SECTION
  2
HEADER
  9
$ACADVER
  1
AC1009
  9
$INSBASE
 10
0.0
 20
0.0
 30
0.0
  9
$EXTMIN
 10
0.0950846
 20
0.256315
 30
0.0
  9
$EXTMAX
 10
228.695999999999998
 20
76.457499999999996
 30
0.0
  9
$LIMMIN
 10
0.0
 20
0.0
  9
$LIMMAX
 10
12.0
 20
9.0
  9
$ORTHOMODE
 70
     0
  9
$REGENMODE
 70
     1
  9
$FILLMODE
 70
     0
  9
$QTEXTMODE
 70
     0
  9
$MIRRTEXT
 70
     0
  9
$DRAGMODE
 70
     2
  9
$LTSCALE
 40
1.0
  9
$OSMODE
 70
  3583
  9
$ATTMODE
 70
     1
  9
$TEXTSIZE
 40
0.2
  9
$TRACEWID
 40
0.05
  9
$TEXTSTYLE
  7
STANDARD
  9
$CLAYER
  8
0
  9
$CELTYPE
  6
CONTINUOUS
  9
$CECOLOR
 62
   256
  9
$DIMSCALE
 40
1.0
  9
$DIMASZ
 40
0.18
  9
$DIMEXO
 40
0.0625
  9
$DIMDLI
 40
0.38
  9
$DIMRND
 40
0.0
  9
$DIMDLE
 40
0.0
  9
$DIMEXE
 40
0.18
  9
$DIMTP
 40
0.0
  9
$DIMTM
 40
0.0
  9
$DIMTXT
 40
0.18
  9
$DIMCEN
 40
0.09
  9
$DIMTSZ
 40
0.0
  9
$DIMTOL
 70
     0
  9
$DIMLIM
 70
     0
  9
$DIMTIH
 70
     1
  9
$DIMTOH
 70
     1
  9
$DIMSE1
 70
     0
  9
$DIMSE2
 70
     0
  9
$DIMTAD
 70
     0
  9
$DIMZIN
 70
     0
  9
$DIMBLK
  1

  9
$DIMASO
 70
     1
  9
$DIMSHO
 70
     1
  9
$DIMPOST
  1

  9
$DIMAPOST
  1

  9
$DIMALT
 70
     0
  9
$DIMALTD
 70
     2
  9
$DIMALTF
 40
25.3999999999999986
  9
$DIMLFAC
 40
1.0
  9
$DIMTOFL
 70
     0
  9
$DIMTVP
 40
0.0
  9
$DIMTIX
 70
     0
  9
$DIMSOXD
 70
     0
  9
$DIMSAH
 70
     0
  9
$DIMBLK1
  1

  9
$DIMBLK2
  1

  9
$DIMSTYLE
  2
STANDARD
  9
$DIMCLRD
 70
     0
  9
$DIMCLRE
 70
     0
  9
$DIMCLRT
 70
     0
  9
$DIMTFAC
 40
1.0
  9
$DIMGAP
 40
0.09
  9
$LUNITS
 70
     2
  9
$LUPREC
 70
     4
  9
$SKETCHINC
 40
0.1
  9
$FILLETRAD
 40
0.0
  9
$AUNITS
 70
     0
  9
$AUPREC
 70
     0
  9
$MENU
  1
.
  9
$ELEVATION
 40
0.0
  9
$PELEVATION
 40
0.0
  9
$THICKNESS
 40
0.0
  9
$LIMCHECK
 70
     0
  9
$BLIPMODE
 70
     0
  9
$CHAMFERA
 40
0.0
  9
$CHAMFERB
 40
0.0
  9
$SKPOLY
 70
     0
  9
$TDCREATE
 40
2459599.9083796301856637
  9
$TDUPDATE
 40
2459599.9217824079096317
  9
$TDINDWG
 40
0.0118402778
  9
$TDUSRTIMER
 40
0.0118402778
  9
$USRTIMER
 70
     1
  9
$ANGBASE
 50
0.0
  9
$ANGDIR
 70
     0
  9
$PDMODE
 70
     0
  9
$PDSIZE
 40
0.0
  9
$PLINEWID
 40
0.0
  9
$COORDS
 70
     1
  9
$SPLFRAME
 70
     1
  9
$SPLINETYPE
 70
     6
  9
$SPLINESEGS
 70
     8
  9
$ATTDIA
 70
     1
  9
$ATTREQ
 70
     1
  9
$HANDLING
 70
     1
  9
$HANDSEED
  5
551
  9
$SURFTAB1
 70
     6
  9
$SURFTAB2
 70
     6
  9
$SURFTYPE
 70
     6
  9
$SURFU
 70
     6
  9
$SURFV
 70
     6
  9
$UCSNAME
  2

  9
$UCSORG
 10
0.0
 20
0.0
 30
0.0
  9
$UCSXDIR
 10
1.0
 20
0.0
 30
0.0
  9
$UCSYDIR
 10
0.0
 20
1.0
 30
0.0
  9
$PUCSNAME
  2

  9
$PUCSORG
 10
0.0
 20
0.0
 30
0.0
  9
$PUCSXDIR
 10
1.0
 20
0.0
 30
0.0
  9
$PUCSYDIR
 10
0.0
 20
1.0
 30
0.0
  9
$USERI1
 70
     0
  9
$USERI2
 70
     0
  9
$USERI3
 70
     0
  9
$USERI4
 70
     0
  9
$USERI5
 70
     0
  9
$USERR1
 40
0.0
  9
$USERR2
 40
0.0
  9
$USERR3
 40
0.0
  9
$USERR4
 40
0.0
  9
$USERR5
 40
0.0
  9
$WORLDVIEW
 70
     1
  9
$SHADEDGE
 70
     3
  9
$SHADEDIF
 70
    70
  9
$TILEMODE
 70
     1
  9
$MAXACTVP
 70
    64
  9
$PLIMCHECK
 70
     0
  9
$PEXTMIN
 10
1.0000000000000000E+20
 20
1.0000000000000000E+20
 30
1.0000000000000000E+20
  9
$PEXTMAX
 10
-1.0000000000000000E+20
 20
-1.0000000000000000E+20
 30
-1.0000000000000000E+20
  9
$PLIMMIN
 10
0.0
 20
0.0
  9
$PLIMMAX
 10
12.0
 20
9.0
  9
$UNITMODE
 70
     0
  9
$VISRETAIN
 70
     1
  9
$PLINEGEN
 70
     0
  9
$PSLTSCALE
 70
     1
  0
ENDSEC
  0
SECTION
  2
TABLES
  0
TABLE
  2
VPORT
 70
     1
  0
VPORT
  2
*ACTIVE
 70
     0
 10
0.0
 20
0.0
 11
1.0
 21
1.0
 12
232.7112417109156013
 22
76.5130201441974691
 13
0.0
 23
0.0
 14
1.0
 24
1.0
 15
0.0
 25
0.0
 16
0.0
 26
0.0
 36
1.0
 17
0.0
 27
0.0
 37
0.0
 40
283.9402786437689201
 41
2.3115151515151511
 42
50.0
 43
0.0
 44
0.0
 50
0.0
 51
0.0
 71
     0
 72
   100
 73
     1
 74
     1
 75
     0
 76
     0
 77
     0
 78
     0
  0
ENDTAB
  0
TABLE
  2
LTYPE
 70
     1
  0
LTYPE
  2
CONTINUOUS
 70
     0
  3
Solid line
 72
    65
 73
     0
 40
0.0
  0
ENDTAB
  0
TABLE
  2
LAYER
 70
     1
  0
LAYER
  2
0
 70
     0
 62
     7
  6
CONTINUOUS
  0
ENDTAB
  0
TABLE
  2
STYLE
 70
     2
  0
STYLE
  2
STANDARD
 70
     0
 40
0.0
 41
1.0
 50
0.0
 71
     0
 42
0.2
  3
txt
  4

  0
STYLE
  2
ANNOTATIVE
 70
     0
 40
0.0
 41
1.0
 50
0.0
 71
     0
 42
0.2
  3
txt
  4

  0
ENDTAB
  0
TABLE
  2
VIEW
 70
     0
  0
ENDTAB
  0
TABLE
  2
UCS
 70
     0
  0
ENDTAB
  0
TABLE
  2
APPID
 70
     4
  0
APPID
  2
ACAD
 70
     0
  0
APPID
  2
ACADANNOTATIVE
 70
     0
  0
APPID
  2
ACAD_NAV_VCDISPLAY
 70
     0
  0
APPID
  2
ACAD_MLEADERVER
 70
     0
  0
ENDTAB
  0
TABLE
  2
DIMSTYLE
 70
     2
  0
DIMSTYLE
  2
STANDARD
 70
     0
  3

  4

  5

  6

  7

 40
1.0
 41
0.18
 42
0.0625
 43
0.38
 44
0.18
 45
0.0
 46
0.0
 47
0.0
 48
0.0
140
0.18
141
0.09
142
0.0
143
25.3999999999999986
144
1.0
145
0.0
146
1.0
147
0.09
 71
     0
 72
     0
 73
     1
 74
     1
 75
     0
 76
     0
 77
     0
 78
     0
170
     0
171
     2
172
     0
173
     0
174
     0
175
     0
176
     0
177
     0
178
     0
  0
DIMSTYLE
  2
ANNOTATIVE
 70
     0
  3

  4

  5

  6

  7

 40
1.0
 41
0.18
 42
0.0625
 43
0.38
 44
0.18
 45
0.0
 46
0.0
 47
0.0
 48
0.0
140
0.18
141
0.09
142
0.0
143
25.3999999999999986
144
1.0
145
0.0
146
1.0
147
0.09
 71
     0
 72
     0
 73
     1
 74
     1
 75
     0
 76
     0
 77
     0
 78
     0
170
     0
171
     2
172
     0
173
     0
174
     0
175
     0
176
     0
177
     0
178
     0
  0
ENDTAB
  0
ENDSEC
  0
SECTION
  2
BLOCKS
  0
BLOCK
  8
0
  2
$MODEL_SPACE
 70
     0
 10
0.0
 20
0.0
 30
0.0
  3
$MODEL_SPACE
  1

  0
ENDBLK
  5
71
  8
0
  0
BLOCK
 67
     1
  8
0
  2
$PAPER_SPACE
 70
     0
 10
0.0
 20
0.0
 30
0.0
  3
$PAPER_SPACE
  1

  0
ENDBLK
  5
6D
 67
     1
  8
0
  0
ENDSEC
  0
SECTION
  2
ENTITIES
  0
LINE
  5
75
  8
0
 62
     0
 10
227.1090000000000089
 20
76.457499999999996
 30
0.0
 11
227.2330000000000041
 21
76.4535999999999945
 31
0.0
  0
LINE
  5
76
  8
0
 62
     0
 10
227.2330000000000041
 20
76.4535999999999945
 30
0.0
 11
227.3569999999999993
 21
76.4385000000000048
 31
0.0
  0
LINE
  5
77
  8
0
 62
     0
 10
227.3569999999999993
 20
76.4385000000000048
 30
0.0
 11
227.4799999999999898
 21
76.4147999999999996
 31
0.0
  0
LINE
  5
78
  8
0
 62
     0
 10
227.4799999999999898
 20
76.4147999999999996
 30
0.0
 11
227.5999999999999943
 21
76.3806000000000012
 31
0.0
  0
LINE
  5
79
  8
0
 62
     0
 10
227.5999999999999943
 20
76.3806000000000012
 30
0.0
 11
227.717000000000013
 21
76.3379000000000048
 31
0.0
  0
LINE
  5
7A
  8
0
 62
     0
 10
227.717000000000013
 20
76.3379000000000048
 30
0.0
 11
227.8300000000000125
 21
76.2839999999999918
 31
0.0
  0
LINE
  5
7B
  8
0
 62
     0
 10
227.8300000000000125
 20
76.2839999999999918
 30
0.0
 11
227.938999999999993
 21
76.2246999999999844
 31
0.0
  0
LINE
  5
7C
  8
0
 62
     0
 10
227.938999999999993
 20
76.2246999999999844
 30
0.0
 11
228.0420000000000016
 21
76.1544999999999987
 31
0.0
  0
LINE
  5
7D
  8
0
 62
     0
 10
228.0420000000000016
 20
76.1544999999999987
 30
0.0
 11
228.1399999999999864
 21
76.0772000000000048
 31
0.0
  0
LINE
  5
7E
  8
0
 62
     0
 10
228.1399999999999864
 20
76.0772000000000048
 30
0.0
 11
228.2319999999999993
 21
75.993300000000005
 31
0.0
  0
LINE
  5
7F
  8
0
 62
     0
 10
228.2319999999999993
 20
75.993300000000005
 30
0.0
 11
228.3160000000000025
 21
75.9008000000000038
 31
0.0
  0
LINE
  5
80
  8
0
 62
     0
 10
228.3160000000000025
 20
75.9008000000000038
 30
0.0
 11
228.3919999999999959
 21
75.8031000000000006
 31
0.0
  0
LINE
  5
81
  8
0
 62
     0
 10
228.3919999999999959
 20
75.8031000000000006
 30
0.0
 11
228.4619999999999891
 21
75.6997999999999962
 31
0.0
  0
LINE
  5
82
  8
0
 62
     0
 10
228.4619999999999891
 20
75.6997999999999962
 30
0.0
 11
228.5229999999999961
 21
75.5908000000000015
 31
0.0
  0
LINE
  5
83
  8
0
 62
     0
 10
228.5229999999999961
 20
75.5908000000000015
 30
0.0
 11
228.5749999999999886
 21
75.4779000000000053
 31
0.0
  0
LINE
  5
84
  8
0
 62
     0
 10
228.5749999999999886
 20
75.4779000000000053
 30
0.0
 11
228.617999999999995
 21
75.3606999999999942
 31
0.0
  0
LINE
  5
85
  8
0
 62
     0
 10
228.617999999999995
 20
75.3606999999999942
 30
0.0
 11
228.6519999999999868
 21
75.240799999999993
 31
0.0
  0
LINE
  5
86
  8
0
 62
     0
 10
228.6519999999999868
 20
75.240799999999993
 30
0.0
 11
228.6769999999999925
 21
75.1183999999999941
 31
0.0
  0
LINE
  5
87
  8
0
 62
     0
 10
228.6769999999999925
 20
75.1183999999999941
 30
0.0
 11
228.6910000000000025
 21
74.995599999999996
 31
0.0
  0
LINE
  5
88
  8
0
 62
     0
 10
228.6910000000000025
 20
74.995599999999996
 30
0.0
 11
228.695999999999998
 21
74.8700000000000045
 31
0.0
  0
LINE
  5
89
  8
0
 62
     0
 10
228.695999999999998
 20
74.8700000000000045
 30
0.0
 11
228.695999999999998
 21
1.8438099999999991
 31
0.0
  0
LINE
  5
8A
  8
0
 62
     0
 10
228.695999999999998
 20
1.8438099999999991
 30
0.0
 11
228.6910000000000025
 21
1.7197899999999999
 31
0.0
  0
LINE
  5
8B
  8
0
 62
     0
 10
228.6910000000000025
 20
1.7197899999999999
 30
0.0
 11
228.6769999999999925
 21
1.5957699999999999
 31
0.0
  0
LINE
  5
8C
  8
0
 62
     0
 10
228.6769999999999925
 20
1.5957699999999999
 30
0.0
 11
228.6519999999999868
 21
1.4731199999999991
 31
0.0
  0
LINE
  5
8D
  8
0
 62
     0
 10
228.6519999999999868
 20
1.4731199999999991
 30
0.0
 11
228.617999999999995
 21
1.353229999999999
 31
0.0
  0
LINE
  5
8E
  8
0
 62
     0
 10
228.617999999999995
 20
1.353229999999999
 30
0.0
 11
228.5749999999999886
 21
1.2360999999999991
 31
0.0
  0
LINE
  5
8F
  8
0
 62
     0
 10
228.5749999999999886
 20
1.2360999999999991
 30
0.0
 11
228.5229999999999961
 21
1.1230999999999991
 31
0.0
  0
LINE
  5
90
  8
0
 62
     0
 10
228.5229999999999961
 20
1.1230999999999991
 30
0.0
 11
228.4619999999999891
 21
1.01424
 31
0.0
  0
LINE
  5
91
  8
0
 62
     0
 10
228.4619999999999891
 20
1.01424
 30
0.0
 11
228.3919999999999959
 21
0.9108829999999999
 31
0.0
  0
LINE
  5
92
  8
0
 62
     0
 10
228.3919999999999959
 20
0.9108829999999999
 30
0.0
 11
228.3160000000000025
 21
0.813043
 31
0.0
  0
LINE
  5
93
  8
0
 62
     0
 10
228.3160000000000025
 20
0.813043
 30
0.0
 11
228.2319999999999993
 21
0.7207140000000001
 31
0.0
  0
LINE
  5
94
  8
0
 62
     0
 10
228.2319999999999993
 20
0.7207140000000001
 30
0.0
 11
228.1399999999999864
 21
0.6366550000000001
 31
0.0
  0
LINE
  5
95
  8
0
 62
     0
 10
228.1399999999999864
 20
0.6366550000000001
 30
0.0
 11
228.0420000000000016
 21
0.56086
 31
0.0
  0
LINE
  5
96
  8
0
 62
     0
 10
228.0420000000000016
 20
0.56086
 30
0.0
 11
227.938999999999993
 21
0.490583
 31
0.0
  0
LINE
  5
97
  8
0
 62
     0
 10
227.938999999999993
 20
0.490583
 30
0.0
 11
227.8300000000000125
 21
0.4299479999999999
 31
0.0
  0
LINE
  5
98
  8
0
 62
     0
 10
227.8300000000000125
 20
0.4299479999999999
 30
0.0
 11
227.717000000000013
 21
0.377582
 31
0.0
  0
LINE
  5
99
  8
0
 62
     0
 10
227.717000000000013
 20
0.377582
 30
0.0
 11
227.5999999999999943
 21
0.334863
 31
0.0
  0
LINE
  5
9A
  8
0
 62
     0
 10
227.5999999999999943
 20
0.334863
 30
0.0
 11
227.4799999999999898
 21
0.300412
 31
0.0
  0
LINE
  5
9B
  8
0
 62
     0
 10
227.4799999999999898
 20
0.300412
 30
0.0
 11
227.3569999999999993
 21
0.275608
 31
0.0
  0
LINE
  5
9C
  8
0
 62
     0
 10
227.3569999999999993
 20
0.275608
 30
0.0
 11
227.2330000000000041
 21
0.261827
 31
0.0
  0
LINE
  5
9D
  8
0
 62
     0
 10
227.2330000000000041
 20
0.261827
 30
0.0
 11
227.1090000000000089
 21
0.257693
 31
0.0
  0
LINE
  5
9E
  8
0
 62
     0
 10
227.1090000000000089
 20
0.257693
 30
0.0
 11
1.6825799999999991
 21
0.256315
 31
0.0
  0
LINE
  5
9F
  8
0
 62
     0
 10
1.6825799999999991
 20
0.256315
 30
0.0
 11
1.5571799999999989
 21
0.261827
 31
0.0
  0
LINE
  5
A0
  8
0
 62
     0
 10
1.5571799999999989
 20
0.261827
 30
0.0
 11
1.434539999999999
 21
0.275608
 31
0.0
  0
LINE
  5
A1
  8
0
 62
     0
 10
1.434539999999999
 20
0.275608
 30
0.0
 11
1.31189
 21
0.300412
 31
0.0
  0
LINE
  5
A2
  8
0
 62
     0
 10
1.31189
 20
0.300412
 30
0.0
 11
1.1919999999999991
 21
0.334863
 31
0.0
  0
LINE
  5
A3
  8
0
 62
     0
 10
1.1919999999999991
 20
0.334863
 30
0.0
 11
1.0748699999999991
 21
0.377582
 31
0.0
  0
LINE
  5
A4
  8
0
 62
     0
 10
1.0748699999999991
 20
0.377582
 30
0.0
 11
0.96187
 21
0.4299479999999999
 31
0.0
  0
LINE
  5
A5
  8
0
 62
     0
 10
0.96187
 20
0.4299479999999999
 30
0.0
 11
0.8530059999999998
 21
0.490583
 31
0.0
  0
LINE
  5
A6
  8
0
 62
     0
 10
0.8530059999999998
 20
0.490583
 30
0.0
 11
0.749653
 21
0.56086
 31
0.0
  0
LINE
  5
A7
  8
0
 62
     0
 10
0.749653
 20
0.56086
 30
0.0
 11
0.651813
 21
0.6366550000000001
 31
0.0
  0
LINE
  5
A8
  8
0
 62
     0
 10
0.651813
 20
0.6366550000000001
 30
0.0
 11
0.559484
 21
0.7207140000000001
 31
0.0
  0
LINE
  5
A9
  8
0
 62
     0
 10
0.559484
 20
0.7207140000000001
 30
0.0
 11
0.475424
 21
0.813043
 31
0.0
  0
LINE
  5
AA
  8
0
 62
     0
 10
0.475424
 20
0.813043
 30
0.0
 11
0.398254
 21
0.9108829999999999
 31
0.0
  0
LINE
  5
AB
  8
0
 62
     0
 10
0.398254
 20
0.9108829999999999
 30
0.0
 11
0.327973
 21
1.01424
 31
0.0
  0
LINE
  5
AC
  8
0
 62
     0
 10
0.327973
 20
1.01424
 30
0.0
 11
0.268718
 21
1.1230999999999991
 31
0.0
  0
LINE
  5
AD
  8
0
 62
     0
 10
0.268718
 20
1.1230999999999991
 30
0.0
 11
0.2149739999999999
 21
1.2360999999999991
 31
0.0
  0
LINE
  5
AE
  8
0
 62
     0
 10
0.2149739999999999
 20
1.2360999999999991
 30
0.0
 11
0.172255
 21
1.353229999999999
 31
0.0
  0
LINE
  5
AF
  8
0
 62
     0
 10
0.172255
 20
1.353229999999999
 30
0.0
 11
0.137804
 21
1.4731199999999991
 31
0.0
  0
LINE
  5
B0
  8
0
 62
     0
 10
0.137804
 20
1.4731199999999991
 30
0.0
 11
0.114377
 21
1.5957699999999999
 31
0.0
  0
LINE
  5
B1
  8
0
 62
     0
 10
0.114377
 20
1.5957699999999999
 30
0.0
 11
0.0992188
 21
1.7197899999999999
 31
0.0
  0
LINE
  5
B2
  8
0
 62
     0
 10
0.0992188
 20
1.7197899999999999
 30
0.0
 11
0.0950846
 21
1.8438099999999991
 31
0.0
  0
LINE
  5
B3
  8
0
 62
     0
 10
0.0950846
 20
1.8438099999999991
 30
0.0
 11
0.0950846
 21
74.8700000000000045
 31
0.0
  0
LINE
  5
B4
  8
0
 62
     0
 10
0.0950846
 20
74.8700000000000045
 30
0.0
 11
0.0992188
 21
74.995599999999996
 31
0.0
  0
LINE
  5
B5
  8
0
 62
     0
 10
0.0992188
 20
74.995599999999996
 30
0.0
 11
0.114377
 21
75.1183999999999941
 31
0.0
  0
LINE
  5
B6
  8
0
 62
     0
 10
0.114377
 20
75.1183999999999941
 30
0.0
 11
0.137804
 21
75.240799999999993
 31
0.0
  0
LINE
  5
B7
  8
0
 62
     0
 10
0.137804
 20
75.240799999999993
 30
0.0
 11
0.172255
 21
75.3606999999999942
 31
0.0
  0
LINE
  5
B8
  8
0
 62
     0
 10
0.172255
 20
75.3606999999999942
 30
0.0
 11
0.2149739999999999
 21
75.4779000000000053
 31
0.0
  0
LINE
  5
B9
  8
0
 62
     0
 10
0.2149739999999999
 20
75.4779000000000053
 30
0.0
 11
0.268718
 21
75.5908000000000015
 31
0.0
  0
LINE
  5
BA
  8
0
 62
     0
 10
0.268718
 20
75.5908000000000015
 30
0.0
 11
0.327973
 21
75.6997999999999962
 31
0.0
  0
LINE
  5
BB
  8
0
 62
     0
 10
0.327973
 20
75.6997999999999962
 30
0.0
 11
0.398254
 21
75.8031000000000006
 31
0.0
  0
LINE
  5
BC
  8
0
 62
     0
 10
0.398254
 20
75.8031000000000006
 30
0.0
 11
0.475424
 21
75.9008000000000038
 31
0.0
  0
LINE
  5
BD
  8
0
 62
     0
 10
0.475424
 20
75.9008000000000038
 30
0.0
 11
0.559484
 21
75.993300000000005
 31
0.0
  0
LINE
  5
BE
  8
0
 62
     0
 10
0.559484
 20
75.993300000000005
 30
0.0
 11
0.651813
 21
76.0772000000000048
 31
0.0
  0
LINE
  5
BF
  8
0
 62
     0
 10
0.651813
 20
76.0772000000000048
 30
0.0
 11
0.749653
 21
76.1544999999999987
 31
0.0
  0
LINE
  5
C0
  8
0
 62
     0
 10
0.749653
 20
76.1544999999999987
 30
0.0
 11
0.8530059999999998
 21
76.2246999999999844
 31
0.0
  0
LINE
  5
C1
  8
0
 62
     0
 10
0.8530059999999998
 20
76.2246999999999844
 30
0.0
 11
0.96187
 21
76.2839999999999918
 31
0.0
  0
LINE
  5
C2
  8
0
 62
     0
 10
0.96187
 20
76.2839999999999918
 30
0.0
 11
1.0748699999999991
 21
76.3379000000000048
 31
0.0
  0
LINE
  5
C3
  8
0
 62
     0
 10
1.0748699999999991
 20
76.3379000000000048
 30
0.0
 11
1.1919999999999991
 21
76.3806000000000012
 31
0.0
  0
LINE
  5
C4
  8
0
 62
     0
 10
1.1919999999999991
 20
76.3806000000000012
 30
0.0
 11
1.31189
 21
76.4147999999999996
 31
0.0
  0
LINE
  5
C5
  8
0
 62
     0
 10
1.31189
 20
76.4147999999999996
 30
0.0
 11
1.434539999999999
 21
76.4385000000000048
 31
0.0
  0
LINE
  5
C6
  8
0
 62
     0
 10
1.434539999999999
 20
76.4385000000000048
 30
0.0
 11
1.5571799999999989
 21
76.4535999999999945
 31
0.0
  0
LINE
  5
C7
  8
0
 62
     0
 10
1.5571799999999989
 20
76.4535999999999945
 30
0.0
 11
1.6825799999999991
 21
76.457499999999996
 31
0.0
  0
LINE
  5
C8
  8
0
 62
     0
 10
1.6825799999999991
 20
76.457499999999996
 30
0.0
 11
227.1090000000000089
 21
76.457499999999996
 31
0.0
  0
CIRCLE
  5
4AC
  8
0
  6
CONTINUOUS
 10
19.1458000000000013
 20
19.3069999999999986
 30
0.0
 40
0.95
  0
CIRCLE
  5
4AD
  8
0
  6
CONTINUOUS
 10
19.1458000000000013
 20
57.4069999999999965
 30
0.0
 40
0.95
  0
CIRCLE
  5
4AE
  8
0
  6
CONTINUOUS
 10
57.2457499999999868
 20
38.3569050000000118
 30
0.0
 40
0.95
  0
CIRCLE
  5
4AF
  8
0
  6
CONTINUOUS
 10
209.6454999999999984
 20
19.3069999999999986
 30
0.0
 40
0.95
  0
CIRCLE
  5
4B0
  8
0
  6
CONTINUOUS
 10
209.6454999999999984
 20
57.4069999999999965
 30
0.0
 40
0.95
  0
CIRCLE
  5
4B1
  8
0
  6
CONTINUOUS
 10
171.5455000000000041
 20
38.3573549999999912
 30
0.0
 40
0.95
  0
ENDSEC
  0
EOF
